<?xml version="1.0" standalone="no"?>
<!DOCTYPE svg PUBLIC "-//W3C//DTD SVG 1.1//EN" "http://www.w3.org/Graphics/SVG/1.1/DTD/svg11.dtd" >
<svg>
<metadata>
Created by FontForge 20120731 at Mon Jul  8 11:58:21 2019
 By www
2010 Erik Spiekermann, Christian Schwartz published by FSI FontShop International GmbH
</metadata>
<defs>
<font id="UnitRoundedWebW04-Medium" horiz-adv-x="550" >
  <font-face 
    font-family="UnitRoundedWebW04-Medium"
    font-weight="500"
    font-stretch="normal"
    units-per-em="1000"
    panose-1="2 11 6 4 3 1 1 2 1 2"
    ascent="800"
    descent="-200"
    x-height="506"
    cap-height="692"
    bbox="-702 -265 1365 1052.16"
    underline-thickness="50"
    underline-position="-75"
    unicode-range="U+0020-FB06"
  />
<missing-glyph horiz-adv-x="524" 
d="M105 0q-13 0 -22 9t-9 22v630q0 13 9 22t22 9h314q13 0 22 -9t9 -22v-630q0 -13 -9 -22t-22 -9h-314zM164 90h196v512h-196v-512z" />
    <glyph glyph-name="uniFB00" unicode="ff" horiz-adv-x="580" 
d="M59 418q-13 0 -22 9t-9 22v26q0 13 9 22t22 9h22v60q0 49 11.5 80t30.5 48.5t43.5 24t49.5 6.5q41 0 71 -9q12 -4 17.5 -15t1.5 -23l-12 -32q-4 -9 -12.5 -13.5t-17.5 -2.5q-5 1 -11 1.5t-14 0.5q-22 0 -33 -13.5t-11 -45.5v-67h153v70q0 49 11.5 80t31 48.5t45 24
t53.5 6.5q46 0 83 -13q11 -4 17 -15.5t1 -22.5l-10 -26q-5 -11 -15.5 -16.5t-22.5 -2.5q-14 3 -30 3q-26 0 -38 -13.5t-12 -45.5v-77h59q13 0 22 -9t9 -22v-26q0 -13 -9 -22t-22 -9h-59v-387q0 -13 -9 -22t-22 -9h-52q-13 0 -22 9t-9 22v387h-153v-387q0 -13 -9 -22t-22 -9
h-52q-13 0 -22 9t-9 22v387h-22z" />
    <glyph glyph-name="uniFB01" unicode="fi" horiz-adv-x="534" 
d="M379 0q-13 0 -22 9t-9 22v387h-153v-387q0 -13 -9 -22t-22 -9h-52q-13 0 -22 9t-9 22v387h-22q-13 0 -22 9t-9 22v26q0 13 9 22t22 9h22v48q0 50 13.5 84.5t37 56t55.5 31t70 9.5q37 0 63.5 -5t50.5 -15q12 -5 17 -17t0 -23l-12 -30q-5 -12 -16.5 -17.5t-23.5 -0.5
q-14 5 -28.5 8t-33.5 3q-42 0 -60.5 -16.5t-18.5 -61.5v-54h236q13 0 22 -9t9 -22v-444q0 -13 -9 -22t-22 -9h-52z" />
    <glyph glyph-name="uniFB02" unicode="fl" horiz-adv-x="553" 
d="M462 117q0 -31 21 -37q15 -5 24.5 -11t11.5 -21l3 -21q2 -12 -4.5 -21.5t-19.5 -11.5q-22 -5 -42 -5q-32 0 -53 8.5t-33 25.5t-17 44t-5 64v505q-14 3 -29.5 5t-37.5 2q-42 0 -64 -17t-22 -56v-64h57q13 0 22 -9t9 -22v-26q0 -13 -9 -22t-22 -9h-57v-387q0 -13 -9 -22
t-22 -9h-52q-13 0 -22 9t-9 22v387h-22q-13 0 -22 9t-9 22v26q0 13 9 22t22 9h22v58q0 49 14.5 81.5t39.5 52.5t58 28.5t70 8.5q26 0 49 -2t42 -5h77q13 0 22 -9t9 -22v-580z" />
    <glyph glyph-name="uniFB03" unicode="ffi" horiz-adv-x="801" 
d="M379 0q-13 0 -22 9t-9 22v387h-153v-387q0 -13 -9 -22t-22 -9h-52q-13 0 -22 9t-9 22v387h-22q-13 0 -22 9t-9 22v26q0 13 9 22t22 9h22v60q0 49 11.5 80t31 48.5t44 24t50.5 6.5q41 0 71 -9q10 -3 15.5 -11t5.5 -17q0 -4 -2 -10l-12 -32q-3 -9 -11.5 -13.5t-18.5 -2.5
q-5 1 -11 1.5t-14 0.5q-23 0 -34.5 -13.5t-11.5 -45.5v-67h153v48q0 50 13.5 84.5t37 56t55.5 31t70 9.5q37 0 63.5 -5t50.5 -15q19 -8 19 -29q0 -5 -2 -11l-12 -30q-8 -20 -29 -20q-5 0 -11 2q-14 5 -28.5 8t-33.5 3q-42 0 -60.5 -16.5t-18.5 -61.5v-54h236q13 0 22 -9
t9 -22v-444q0 -13 -9 -22t-22 -9h-52q-13 0 -22 9t-9 22v387h-153v-387q0 -13 -9 -22t-22 -9h-52z" />
    <glyph glyph-name="uniFB04" unicode="ffl" horiz-adv-x="820" 
d="M729 117q0 -31 21 -37q15 -5 24.5 -11t11.5 -21l3 -21q2 -12 -4.5 -21.5t-19.5 -11.5q-22 -5 -42 -5q-32 0 -53 8.5t-33 25.5t-17 44t-5 64v505q-14 3 -29.5 5t-38.5 2q-42 0 -63.5 -17t-21.5 -56v-64h57q13 0 22 -9t9 -22v-26q0 -13 -9 -22t-22 -9h-57v-387
q0 -13 -9 -22t-22 -9h-52q-13 0 -22 9t-9 22v387h-153v-387q0 -13 -9 -22t-22 -9h-52q-13 0 -22 9t-9 22v387h-22q-13 0 -22 9t-9 22v26q0 13 9 22t22 9h22v60q0 49 11.5 80t30.5 48.5t43.5 24t49.5 6.5q41 0 71 -9q12 -4 17.5 -15t1.5 -23l-12 -32q-4 -9 -12.5 -13.5
t-17.5 -2.5q-5 1 -11 1.5t-14 0.5q-22 0 -33 -13.5t-11 -45.5v-67h153v58q0 49 14.5 81.5t39.5 52.5t58 28.5t70 8.5q26 0 49 -2t42 -5h77q13 0 22 -9t9 -22v-580z" />
    <glyph glyph-name=".notdef" horiz-adv-x="524" 
d="M105 0q-13 0 -22 9t-9 22v630q0 13 9 22t22 9h314q13 0 22 -9t9 -22v-630q0 -13 -9 -22t-22 -9h-314zM164 90h196v512h-196v-512z" />
    <glyph glyph-name="glyph1" horiz-adv-x="0" 
 />
    <glyph glyph-name="glyph1" horiz-adv-x="0" 
 />
    <glyph glyph-name="glyph2" horiz-adv-x="246" 
 />
    <glyph glyph-name="space" unicode=" " horiz-adv-x="246" 
 />
    <glyph glyph-name="exclam" unicode="!" horiz-adv-x="289" 
d="M133 208q-13 0 -22.5 9t-10.5 22l-22 422q-1 13 7.5 22t21.5 9h75q13 0 21.5 -9t7.5 -22l-21 -422q-1 -13 -10.5 -22t-22.5 -9h-24zM222 65q0 -32 -21.5 -53.5t-53.5 -21.5t-53.5 21.5t-21.5 53.5t21.5 54t53.5 22t53.5 -22t21.5 -54z" />
    <glyph glyph-name="quotedbl" unicode="&#x22;" horiz-adv-x="447" 
d="M104 434q-13 0 -22 9t-9 22v213q0 13 9 22t22 9h45q13 0 22 -9t9 -22v-213q0 -13 -9 -22t-22 -9h-45zM298 434q-13 0 -22 9t-9 22v213q0 13 9 22t22 9h44q13 0 22 -9t9 -22v-213q0 -13 -9 -22t-22 -9h-44z" />
    <glyph glyph-name="numbersign" unicode="#" 
d="M152 418h-51q-13 0 -22 9t-9 22v18q0 13 9 22t22 9h62l24 164q2 14 11.5 22t23.5 8h20q12 0 20.5 -9.5t6.5 -21.5l-24 -163h101l24 164q2 14 11.5 22t23.5 8h20q12 0 20.5 -9.5t6.5 -21.5l-24 -163h47q13 0 22 -9t9 -22v-18q0 -13 -9 -22t-22 -9h-58l-19 -135h51
q13 0 22 -9t9 -22v-18q0 -13 -9 -22t-22 -9h-62l-25 -172q-2 -14 -11.5 -22.5t-23.5 -8.5h-20q-12 0 -20.5 9.5t-6.5 21.5l25 172h-101l-25 -172q-2 -14 -11.5 -22.5t-23.5 -8.5h-20q-12 0 -20.5 9.5t-6.5 21.5l25 172h-48q-13 0 -22 9t-9 22v18q0 13 9 22t22 9h59zM335 418
h-101l-19 -135h101z" />
    <glyph glyph-name="dollar" unicode="$" 
d="M80 514q0 85 39 132t114 57v58q0 13 9 22t22 9h26q13 0 22 -9t9 -22v-59q59 -7 102 -31q11 -6 15 -18.5t-1 -23.5l-15 -28q-6 -11 -18.5 -15t-23.5 1q-16 8 -33 13t-37 7v-199q36 -13 67 -29t53.5 -40t35.5 -58.5t13 -84.5q0 -95 -40 -145t-124 -61v-90q0 -13 -9 -22
t-22 -9h-27q-13 0 -22 9t-9 22v89q-42 4 -79 15t-67 25q-11 6 -15.5 18t0.5 24l13 32q5 12 17 16t23 -1q26 -14 54.5 -22.5t58.5 -10.5v229q-38 14 -66 30t-47 39t-28.5 54.5t-9.5 76.5zM361 188q0 35 -13 56t-38 36v-188q27 10 39 33t12 63zM193 521q0 -31 8 -48.5
t30 -31.5v158q-38 -18 -38 -78z" />
    <glyph glyph-name="percent" unicode="%" horiz-adv-x="855" 
d="M805 160q0 -41 -11.5 -72.5t-32.5 -54t-50.5 -34t-65.5 -11.5q-72 0 -116 46t-44 128q0 81 44 126.5t116 45.5t116 -46t44 -128zM369 476q0 -41 -11.5 -72.5t-32.5 -54t-50.5 -34t-65.5 -11.5q-72 0 -116 46t-44 127q0 82 44 127.5t116 45.5t116 -46t44 -128zM213 0
q-11 0 -15.5 9t0.5 17l358 586q16 26 47 26h38q11 0 15.5 -9t-0.5 -17l-358 -586q-16 -26 -47 -26h-38zM585 165q0 -59 14 -81.5t46 -22.5t45.5 23t13.5 74q0 60 -13.5 82t-45.5 22t-46 -22.5t-14 -74.5zM150 480q0 -59 13.5 -81t45.5 -22t45.5 22.5t13.5 74.5
q0 60 -13.5 82t-45.5 22t-45.5 -22.5t-13.5 -75.5z" />
    <glyph glyph-name="ampersand" unicode="&#x26;" horiz-adv-x="666" 
d="M462 48q-70 -61 -180 -61q-119 0 -178.5 54.5t-59.5 148.5q0 73 35.5 120t108.5 79q-34 40 -52.5 76.5t-18.5 80.5q0 72 47 115.5t132 43.5q79 0 127.5 -42.5t48.5 -119.5q0 -59 -36 -97t-98 -70l125 -151q16 44 28 103q3 12 13.5 19t23.5 5l34 -6q11 -2 19 -12t5 -24
q-11 -51 -23.5 -92.5t-30.5 -76.5l97 -117q6 -8 2 -16t-13 -8h-86q-14 0 -28 6.5t-23 17.5zM170 196q0 -56 26.5 -87.5t93.5 -31.5q66 0 111 45l-163 201q-38 -21 -53 -51.5t-15 -75.5zM298 618q-34 0 -51 -18.5t-17 -50.5q0 -26 12 -47.5t28 -41.5l20 -25q41 26 55 48.5
t14 56.5q0 78 -61 78z" />
    <glyph glyph-name="quotesingle" unicode="'" horiz-adv-x="253" 
d="M104 434q-13 0 -22 9t-9 22v213q0 13 9 22t22 9h44q13 0 22 -9t9 -22v-213q0 -13 -9 -22t-22 -9h-44z" />
    <glyph glyph-name="parenleft" unicode="(" horiz-adv-x="356" 
d="M303 -139q-5 -11 -17.5 -15t-23.5 1q-108 57 -157.5 169t-49.5 286t47.5 290t159.5 175q11 5 23.5 1t17.5 -15l6 -14q6 -13 3 -26.5t-14 -21.5q-29 -23 -52 -53.5t-38.5 -74.5t-23.5 -105.5t-8 -145.5q0 -87 8 -150t23 -108.5t37.5 -77t52.5 -53.5q11 -8 14.5 -21.5
t-2.5 -26.5z" />
    <glyph glyph-name="parenright" unicode=")" horiz-adv-x="356" 
d="M300 305q0 -169 -48.5 -284.5t-159.5 -173.5q-11 -5 -23.5 -1t-17.5 15l-6 14q-6 13 -3 26.5t14 21.5q29 22 52 51.5t39 73t24.5 104.5t8.5 146q0 86 -8 149.5t-23.5 110t-38.5 78.5t-53 55q-11 8 -14.5 21.5t2.5 26.5l7 14q5 11 17.5 15t23.5 -1q109 -57 158 -172
t49 -290z" />
    <glyph glyph-name="asterisk" unicode="*" horiz-adv-x="487" 
d="M183 330q-7 -11 -19.5 -13.5t-22.5 5.5l-21 14q-10 8 -12.5 20t5.5 23l69 94l-104 37q-12 4 -17.5 15.5t-1.5 23.5l9 24q4 12 15.5 17t23.5 0l94 -38v113q0 13 9 22t22 9h27q13 0 22 -9t9 -22v-113l95 35q12 5 23.5 -0.5t15.5 -17.5l9 -24q4 -12 -2 -23t-18 -15l-104 -33
l70 -95q8 -11 5.5 -23t-12.5 -20l-21 -14q-10 -8 -22.5 -5.5t-19.5 13.5l-63 91z" />
    <glyph glyph-name="plus" unicode="+" 
d="M251 99q-13 0 -22 9t-9 22v143h-127q-13 0 -22 9t-9 22v42q0 13 9 22t22 9h127v142q0 13 9 22t22 9h48q13 0 22 -9t9 -22v-142h126q13 0 22 -9t9 -22v-42q0 -13 -9 -22t-22 -9h-126v-143q0 -13 -9 -22t-22 -9h-48z" />
    <glyph glyph-name="comma" unicode="," horiz-adv-x="284" 
d="M221 45q0 -62 -27 -107.5t-85 -66.5q-12 -5 -22 0.5t-13 14.5l-1 3q-4 12 0.5 24t16.5 20q17 11 27 25.5t10 35.5q-11 1 -22.5 6.5t-21 15t-16 23.5t-6.5 33q0 34 21.5 55.5t51.5 21.5q38 0 62.5 -28t24.5 -76z" />
    <glyph glyph-name="hyphen" unicode="-" horiz-adv-x="311" 
d="M81 215q-13 0 -22 9t-9 22v54q0 13 9 22t22 9h149q13 0 22 -9t9 -22v-54q0 -13 -9 -22t-22 -9h-149z" />
    <glyph glyph-name="period" unicode="." horiz-adv-x="280" 
d="M219 69q0 -33 -23 -56t-56 -23t-56 23t-23 56t23 56.5t56 23.5t56 -23.5t23 -56.5z" />
    <glyph glyph-name="slash" unicode="/" horiz-adv-x="380" 
d="M53 -152q-12 0 -19 9.5t-4 20.5l223 856q4 13 14.5 21.5t24.5 8.5h34q12 0 19 -9.5t4 -20.5l-223 -856q-4 -13 -14.5 -21.5t-24.5 -8.5h-34z" />
    <glyph glyph-name="zero" unicode="0" 
d="M508 348q0 -360 -232 -360q-119 0 -177 88t-58 269q0 183 58 271t176 88t175.5 -87t57.5 -269zM164 349q0 -75 6 -126.5t19 -83t34.5 -45.5t51.5 -14q31 0 52 13.5t34 44.5t18.5 82t5.5 126t-6 125.5t-19 81.5t-34 44.5t-51 13.5q-31 0 -52 -13t-34 -43.5t-19 -80.5
t-6 -125z" />
    <glyph glyph-name="one" unicode="1" 
d="M146 0q-13 0 -22 9t-9 22v32q0 13 9 22t22 9h91v447l-88 -44q-12 -6 -24.5 -2t-18.5 15l-5 12q-7 11 -4.5 24.5t13.5 21.5l136 109q24 19 55 19h23q13 0 22 -9t9 -22v-571h77q13 0 22 -9t9 -22v-32q0 -13 -9 -22t-22 -9h-286z" />
    <glyph glyph-name="two" unicode="2" 
d="M103 0q-13 0 -22 9t-9 22v43q0 14 6 28t16 24q80 76 129.5 131.5t76.5 97.5t36.5 74t9.5 63q0 58 -23.5 84.5t-74.5 26.5q-34 0 -61.5 -8t-53.5 -21q-11 -6 -23 -1.5t-17 15.5l-14 31q-5 12 0 25t17 19q35 18 75 29.5t93 11.5q102 0 155 -52t53 -152q0 -40 -12 -81.5
t-42 -89.5t-81.5 -105t-130.5 -126h246q13 0 22 -9t9 -22v-36q0 -13 -9 -22t-22 -9h-349z" />
    <glyph glyph-name="three" unicode="3" 
d="M480 208q0 -50 -13.5 -90.5t-43.5 -69.5t-77 -45t-114 -16q-42 0 -80.5 6.5t-70.5 15.5q-13 4 -19.5 15t-3.5 23l7 32q3 13 14 20t23 4q29 -6 59.5 -10t57.5 -4q74 0 103 29.5t29 96.5q0 64 -31.5 87t-101.5 23h-24q-10 0 -16.5 6.5t-6.5 16.5v44q0 11 7.5 18.5t18.5 7.5
h28q63 0 87 24.5t24 75.5q0 44 -22.5 66t-76.5 22q-30 0 -58.5 -5.5t-56.5 -16.5q-11 -5 -23 0t-17 17l-10 27q-5 12 0 24.5t17 17.5q36 17 77.5 26t91.5 9q94 0 147 -47t53 -126q0 -53 -21 -95t-76 -64q60 -17 89.5 -62.5t29.5 -102.5z" />
    <glyph glyph-name="four" unicode="4" 
d="M330 148h-257q-13 0 -22 9t-9 22v45q0 14 3 30.5t8 29.5l148 379q5 13 16.5 21t25.5 8h63q11 0 17.5 -9t2.5 -20l-164 -416h168v219q0 14 8.5 24t22.5 13l54 9q12 2 21.5 -5.5t9.5 -19.5v-240h37q13 0 22 -9t9 -22v-37q0 -13 -9 -22t-22 -9h-37v-117q0 -13 -9 -22t-22 -9
h-54q-13 0 -22 9t-9 22v117z" />
    <glyph glyph-name="five" unicode="5" 
d="M484 235q0 -118 -65 -182.5t-197 -64.5q-41 0 -76 6.5t-66 15.5q-12 3 -18.5 14.5t-3.5 23.5l8 33q3 13 14 19.5t23 3.5q26 -7 52 -11t54 -4q78 0 113 34.5t35 103.5q0 68 -34.5 94.5t-106.5 26.5q-26 0 -49 -2.5t-46 -8.5q-11 -2 -20 5.5t-7 18.5l24 300q1 13 10.5 22
t22.5 9h275q13 0 22 -9t9 -22v-39q0 -13 -9 -22t-22 -9h-208l-12 -152q10 2 24.5 3.5t28.5 1.5q48 0 89 -13.5t71.5 -39.5t47.5 -65.5t17 -90.5z" />
    <glyph glyph-name="six" unicode="6" 
d="M504 224q0 -57 -16.5 -101t-46 -74.5t-70 -46t-89.5 -15.5q-51 0 -94.5 18.5t-75 55.5t-49 91.5t-17.5 125.5q0 93 21 165t63 124.5t104.5 86.5t145.5 53q12 3 23 -4t15 -19l8 -29q3 -12 -3 -23.5t-19 -15.5q-45 -14 -82 -31t-65 -41t-47 -58.5t-29 -84.5q26 21 56 33.5
t71 12.5q43 0 79 -14.5t62 -43t40.5 -70t14.5 -95.5zM382 220q0 66 -25 100.5t-76 34.5q-35 0 -60.5 -11t-49.5 -32q-1 -11 -1 -23v-25q0 -99 27.5 -141.5t84.5 -42.5q50 0 75 36t25 104z" />
    <glyph glyph-name="seven" unicode="7" 
d="M459 558q-32 -40 -65 -95.5t-61.5 -123.5t-49 -148.5t-27.5 -169.5q-1 -13 -11.5 -21.5t-22.5 -6.5l-60 7q-12 2 -20.5 11.5t-6.5 22.5q12 97 37.5 182t57.5 155t68 124.5t68 92.5h-273q-13 0 -22 9t-9 22v42q0 13 9 22t22 9h355q13 0 22 -9t9 -22v-46q0 -14 -5.5 -29.5
t-14.5 -27.5z" />
    <glyph glyph-name="eight" unicode="8" 
d="M505 182q0 -94 -59.5 -144.5t-170.5 -50.5q-62 0 -106 15.5t-71.5 42t-40.5 62t-13 75.5q0 66 31 107t92 67q-30 15 -49 34.5t-30 41t-15 45t-4 47.5q0 87 56 134t153 47q48 0 86 -12.5t65 -35.5t41.5 -56t14.5 -73q0 -54 -25.5 -92.5t-88.5 -66.5q77 -33 105.5 -79.5
t28.5 -107.5zM382 172q0 44 -18.5 73.5t-73.5 49.5l-52 19q-38 -21 -57.5 -51t-19.5 -76q0 -62 29 -86.5t85 -24.5t81.5 25.5t25.5 70.5zM276 617q-88 0 -88 -90q0 -18 2.5 -33t11 -28t24 -25t41.5 -23l22 -10q50 25 65 53.5t15 66.5q0 89 -93 89z" />
    <glyph glyph-name="nine" unicode="9" 
d="M265 337q35 0 61 10.5t50 31.5q1 13 1.5 26.5t0.5 27.5q0 99 -27 139t-83 40q-52 0 -76.5 -36t-24.5 -104q0 -71 23.5 -103t74.5 -32zM137 76q45 14 81.5 30.5t65 40.5t48.5 58t31 82q-25 -20 -54 -31t-66 -11q-43 0 -79.5 15.5t-62.5 44t-41 70t-15 93.5q0 57 17 101
t47 74.5t71 46t89 15.5q51 0 94 -17.5t74 -53.5t48 -89.5t17 -125.5q0 -95 -21 -167.5t-63.5 -125.5t-106.5 -87.5t-150 -53.5q-12 -3 -23 4t-15 19l-8 29q-3 12 3 23.5t19 15.5z" />
    <glyph glyph-name="colon" unicode=":" horiz-adv-x="308" 
d="M231 363q0 -34 -23 -57t-56 -23q-32 0 -55.5 23t-23.5 57q0 33 23.5 56t55.5 23q33 0 56 -23t23 -56zM231 69q0 -33 -23 -56t-56 -23q-32 0 -55.5 23t-23.5 56t23.5 56.5t55.5 23.5q33 0 56 -23.5t23 -56.5z" />
    <glyph glyph-name="semicolon" unicode=";" horiz-adv-x="308" 
d="M231 363q0 -34 -23 -57t-56 -23q-32 0 -55.5 23t-23.5 57q0 33 23.5 56t55.5 23q33 0 56 -23t23 -56zM234 45q0 -62 -27 -108t-86 -67q-11 -4 -21.5 1.5t-13.5 14.5l-1 3q-4 12 0.5 24t17.5 20q17 11 27 25.5t10 35.5q-11 1 -22.5 6.5t-21.5 15t-16.5 23.5t-6.5 33
q0 34 22 55.5t52 21.5q38 0 62.5 -28t24.5 -76z" />
    <glyph glyph-name="less" unicode="&#x3c;" 
d="M408 113q-7 -11 -19.5 -13.5t-22.5 5.5l-244 171q-11 8 -17.5 20.5t-6.5 26.5v2q0 13 6.5 25.5t17.5 20.5l244 170q10 8 22.5 5.5t19.5 -13.5l23 -34q7 -11 4.5 -23.5t-13.5 -20.5l-193 -132l194 -134q10 -8 12.5 -20.5t-4.5 -23.5z" />
    <glyph glyph-name="equal" unicode="=" 
d="M93 379q-13 0 -22 9t-9 22v42q0 13 9 22t22 9h362q13 0 22 -9t9 -22v-42q0 -13 -9 -22t-22 -9h-362zM93 165q-13 0 -22 9t-9 22v42q0 13 9 22t22 9h362q13 0 22 -9t9 -22v-42q0 -13 -9 -22t-22 -9h-362z" />
    <glyph glyph-name="greater" unicode="&#x3e;" 
d="M184 105q-10 -8 -22.5 -5.5t-19.5 13.5l-23 34q-7 11 -4.5 23.5t13.5 20.5l193 132l-193 133q-11 8 -13.5 20.5t4.5 23.5l23 33q7 11 19.5 13.5t22.5 -5.5l244 -171q11 -8 17.5 -20.5t6.5 -25.5v-2q0 -14 -6.5 -26.5t-17.5 -20.5z" />
    <glyph glyph-name="question" unicode="?" horiz-adv-x="445" 
d="M175 208q-13 0 -22 9t-9 22v55q0 56 16.5 87.5t51.5 54.5q16 11 28 20.5t20 20.5t11.5 25t3.5 34q0 36 -16.5 52t-58.5 16q-25 0 -47 -7t-39 -17q-11 -6 -23.5 -2t-18.5 15l-16 28q-7 11 -3.5 23.5t14.5 18.5q29 18 65 29t81 11q39 0 72 -9t57 -28t37.5 -50t13.5 -74
q0 -36 -8 -62t-22.5 -46t-34 -35.5t-43.5 -30.5q-26 -18 -35 -37.5t-9 -51.5v-40q0 -13 -9 -22t-22 -9h-35zM269 65q0 -32 -21.5 -53.5t-53.5 -21.5t-53.5 21.5t-21.5 53.5t21.5 54t53.5 22t53.5 -22t21.5 -54z" />
    <glyph glyph-name="at" unicode="@" horiz-adv-x="849" 
d="M539 -153q-31 -10 -64 -15.5t-72 -5.5q-84 0 -149.5 23.5t-111.5 70.5t-70 117.5t-24 163.5q0 94 27.5 174t80 138.5t127.5 92t170 33.5q84 0 149 -24.5t109 -70.5t67 -111.5t23 -147.5q0 -77 -14.5 -133t-40.5 -92t-62.5 -53.5t-80.5 -17.5q-64 0 -93.5 27.5t-38.5 72.5
q-27 -33 -62.5 -59t-80.5 -26q-43 0 -71 33t-28 107q0 47 13 108q12 56 29 95t39.5 63t50.5 35t62 11q35 0 59 -15.5t37 -28.5l1 4q2 13 12.5 21.5t24.5 8.5h40q12 0 19.5 -9.5t5.5 -20.5l-56 -263q-4 -17 -4 -34q0 -27 12 -39t30 -12q23 0 41.5 11.5t32 37.5t20.5 67.5
t7 100.5q0 69 -14 120.5t-44.5 85.5t-79 51t-118.5 17q-76 0 -132.5 -26.5t-94 -74t-56.5 -113t-19 -144.5q0 -80 15.5 -136t47.5 -91t79.5 -51t112.5 -16q33 0 59.5 3.5t52.5 11.5q12 4 23.5 -2t15.5 -18l5 -16q5 -12 -1 -23.5t-18 -15.5zM334 136q0 -28 8.5 -39t24.5 -11
q26 0 49.5 18t44.5 39l44 208q-11 10 -26.5 19.5t-37.5 9.5q-19 0 -32.5 -6.5t-24 -22.5t-18.5 -43t-17 -68q-15 -69 -15 -104z" />
    <glyph glyph-name="A" unicode="A" horiz-adv-x="576" 
d="M53 0q-12 0 -19 9.5t-3 20.5l188 632q4 14 15 22t25 8h66q14 0 25 -8t14 -22l181 -632q3 -11 -4 -20.5t-19 -9.5h-68q-14 0 -24.5 8.5t-14.5 21.5l-36 141h-188l-38 -141q-4 -14 -14.5 -22t-24.5 -8h-61zM287 556q-3 -17 -6 -34.5t-7 -37.5t-10 -44.5t-15 -55.5l-32 -118
h138l-30 118q-8 32 -14 56.5t-10 45t-6.5 37t-5.5 33.5h-2z" />
    <glyph glyph-name="B" unicode="B" horiz-adv-x="575" 
d="M109 0q-13 0 -22 9t-9 22v630q0 13 9 22t22 9h201q97 0 143.5 -46.5t46.5 -134.5q0 -56 -18 -89t-69 -54q50 -13 82.5 -53t32.5 -116q0 -105 -57 -152t-160 -47h-202zM197 100h95q58 0 82.5 25t24.5 80q0 52 -22.5 78t-82.5 26h-97v-209zM197 407h94q50 0 67.5 23
t17.5 70q0 46 -19 69t-70 23h-90v-185z" />
    <glyph glyph-name="C" unicode="C" horiz-adv-x="547" 
d="M486 33q-30 -20 -68 -33t-88 -13q-142 0 -208 88t-66 269q0 184 67 272.5t205 88.5q88 0 147 -36q11 -7 14 -19t-3 -23l-22 -38q-6 -11 -18 -14.5t-23 3.5q-41 25 -91 25q-43 0 -71 -13t-44 -43t-22 -78t-6 -118q0 -73 7 -123t24 -81t44.5 -44.5t69.5 -13.5q30 0 54 8.5
t44 22.5q11 7 23 4.5t19 -13.5l22 -35q7 -11 4 -23.5t-14 -19.5z" />
    <glyph glyph-name="D" unicode="D" horiz-adv-x="607" 
d="M109 0q-13 0 -22 9t-9 22v630q0 13 9 22t22 9h169q68 0 119 -17.5t85 -58t51 -106.5t17 -163q0 -93 -14.5 -158.5t-47 -107.5t-83 -61.5t-122.5 -19.5h-174zM199 103h81q40 0 67 11t43 39.5t22.5 76.5t6.5 122q0 70 -6.5 116t-22.5 73t-43 38t-67 11h-81v-487z" />
    <glyph glyph-name="E" unicode="E" horiz-adv-x="509" 
d="M116 0q-13 0 -22 9t-9 22v630q0 13 9 22t22 9h300q13 0 22 -9t9 -22v-41q0 -13 -9 -22t-22 -9h-210v-177h162q13 0 22 -9t9 -22v-39q0 -13 -9 -22t-22 -9h-162v-207h225q13 0 22 -9t9 -22v-42q0 -13 -9 -22t-22 -9h-315z" />
    <glyph glyph-name="F" unicode="F" horiz-adv-x="481" 
d="M116 0q-13 0 -22 9t-9 22v630q0 13 9 22t22 9h292q13 0 22 -9t9 -22v-41q0 -13 -9 -22t-22 -9h-203v-177h156q13 0 22 -9t9 -22v-39q0 -13 -9 -22t-22 -9h-155v-280q0 -13 -9 -22t-22 -9h-59z" />
    <glyph glyph-name="G" unicode="G" horiz-adv-x="615" 
d="M487 0q-14 0 -25 8t-15 22l-5 15q-26 -26 -61 -42t-74 -16q-121 0 -186 87.5t-65 269.5q0 185 67.5 273t203.5 88q53 0 94 -12t77 -38q11 -8 13.5 -20t-5.5 -23l-27 -38q-8 -11 -20.5 -13t-22.5 6q-25 17 -49 25.5t-56 8.5q-41 0 -68 -13t-43.5 -42.5t-23.5 -77
t-7 -117.5q0 -73 7 -123t22.5 -81t41 -45t63.5 -14q31 0 56.5 10.5t45.5 28.5v149h-76q-13 0 -22 9t-9 22v39q0 13 9 22t22 9h164q13 0 22 -9t9 -22v-315q0 -13 -9 -22t-22 -9h-26z" />
    <glyph glyph-name="H" unicode="H" horiz-adv-x="618" 
d="M116 0q-13 0 -22 9t-9 22v630q0 13 9 22t22 9h59q13 0 22 -9t9 -22v-242h206v242q0 13 9 22t22 9h59q13 0 22 -9t9 -22v-630q0 -13 -9 -22t-22 -9h-59q-13 0 -22 9t-9 22v283h-206v-283q0 -13 -9 -22t-22 -9h-59z" />
    <glyph glyph-name="I" unicode="I" horiz-adv-x="372" 
d="M87 0q-13 0 -22 9t-9 22v5q0 14 8.5 24t22.5 12l38 6v536l-38 7q-14 2 -22.5 12t-8.5 24v4q0 13 9 22t22 9h198q13 0 22 -9t9 -22v-4q0 -14 -8.5 -24t-22.5 -12l-38 -7v-536l38 -6q14 -2 22.5 -12t8.5 -24v-5q0 -13 -9 -22t-22 -9h-198z" />
    <glyph glyph-name="J" unicode="J" horiz-adv-x="299" 
d="M213 72q0 -48 -8 -83.5t-25.5 -62t-44 -45.5t-63.5 -34q-12 -5 -24 -1t-17 15l-15 29q-6 11 -2.5 24t14.5 21q16 12 28 24t20 29.5t11.5 42.5t3.5 63v567q0 13 9 22t22 9h60q13 0 22 -9t9 -22v-589z" />
    <glyph glyph-name="K" unicode="K" horiz-adv-x="561" 
d="M116 0q-13 0 -22 9t-9 22v630q0 13 9 22t22 9h59q13 0 22 -9t9 -22v-286l178 291q16 26 47 26h68q11 0 15.5 -9t-1.5 -17l-182 -287l197 -352q5 -9 0 -18t-16 -9h-74q-14 0 -26.5 7.5t-19.5 19.5l-186 345v-341q0 -13 -9 -22t-22 -9h-59z" />
    <glyph glyph-name="L" unicode="L" horiz-adv-x="473" 
d="M116 0q-13 0 -22 9t-9 22v630q0 13 9 22t22 9h58q13 0 22 -9t9 -22v-557h192q13 0 22 -9t9 -22v-42q0 -13 -9 -22t-22 -9h-281z" />
    <glyph glyph-name="M" unicode="M" horiz-adv-x="753" 
d="M116 0q-13 0 -22 9t-9 22v630q0 13 9 22t22 9h105q14 0 25 -8t15 -22l85 -292q14 -46 20 -85.5t8 -71.5h2q3 31 8 71t19 86l83 292q4 14 15 22t25 8h111q13 0 22 -9t9 -22v-630q0 -13 -9 -22t-22 -9h-56q-13 0 -22 9t-9 22v324q0 87 3 147.5t5 89.5h-2q-2 -15 -7 -40
t-12 -55t-15.5 -62.5t-17.5 -62.5l-70 -220q-5 -14 -15.5 -22t-24.5 -8h-49q-14 0 -25 8t-16 21l-68 210q-9 28 -17 62.5t-14.5 67t-11.5 60t-7 41.5h-2q1 -14 2.5 -39t2.5 -57t2 -69t1 -74v-322q0 -13 -9 -22t-22 -9h-45z" />
    <glyph glyph-name="N" unicode="N" horiz-adv-x="617" 
d="M116 0q-13 0 -22 9t-9 22v630q0 13 9 22t22 9h55q31 0 44 -28l155 -322q9 -19 18 -40.5t17.5 -43t15.5 -42.5l13 -39h1q-4 33 -8.5 85.5t-4.5 104.5v294q0 13 9 22t22 9h49q13 0 22 -9t9 -22v-630q0 -13 -9 -22t-22 -9h-61q-31 0 -44 28l-143 302q-29 59 -43.5 100
t-26.5 78h-2q4 -31 8.5 -86t4.5 -118v-273q0 -13 -9 -22t-22 -9h-48z" />
    <glyph glyph-name="O" unicode="O" horiz-adv-x="644" 
d="M587 347q0 -185 -65.5 -272.5t-198.5 -87.5t-200 86t-67 271q0 183 67.5 272t198.5 89q130 0 197.5 -88.5t67.5 -269.5zM187 348q0 -71 7 -121t23 -81.5t41.5 -46.5t63.5 -15q37 0 63 14.5t41.5 46t22.5 81t7 119.5t-7 120t-22.5 81.5t-41.5 46t-63 14.5
q-38 0 -63.5 -14.5t-41.5 -45.5t-23 -80.5t-7 -118.5z" />
    <glyph glyph-name="P" unicode="P" horiz-adv-x="561" 
d="M116 0q-13 0 -22 9t-9 22v630q0 13 9 22t22 9h171q115 0 173.5 -49.5t58.5 -160.5q0 -51 -11 -92t-37 -69.5t-68 -43.5t-104 -15h-93v-231q0 -13 -9 -22t-22 -9h-59zM206 362h86q26 0 45 5.5t31.5 18.5t18.5 34.5t6 53.5q0 67 -23.5 91.5t-76.5 24.5h-87v-228z" />
    <glyph glyph-name="Q" unicode="Q" horiz-adv-x="644" 
d="M322 705q130 0 197.5 -88.5t67.5 -269.5q0 -135 -34.5 -215.5t-115.5 -112.5l142 -40q12 -3 18 -14.5t1 -22.5l-19 -45q-5 -12 -16.5 -17.5t-23.5 -0.5l-300 113q-45 17 -79.5 44.5t-57.5 70t-34.5 101t-11.5 136.5q0 183 67.5 272t198.5 89zM187 348q0 -141 30 -203.5
t105 -62.5q37 0 63 15t41.5 46.5t22.5 81.5t7 120t-7 120t-22.5 81.5t-41.5 46t-63 14.5q-38 0 -63.5 -14.5t-41.5 -45.5t-23 -80.5t-7 -118.5z" />
    <glyph glyph-name="R" unicode="R" horiz-adv-x="577" 
d="M116 0q-13 0 -22 9t-9 22v630q0 13 9 22t22 9h173q117 0 173 -49t56 -146q0 -41 -8 -71.5t-24 -52t-40 -35.5t-55 -23q30 -11 51 -40t38 -82l53 -164q4 -11 -3 -20t-18 -9h-69q-14 0 -25 8t-15 22l-52 166q-9 29 -18.5 47t-20.5 28.5t-25.5 14t-32.5 3.5h-48v-258
q0 -13 -9 -22t-22 -9h-59zM206 382h85q57 0 78.5 26.5t21.5 83.5q0 53 -22.5 75.5t-78.5 22.5h-84v-208z" />
    <glyph glyph-name="S" unicode="S" horiz-adv-x="537" 
d="M482 196q0 -44 -11.5 -82t-38 -66.5t-70.5 -44.5t-108 -16q-55 0 -104 13.5t-85 35.5q-11 7 -15 19.5t2 24.5l18 36q5 11 17 14.5t23 -2.5q31 -20 63 -29t71 -9q60 0 86.5 26t26.5 71q0 26 -7 44t-21.5 30.5t-35.5 22t-48 19.5q-43 15 -76 32t-55.5 41t-34 57.5
t-11.5 80.5q0 97 56.5 144t149.5 47q49 0 84.5 -8t65.5 -24q11 -6 15.5 -18.5t-1.5 -23.5l-18 -37q-5 -11 -17.5 -15t-23.5 2q-23 11 -45 16.5t-51 5.5q-45 0 -69.5 -20t-24.5 -62q0 -22 4.5 -37t15.5 -26.5t29.5 -21t45.5 -18.5q41 -14 77 -30t63 -40.5t42.5 -60.5
t15.5 -91z" />
    <glyph glyph-name="T" unicode="T" horiz-adv-x="506" 
d="M224 0q-13 0 -22 9t-9 22v557h-126q-13 0 -22 9t-9 22v42q0 13 9 22t22 9h371q13 0 22 -9t9 -22v-42q0 -13 -9 -22t-22 -9h-126v-557q0 -13 -9 -22t-22 -9h-57z" />
    <glyph glyph-name="U" unicode="U" horiz-adv-x="622" 
d="M431 56q-26 -28 -64 -48.5t-94 -20.5q-41 0 -76.5 12t-61.5 38.5t-41 70t-15 106.5v447q0 13 9 22t22 9h59q13 0 22 -9t9 -22v-448q0 -63 17.5 -92.5t74.5 -29.5q45 0 75 15.5t49 32.5v522q0 13 9 22t22 9h59q13 0 22 -9t9 -22v-630q0 -13 -9 -22t-22 -9h-26q-14 0 -25 8
t-15 22z" />
    <glyph glyph-name="V" unicode="V" horiz-adv-x="575" 
d="M260 0q-14 0 -25 8t-15 22l-187 632q-4 11 3 20.5t19 9.5h69q14 0 24.5 -8t14.5 -22l92 -343q12 -45 19 -77.5t13 -70.5h2q4 19 7.5 36t7.5 34t9 35.5t12 42.5l94 343q4 14 14.5 22t24.5 8h62q12 0 19 -9.5t3 -20.5l-190 -632q-4 -14 -15 -22t-25 -8h-52z" />
    <glyph glyph-name="W" unicode="W" horiz-adv-x="803" 
d="M204 0q-14 0 -24.5 8.5t-12.5 21.5l-130 632q-2 11 5.5 20.5t19.5 9.5h65q14 0 24.5 -8.5t12.5 -21.5l50 -263q8 -41 13.5 -80.5t9.5 -74.5t6.5 -62.5t4.5 -42.5h2q4 38 12.5 102.5t24.5 145.5l55 275q2 13 12.5 21.5t24.5 8.5h55q14 0 24.5 -8.5t12.5 -21.5l56 -276
q12 -62 21 -128.5t14 -118.5h1q2 24 5.5 55.5t8 66.5t10 71.5t11.5 70.5l47 259q2 12 12.5 21t24.5 9h59q12 0 19.5 -9.5t5.5 -20.5l-131 -632q-2 -13 -12.5 -21.5t-24.5 -8.5h-71q-14 0 -24.5 8.5t-12.5 21.5l-57 286q-6 29 -10.5 59.5t-8 58t-6.5 51.5t-4 40h-2
q-2 -14 -5 -41t-7 -57.5t-8.5 -59.5t-8.5 -48l-59 -289q-2 -13 -12.5 -21.5t-24.5 -8.5h-73z" />
    <glyph glyph-name="X" unicode="X" horiz-adv-x="561" 
d="M50 0q-11 0 -16.5 9t-0.5 18l180 342l-152 295q-5 10 0.5 19t16.5 9h77q31 0 44 -28l84 -189l87 189q13 28 44 28h71q11 0 16 -9t0 -18l-153 -288l180 -349q5 -10 -0.5 -19t-16.5 -9h-78q-31 0 -44 28l-112 242l-111 -242q-13 -28 -44 -28h-72z" />
    <glyph glyph-name="Y" unicode="Y" horiz-adv-x="545" 
d="M241 0q-13 0 -22 9t-9 22v256l-176 377q-5 10 1 19t17 9h74q14 0 26 -8t17 -21l67 -160q13 -32 22.5 -59t16.5 -56q8 29 17 60t19 54l71 162q5 13 17 20.5t26 7.5h68q11 0 17 -9t1 -19l-180 -377v-256q0 -13 -9 -22t-22 -9h-59z" />
    <glyph glyph-name="Z" unicode="Z" horiz-adv-x="503" 
d="M72 0q-13 0 -22 9t-9 22v26q0 14 4 30t11 28l259 473h-221q-13 0 -22 9t-9 22v42q0 13 9 22t22 9h332q13 0 22 -9t9 -22v-29q0 -14 -4 -30t-11 -28l-259 -470h242q13 0 22 -9t9 -22v-42q0 -13 -9 -22t-22 -9h-353z" />
    <glyph glyph-name="bracketleft" unicode="[" horiz-adv-x="321" 
d="M107 -155q-13 0 -22 9t-9 22v826q0 13 9 22t22 9h140q13 0 22 -9t9 -22v-25q0 -13 -9 -22t-22 -9h-61v-715h61q13 0 22 -9t9 -22v-24q0 -13 -9 -22t-22 -9h-140z" />
    <glyph glyph-name="backslash" unicode="\" horiz-adv-x="381" 
d="M293 -152q-14 0 -24.5 8.5t-14.5 21.5l-223 856q-3 11 4 20.5t19 9.5h34q14 0 24.5 -8.5t14.5 -21.5l223 -856q3 -11 -4 -20.5t-19 -9.5h-34z" />
    <glyph glyph-name="bracketright" unicode="]" horiz-adv-x="321" 
d="M73 -155q-13 0 -22 9t-9 22v24q0 13 9 22t22 9h62v715h-62q-13 0 -22 9t-9 22v25q0 13 9 22t22 9h141q13 0 22 -9t9 -22v-826q0 -13 -9 -22t-22 -9h-141z" />
    <glyph glyph-name="asciicircum" unicode="^" horiz-adv-x="525" 
d="M92 427q-11 0 -16 9t0 18l119 227q7 12 19.5 19.5t26.5 7.5h42q14 0 26.5 -7.5t19.5 -19.5l119 -227q5 -9 0 -18t-16 -9h-54q-14 0 -26.5 7.5t-18.5 19.5l-71 136l-72 -136q-6 -12 -18.5 -19.5t-26.5 -7.5h-53z" />
    <glyph glyph-name="underscore" unicode="_" horiz-adv-x="359" 
d="M38 -145q-13 0 -22 9t-9 22v28q0 13 9 22t22 9h283q13 0 22 -9t9 -22v-28q0 -13 -9 -22t-22 -9h-283z" />
    <glyph glyph-name="grave" unicode="`" horiz-adv-x="533" 
d="M347 588q-7 -11 -19.5 -15t-24.5 2l-155 75q-11 6 -15 18t2 23l26 46q6 11 18 14t22 -5l143 -102q11 -8 13.5 -21t-4.5 -24z" />
    <glyph glyph-name="a" unicode="a" horiz-adv-x="490" 
d="M316 44q-21 -23 -50.5 -40t-71.5 -17q-76 0 -113.5 41.5t-37.5 118.5q0 88 53.5 127.5t172.5 39.5h36v29q0 20 -2 35t-8.5 25.5t-19.5 16t-34 5.5q-29 0 -58 -9t-55 -22q-11 -6 -23.5 -2t-18.5 15l-13 26q-6 12 -2 24.5t15 18.5q35 20 75.5 31.5t91.5 11.5
q85 0 125.5 -36t40.5 -122v-330q0 -13 -9 -22t-22 -9h-27q-14 0 -25 8t-15 22zM159 148q0 -44 14 -61t46 -17q29 0 50 13.5t36 28.5v128h-18q-41 0 -66 -5.5t-39 -16.5t-18.5 -28.5t-4.5 -41.5z" />
    <glyph glyph-name="b" unicode="b" horiz-adv-x="534" 
d="M484 260q0 -75 -10.5 -127.5t-32.5 -84.5t-54.5 -46.5t-75.5 -14.5q-42 0 -77 18t-56 42l-5 -17q-4 -14 -14.5 -22t-24.5 -8h-29q-13 0 -22 9t-9 22v666q0 13 9 22t22 9h52q13 0 22 -9t9 -22v-235q21 23 53.5 40t71.5 17q38 0 69.5 -12t54 -41.5t35 -79.5t12.5 -126z
M188 119q17 -16 39.5 -27t48.5 -11q24 0 40.5 6.5t26.5 25t14.5 52.5t4.5 89q0 54 -4 87.5t-13 52t-24.5 25.5t-37.5 7q-31 0 -53 -12.5t-42 -32.5v-262z" />
    <glyph glyph-name="c" unicode="c" horiz-adv-x="437" 
d="M383 27q-25 -19 -56 -29.5t-72 -10.5q-105 0 -157 65t-52 202q0 71 13.5 121.5t40 82.5t64.5 46.5t88 14.5q38 0 68.5 -9t57.5 -29q11 -8 12.5 -20.5t-6.5 -22.5l-20 -26q-8 -11 -20.5 -12.5t-23.5 6.5q-14 10 -28.5 15t-34.5 5q-24 0 -41 -6.5t-27.5 -25t-15.5 -51.5
t-5 -87q0 -53 5 -87.5t16 -54t29 -27t44 -7.5q21 0 36 6t28 16q11 8 23.5 6t20.5 -12l19 -26q8 -11 6 -23t-12 -20z" />
    <glyph glyph-name="d" unicode="d" horiz-adv-x="534" 
d="M356 50q-29 -31 -61 -47t-71 -16q-38 0 -70 12t-55 42t-36 80.5t-13 127.5q0 75 10.5 127t31.5 83.5t53 45.5t76 14q41 0 72.5 -17t52.5 -37v232q0 13 9 22t22 9h52q13 0 22 -9t9 -22v-666q0 -13 -9 -22t-22 -9h-29q-14 0 -24.5 8.5t-14.5 21.5zM172 253q0 -54 4 -87.5
t13 -52.5t24 -25.5t37 -6.5q31 0 53.5 10.5t42.5 30.5v262q-17 16 -39.5 29t-49.5 13q-24 0 -40 -6.5t-26 -25.5t-14.5 -53t-4.5 -88z" />
    <glyph glyph-name="e" unicode="e" horiz-adv-x="497" 
d="M416 27q-29 -19 -64 -29.5t-80 -10.5q-57 0 -99 15t-70.5 47t-42.5 83t-14 122q0 72 14 122.5t40.5 82t64.5 46t86 14.5q102 0 151 -61t49 -200v-19q0 -8 -5 -13t-12 -5h-267q1 -44 7.5 -71.5t19 -43t31.5 -21.5t46 -6q29 0 50.5 7.5t40.5 19.5q11 7 23.5 4.5t19.5 -13.5
l19 -27q8 -11 5.5 -23t-13.5 -20zM334 302q-1 73 -18 102.5t-64 29.5q-19 0 -33.5 -5.5t-25 -20.5t-17 -40.5t-8.5 -65.5h166z" />
    <glyph glyph-name="f" unicode="f" horiz-adv-x="313" 
d="M58 418q-13 0 -22 9t-9 22v26q0 13 9 22t22 9h23v70q0 49 11.5 80t30.5 48.5t44.5 24t54.5 6.5q24 0 44.5 -3.5t37.5 -8.5q12 -5 17.5 -16.5t0.5 -22.5l-10 -26q-5 -11 -15.5 -16.5t-22.5 -2.5q-14 3 -30 3q-26 0 -38 -13.5t-12 -45.5v-77h59q13 0 22 -9t9 -22v-26
q0 -13 -9 -22t-22 -9h-59v-387q0 -13 -9 -22t-22 -9h-51q-13 0 -22 9t-9 22v387h-23z" />
    <glyph glyph-name="g" unicode="g" horiz-adv-x="511" 
d="M472 -24q0 -82 -53.5 -125t-171.5 -43q-109 0 -158.5 35t-49.5 98q0 37 19.5 60.5t46.5 38.5q-40 26 -40 77q0 37 16 61.5t39 41.5q-62 42 -62 134q0 81 48 123t142 42q44 0 81 -13h120q12 0 21 -9t9 -21v-2q0 -14 -8 -24.5t-21 -14.5l-29 -10q17 -36 17 -78
q0 -158 -189 -158q-17 0 -31 1.5t-28 3.5q-9 -11 -15.5 -24t-6.5 -25q0 -11 8 -18t26 -7h92q40 0 72.5 -8.5t56 -26t36.5 -44.5t13 -65zM166 21q-10 -11 -16 -27.5t-6 -37.5q0 -17 3.5 -29.5t15 -21t32 -13t54.5 -4.5q109 0 109 76q0 35 -21.5 46t-65.5 11h-105zM171 350
q0 -43 17.5 -63t59.5 -20q43 0 61 19.5t18 63.5q0 45 -17 65t-62 20q-41 0 -59 -20t-18 -65z" />
    <glyph glyph-name="h" unicode="h" horiz-adv-x="524" 
d="M105 0q-13 0 -22 9t-9 22v666q0 13 9 22t22 9h52q13 0 22 -9t9 -22v-237q28 26 61 42.5t77 16.5q60 0 93.5 -30t33.5 -102v-356q0 -13 -9 -22t-22 -9h-52q-13 0 -22 9t-9 22v327q0 40 -13 53t-41 13q-27 0 -51 -12.5t-46 -32.5v-348q0 -13 -9 -22t-22 -9h-52z" />
    <glyph glyph-name="i" unicode="i" horiz-adv-x="293" 
d="M133 0q-13 0 -22 9t-9 22v389l-36 6q-13 3 -21.5 13t-8.5 24v12q0 13 9 22t22 9h117q13 0 22 -9t9 -22v-444q0 -13 -9 -22t-22 -9h-51zM231 655q0 -31 -21 -52t-53 -21q-30 0 -51 21t-21 52t21 52.5t52 21.5t52 -21t21 -53z" />
    <glyph glyph-name="j" unicode="j" horiz-adv-x="293" 
d="M215 17q0 -47 -6 -80.5t-19.5 -58t-36 -42t-54.5 -30.5q-12 -5 -24.5 -0.5t-17.5 16.5l-11 22q-6 12 -3 25t14 21q28 20 36.5 46t8.5 77v407l-36 6q-13 3 -21.5 13t-8.5 24v12q0 13 9 22t22 9h117q13 0 22 -9t9 -22v-458zM231 655q0 -31 -21 -52t-53 -21q-30 0 -51 21
t-21 52t21 52.5t52 21.5t52 -21t21 -53z" />
    <glyph glyph-name="k" unicode="k" horiz-adv-x="494" 
d="M105 0q-13 0 -22 9t-9 22v666q0 13 9 22t22 9h52q13 0 22 -9t9 -22v-666q0 -13 -9 -22t-22 -9h-52zM388 0q-14 0 -26.5 7.5t-19.5 19.5l-134 233q-7 12 -6.5 26.5t8.5 26.5l104 167q18 26 48 26h65q10 0 14.5 -8.5t-1.5 -16.5l-128 -186l156 -268q5 -9 0.5 -18t-15.5 -9
h-65z" />
    <glyph glyph-name="l" unicode="l" horiz-adv-x="282" 
d="M225 -6q-22 -5 -42 -5q-32 0 -53 8.5t-33 25.5t-17 44t-5 64v566q0 13 9 22t22 9h52q13 0 22 -9t9 -22v-580q0 -31 21 -37q15 -5 24.5 -11t11.5 -21l3 -21q2 -12 -4.5 -21.5t-19.5 -11.5z" />
    <glyph glyph-name="m" unicode="m" horiz-adv-x="761" 
d="M105 0q-13 0 -22 9t-9 22v444q0 13 9 22t22 9h29q14 0 24.5 -8.5t13.5 -21.5l5 -24q32 29 65.5 48t76.5 19q38 0 65.5 -15.5t41.5 -49.5q33 29 67.5 47t76.5 18q55 0 87.5 -29.5t32.5 -100.5v-358q0 -13 -9 -22t-22 -9h-52q-13 0 -22 9t-9 22v328q0 40 -11 52.5t-37 12.5
q-22 0 -45 -12t-44 -30v-351q0 -13 -9 -22t-22 -9h-52q-13 0 -22 9t-9 22v328q0 40 -11 52.5t-37 12.5q-23 0 -45 -13t-44 -32v-348q0 -13 -9 -22t-22 -9h-52z" />
    <glyph glyph-name="n" unicode="n" horiz-adv-x="524" 
d="M105 0q-13 0 -22 9t-9 22v444q0 13 9 22t22 9h29q14 0 24.5 -8.5t13.5 -21.5l5 -25q31 30 66.5 49t82.5 19q60 0 93.5 -30t33.5 -102v-356q0 -13 -9 -22t-22 -9h-52q-13 0 -22 9t-9 22v327q0 40 -13 53t-41 13q-27 0 -51 -12.5t-46 -32.5v-348q0 -13 -9 -22t-22 -9h-52z
" />
    <glyph glyph-name="o" unicode="o" horiz-adv-x="518" 
d="M472 253q0 -71 -15 -121.5t-42.5 -82.5t-67 -47t-88.5 -15t-88.5 15t-67 47t-42.5 83t-15 122q0 72 14.5 122t42 82t67 46.5t88.5 14.5t88.5 -15t67.5 -47t43 -82.5t15 -121.5zM167 253q0 -54 5 -88.5t16 -55t28.5 -28.5t42.5 -8t42 8t28 28.5t16 55.5t5 89t-5 89t-16 55
t-28.5 27.5t-42.5 7.5t-42 -7.5t-28 -28t-16 -55.5t-5 -89z" />
    <glyph glyph-name="p" unicode="p" horiz-adv-x="534" 
d="M105 -197q-13 0 -22 9t-9 22v641q0 13 9 22t22 9h29q14 0 24.5 -8.5t13.5 -21.5l6 -23q29 31 62.5 48.5t72.5 17.5q38 0 69.5 -12t54 -41.5t35 -79.5t12.5 -126q0 -75 -10.5 -127.5t-31.5 -84.5t-53.5 -46.5t-75.5 -14.5q-41 0 -72.5 15.5t-52.5 35.5v-204q0 -13 -9 -22
t-22 -9h-52zM188 119q17 -16 39.5 -27t48.5 -11q24 0 40.5 6.5t26.5 25t14.5 52.5t4.5 89q0 54 -4 87.5t-13 52t-24.5 25.5t-37.5 7q-31 0 -53 -12.5t-42 -32.5v-262z" />
    <glyph glyph-name="q" unicode="q" horiz-adv-x="534" 
d="M377 -197q-13 0 -22 9t-9 22v207q-23 -25 -53.5 -39.5t-68.5 -14.5t-70 12t-55 42t-36 80.5t-13 127.5q0 75 10.5 127t31.5 83.5t52.5 45.5t73.5 14t78.5 -18.5t59.5 -44.5l5 20q4 13 14.5 21.5t24.5 8.5h29q13 0 22 -9t9 -22v-641q0 -13 -9 -22t-22 -9h-52zM172 253
q0 -54 4 -87.5t13 -52.5t24 -25.5t37 -6.5q31 0 53.5 10.5t42.5 30.5v262q-17 16 -39.5 29t-49.5 13q-24 0 -40 -6.5t-26 -25.5t-14.5 -53t-4.5 -88z" />
    <glyph glyph-name="r" unicode="r" horiz-adv-x="361" 
d="M105 0q-13 0 -22 9t-9 22v444q0 13 9 22t22 9h29q14 0 24.5 -8.5t12.5 -21.5l7 -34q26 33 59 53t73 20h8q4 0 8 -1q12 -2 12 -16l-13 -82q-1 -8 -7.5 -12.5t-14.5 -2.5q-5 1 -10.5 1.5t-11.5 0.5q-29 0 -50 -9t-43 -28v-335q0 -13 -9 -22t-22 -9h-52z" />
    <glyph glyph-name="s" unicode="s" horiz-adv-x="431" 
d="M387 146q0 -159 -182 -159q-45 0 -83 10.5t-67 24.5q-12 6 -16 18.5t1 23.5l14 29q5 12 17.5 16t23.5 -2q23 -12 48 -19t52 -7q44 0 61.5 15t17.5 45q0 17 -5 28t-16 19t-30 14t-46 14q-26 7 -49 19t-39.5 30.5t-26 45t-9.5 62.5q0 66 41 106t124 40q38 0 66.5 -5
t53.5 -14q12 -5 17.5 -17t0.5 -24l-11 -29q-5 -12 -16.5 -17.5t-22.5 -0.5q-20 8 -38.5 11t-40.5 3q-65 0 -65 -51q0 -15 4 -25t13 -17t24.5 -12.5t39.5 -11.5q29 -8 55.5 -19t46 -29t31 -45.5t11.5 -69.5z" />
    <glyph glyph-name="t" unicode="t" horiz-adv-x="335" 
d="M62 418q-13 0 -22 9t-9 22v26q0 13 9 22t22 9h24v96q0 14 8.5 24.5t21.5 12.5l53 10q11 2 20.5 -5.5t9.5 -19.5v-118h68q13 0 22 -9t9 -22v-26q0 -13 -9 -22t-22 -9h-68v-293q0 -29 9.5 -39.5t29.5 -10.5q8 0 14.5 1t12.5 3q9 3 18 -2t11 -15l6 -26q3 -13 -3.5 -24.5
t-19.5 -15.5q-12 -4 -26.5 -6.5t-32.5 -2.5q-29 0 -53.5 6t-42 19.5t-27 36t-9.5 55.5v314h-24z" />
    <glyph glyph-name="u" unicode="u" horiz-adv-x="526" 
d="M348 56q-30 -30 -62.5 -49.5t-80.5 -19.5q-58 0 -96.5 33.5t-38.5 104.5v350q0 13 9 22t22 9h52q13 0 22 -9t9 -22v-323q0 -41 14.5 -55.5t42.5 -14.5q26 0 50 13t47 33v347q0 13 9 22t22 9h51q13 0 22 -9t9 -22v-444q0 -13 -9 -22t-22 -9h-29q-14 0 -24.5 8.5
t-12.5 21.5z" />
    <glyph glyph-name="v" unicode="v" horiz-adv-x="483" 
d="M221 0q-14 0 -25 8t-16 21l-149 448q-4 11 3 20t18 9h59q14 0 25 -8t15 -22l61 -208q8 -26 16.5 -66.5t16.5 -72.5h1q2 14 5.5 32t7.5 37.5t8.5 39t9.5 35.5l59 203q4 14 15 22t25 8h55q11 0 18 -9t3 -20l-148 -448q-5 -13 -16 -21t-25 -8h-42z" />
    <glyph glyph-name="w" unicode="w" horiz-adv-x="700" 
d="M187 0q-14 0 -24.5 8.5t-14.5 21.5l-116 446q-3 11 4 20.5t19 9.5h55q14 0 24.5 -8.5t13.5 -21.5l43 -190q3 -13 6.5 -36t7 -46.5t5.5 -43.5l4 -28h1q1 7 3 23t5.5 36.5t7.5 42.5t9 41l50 201q3 13 13.5 21.5t24.5 8.5h48q14 0 24.5 -8.5t13.5 -21.5l48 -202
q4 -19 8.5 -40.5t8 -42t6 -36t3.5 -22.5h1q1 7 3 24.5t5.5 39.5t7.5 45t8 43l42 191q3 13 13.5 21.5t24.5 8.5h53q12 0 19 -9.5t4 -20.5l-120 -446q-4 -14 -14.5 -22t-24.5 -8h-45q-14 0 -24.5 8.5t-13.5 21.5l-52 211q-8 35 -14.5 72.5t-11.5 68.5h-1q-4 -24 -10 -63.5
t-16 -79.5l-52 -209q-3 -13 -13.5 -21.5t-24.5 -8.5h-45z" />
    <glyph glyph-name="x" unicode="x" horiz-adv-x="484" 
d="M50 0q-11 0 -16 9t0 18l143 248l-121 204q-5 9 -0.5 18t15.5 9h70q14 0 26.5 -7.5t18.5 -20.5l21 -41q15 -29 23.5 -49.5t17.5 -42.5h2q6 19 13.5 41t21.5 51l19 41q13 28 44 28h66q11 0 15.5 -9t-0.5 -18l-121 -202l141 -250q5 -9 0 -18t-16 -9h-70q-14 0 -26.5 7.5
t-18.5 20.5l-37 74q-14 27 -23 50.5t-17 41.5h-2q-7 -19 -15 -39.5t-25 -52.5l-38 -74q-6 -13 -18.5 -20.5t-26.5 -7.5h-66z" />
    <glyph glyph-name="y" unicode="y" horiz-adv-x="484" 
d="M303 -11q-16 -51 -33 -84t-38 -54t-49 -32.5t-66 -19.5q-13 -2 -24 5t-15 19l-8 33q-3 12 3.5 23.5t18.5 14.5q24 6 41 14t29.5 20t22.5 29.5t19 42.5h-1q-12 0 -21.5 7.5t-13.5 18.5l-138 450q-3 11 3.5 20.5t18.5 9.5h59q14 0 24.5 -8.5t14.5 -21.5l65 -248
q11 -40 17 -70.5t10 -57.5h1q5 26 10.5 58.5t16.5 70.5l67 247q4 14 14.5 22t24.5 8h56q12 0 18.5 -9.5t3.5 -20.5z" />
    <glyph glyph-name="z" unicode="z" horiz-adv-x="428" 
d="M73 0q-13 0 -22 9t-9 22v26q0 14 4.5 29.5t12.5 27.5l199 302h-165q-13 0 -22 9t-9 22v28q0 13 9 22t22 9h258q13 0 22 -9t9 -22v-28q0 -14 -4.5 -29.5t-12.5 -27.5l-196 -299h187q13 0 22 -9t9 -22v-29q0 -13 -9 -22t-22 -9h-283z" />
    <glyph glyph-name="braceleft" unicode="{" horiz-adv-x="366" 
d="M249 -155q-27 0 -50.5 7t-41.5 23t-28 42.5t-10 65.5v191q0 35 -11.5 49t-38.5 18q-14 2 -22.5 11.5t-8.5 22.5v30q0 14 8.5 24t22.5 12q28 3 39 17.5t11 47.5v189q0 39 10 65.5t27.5 42.5t41 23t51.5 7h43q13 0 22 -9t9 -22v-33q0 -10 -6.5 -16.5t-16.5 -6.5h-25
q-29 0 -37.5 -13.5t-8.5 -48.5v-196q0 -28 -5 -46t-14 -28.5t-22 -15.5t-30 -7v-2q17 -2 30 -7t22 -15.5t14 -28t5 -45.5v-200q0 -35 8.5 -48.5t37.5 -13.5h25q10 0 16.5 -6.5t6.5 -16.5v-32q0 -13 -9 -22t-22 -9h-43z" />
    <glyph glyph-name="bar" unicode="|" horiz-adv-x="256" 
d="M122 -152q-13 0 -22 9t-9 22v854q0 13 9 22t22 9h11q13 0 22 -9t9 -22v-854q0 -13 -9 -22t-22 -9h-11z" />
    <glyph glyph-name="braceright" unicode="}" horiz-adv-x="366" 
d="M73 -155q-13 0 -22 9t-9 22v32q0 10 6.5 16.5t16.5 6.5h25q29 0 37.5 13.5t8.5 48.5v200q0 28 5 45.5t14 28t22 15.5t30 7v2q-17 2 -30 7t-22 15.5t-14 28.5t-5 46v196q0 35 -8.5 48.5t-37.5 13.5h-25q-10 0 -16.5 6.5t-6.5 16.5v33q0 13 9 22t22 9h44q27 0 51 -7t41 -23
t27 -42.5t10 -65.5v-189q0 -33 11 -47.5t39 -17.5q14 -2 22.5 -12t8.5 -24v-30q0 -13 -8.5 -22.5t-22.5 -11.5q-27 -4 -38.5 -18t-11.5 -49v-191q0 -39 -10 -65.5t-27.5 -42.5t-41 -23t-50.5 -7h-44z" />
    <glyph glyph-name="asciitilde" unicode="~" horiz-adv-x="531" 
d="M193 293q-13 0 -23 -7t-19 -18q-8 -11 -21 -13.5t-25 3.5l-19 11q-11 7 -15 19.5t2 23.5q24 44 53.5 67.5t66.5 23.5q25 0 44.5 -6.5t36 -15t31.5 -15t32 -6.5q13 0 23 6.5t19 17.5q8 11 21.5 13.5t24.5 -4.5l20 -11q11 -6 15 -18.5t-2 -23.5q-24 -44 -53.5 -67.5
t-67.5 -23.5q-25 0 -44 7t-35.5 15t-32 15t-32.5 7z" />
    <glyph glyph-name="uni00A0" unicode="&#xa0;" horiz-adv-x="246" 
 />
    <glyph glyph-name="exclamdown" unicode="&#xa1;" horiz-adv-x="290" 
d="M107 -185q-13 0 -21.5 9t-7.5 22l21 422q1 13 10.5 22t22.5 9h24q13 0 22.5 -9t10.5 -22l22 -422q1 -13 -7.5 -22t-21.5 -9h-75zM218 442q0 -32 -22 -54.5t-54 -22.5t-53.5 22.5t-21.5 54.5t21.5 53.5t53.5 21.5t54 -21.5t22 -53.5z" />
    <glyph glyph-name="cent" unicode="&#xa2;" 
d="M292 -131q-13 0 -22 9t-9 22v91q-85 14 -126.5 78t-41.5 185q0 125 44 187t124 74v92q0 13 9 22t22 9h26q13 0 22 -9t9 -22v-91q27 -4 50 -12.5t44 -23.5q11 -7 12.5 -19.5t-6.5 -22.5l-18 -24q-8 -11 -21 -13t-24 6q-18 13 -42 18v-345q14 2 26 7.5t23 13.5t23.5 5.5
t20.5 -12.5l18 -24q8 -11 6 -23t-12 -20q-41 -31 -100 -38v-89q0 -13 -9 -22t-22 -9h-26zM266 420q-27 -12 -39 -49t-12 -115q0 -77 11.5 -115.5t39.5 -52.5v332z" />
    <glyph glyph-name="sterling" unicode="&#xa3;" 
d="M276 301q3 -23 3 -45q0 -45 -14 -87t-56 -71h253q13 0 22 -9t9 -22v-36q0 -13 -9 -22t-22 -9h-357q-13 0 -22 9t-9 22v39q0 15 7.5 28.5t19.5 21.5q38 26 51 59t13 74q0 24 -6 48h-56q-13 0 -22 9t-9 22v30q0 13 9 22t22 9h29q-10 30 -17.5 61.5t-7.5 66.5q0 86 53.5 135
t148.5 49q53 0 92 -11.5t74 -32.5q11 -7 14.5 -19.5t-2.5 -24.5l-15 -29q-6 -11 -18.5 -14.5t-23.5 2.5q-23 13 -48.5 20.5t-59.5 7.5q-44 0 -67.5 -22.5t-23.5 -64.5q0 -30 6.5 -57t17.5 -67h135q13 0 22 -9t9 -22v-30q0 -13 -9 -22t-22 -9h-114z" />
    <glyph glyph-name="currency" unicode="&#xa4;" 
d="M118 75q-8 -10 -21 -10t-22 9l-29 27q-9 9 -9.5 22t8.5 23l54 60q-21 48 -21 114q0 31 4.5 58t14.5 49l-54 61q-9 10 -8.5 23t9.5 21l29 28q9 8 22 8t21 -9l44 -46q23 17 52.5 26.5t62.5 9.5q66 0 115 -35l42 44q8 10 21 10t23 -8l28 -28q10 -8 10.5 -21t-8.5 -23
l-52 -59q20 -46 20 -111q0 -63 -20 -112l54 -61q9 -10 8.5 -22.5t-10.5 -21.5l-29 -27q-10 -9 -23 -8.5t-21 10.5l-44 46q-48 -34 -113 -34q-68 0 -113 35zM192 318q0 -78 19.5 -109.5t64.5 -31.5t64 32t19 110q0 79 -19.5 109.5t-64.5 30.5q-44 0 -63.5 -31t-19.5 -110z
" />
    <glyph glyph-name="yen" unicode="&#xa5;" 
d="M196 344h-120q-13 0 -22 9t-9 22v18q0 13 9 22t22 9h81l-116 240q-5 10 1 19t17 9h71q14 0 26 -7.5t17 -20.5l66 -150q14 -32 22.5 -60t16.5 -57q8 29 15.5 57.5t20.5 58.5l66 151q13 28 44 28h66q11 0 16.5 -9t0.5 -19l-116 -240h82q13 0 22 -9t9 -22v-18q0 -13 -9 -22
t-22 -9h-120l-19 -39v-35h139q13 0 22 -9t9 -22v-18q0 -13 -9 -22t-22 -9h-139v-159q0 -13 -9 -22t-22 -9h-57q-13 0 -22 9t-9 22v159h-139q-13 0 -22 9t-9 22v18q0 13 9 22t22 9h139v35z" />
    <glyph glyph-name="brokenbar" unicode="&#xa6;" horiz-adv-x="256" 
d="M122 -152q-13 0 -22 9t-9 22v329q0 13 9 22t22 9h11q13 0 22 -9t9 -22v-329q0 -13 -9 -22t-22 -9h-11zM122 376q-13 0 -22 9t-9 22v326q0 13 9 22t22 9h11q13 0 22 -9t9 -22v-326q0 -13 -9 -22t-22 -9h-11z" />
    <glyph glyph-name="section" unicode="&#xa7;" 
d="M54 303q0 96 92 131q-20 20 -32 47t-12 65q0 73 44 116t137 43q45 0 76.5 -7t57.5 -19q12 -5 16.5 -17.5t-0.5 -23.5l-12 -29q-5 -12 -17 -16.5t-24 0.5q-20 9 -41.5 13.5t-47.5 4.5q-42 0 -59 -15.5t-17 -44.5q0 -17 5.5 -27.5t17.5 -18.5t31.5 -14t46.5 -14
q39 -11 72 -23.5t57 -31t37 -46.5t13 -71q0 -100 -90 -136q23 -20 35.5 -47.5t12.5 -69.5q0 -82 -47.5 -126t-144.5 -44q-51 0 -90 10.5t-66 26.5q-11 6 -15 18.5t2 24.5l15 29q6 11 18 14.5t23 -2.5q21 -13 45 -20.5t59 -7.5q45 0 65.5 17t20.5 53q0 17 -7 28.5t-20.5 20
t-33.5 15.5t-45 15l-16 5q-40 12 -70.5 26.5t-50.5 34.5t-30.5 47t-10.5 66zM288 225q8 -2 16 -5l16 -6q37 9 51.5 28.5t14.5 48.5q0 17 -5 28.5t-17 20t-32 15.5t-50 16l-51 16q-42 -8 -57 -27.5t-15 -46.5q0 -18 7 -30t23 -21.5t40 -18t59 -18.5z" />
    <glyph glyph-name="dieresis" unicode="&#xa8;" horiz-adv-x="533" 
d="M435 634q0 -29 -20 -48.5t-47 -19.5t-47.5 19.5t-20.5 48.5t20 48.5t47 19.5t47.5 -19.5t20.5 -48.5zM232 634q0 -29 -20.5 -48.5t-46.5 -19.5q-27 0 -47.5 19.5t-20.5 48.5t20 48.5t47 19.5t47.5 -19.5t20.5 -48.5z" />
    <glyph glyph-name="copyright" unicode="&#xa9;" horiz-adv-x="749" 
d="M693 355q0 -85 -22 -153.5t-63.5 -117t-100.5 -75t-133 -26.5q-75 0 -134 26.5t-100 75t-63 117t-22 153.5t22 153.5t63 117t100 75t134 26.5q74 0 133 -26.5t100.5 -75t63.5 -117t22 -153.5zM119 355q0 -72 16 -130.5t48.5 -100.5t80 -64.5t110.5 -22.5t111 22.5
t80 64.5t48.5 100.5t16.5 130.5t-16.5 131t-48.5 100t-80 63.5t-111 22.5t-110.5 -22.5t-80 -63.5t-48.5 -100t-16 -131zM499 169q-22 -22 -50 -34t-66 -12q-87 0 -132 53.5t-45 173.5q0 66 12.5 110t36 70t55.5 37t71 11q32 0 61.5 -10t52.5 -32q10 -8 10 -21t-8 -22
l-14 -16q-9 -9 -22 -10t-23 7q-11 9 -23.5 13.5t-30.5 4.5q-19 0 -32.5 -5t-22 -20t-12.5 -42t-4 -72q0 -47 4.5 -75t13.5 -44t23.5 -21t34.5 -5q16 0 27.5 5t22.5 13q10 9 23.5 8.5t22.5 -9.5l14 -13q9 -9 9 -21.5t-9 -21.5z" />
    <glyph glyph-name="ordfeminine" unicode="&#xaa;" horiz-adv-x="462" 
d="M300 224q-19 -21 -45.5 -36.5t-63.5 -15.5q-69 0 -103.5 37.5t-34.5 106.5q0 79 49 115t156 36h32v24q0 35 -10.5 53.5t-47.5 18.5q-26 0 -51 -7.5t-48 -18.5q-11 -6 -23.5 -1.5t-17.5 15.5l-11 21q-5 12 -1 24.5t15 18.5q31 17 67 26.5t81 9.5q76 0 114 -32.5t38 -110.5
v-294q0 -13 -9 -22t-22 -9h-21q-14 0 -25 8t-15 22zM162 317q0 -38 11.5 -53.5t40.5 -15.5q25 0 43.5 11.5t32.5 25.5v113h-16q-36 0 -58 -4.5t-34 -14.5t-16 -25.5t-4 -36.5z" />
    <glyph glyph-name="guillemotleft" unicode="&#xab;" horiz-adv-x="537" 
d="M430 38q-11 -8 -23.5 -5.5t-19.5 13.5l-113 178q-16 26 0 52l113 180q7 11 19.5 13.5t22.5 -5.5l31 -20q11 -8 13.5 -20.5t-4.5 -23.5l-94 -150l93 -149q7 -11 4 -23.5t-14 -20.5zM218 38q-11 -8 -23.5 -5.5t-19.5 13.5l-113 178q-16 26 0 52l113 180q7 11 19.5 13.5
t22.5 -5.5l31 -20q11 -8 13.5 -20.5t-4.5 -23.5l-94 -150l93 -149q7 -11 4 -23.5t-14 -20.5z" />
    <glyph glyph-name="logicalnot" unicode="&#xac;" 
d="M374 163q-13 0 -22 9t-9 22v109h-226q-13 0 -22 9t-9 22v42q0 13 9 22t22 9h305q13 0 22 -9t9 -22v-182q0 -13 -9 -22t-22 -9h-48z" />
    <glyph glyph-name="uni00AD" unicode="&#xad;" horiz-adv-x="311" 
d="M81 215q-13 0 -22 9t-9 22v54q0 13 9 22t22 9h149q13 0 22 -9t9 -22v-54q0 -13 -9 -22t-22 -9h-149z" />
    <glyph glyph-name="registered" unicode="&#xae;" horiz-adv-x="544" 
d="M499 453q0 -60 -16.5 -108t-46.5 -82t-71.5 -52.5t-92.5 -18.5t-92.5 18.5t-71.5 52.5t-46.5 82t-16.5 108t16.5 108.5t46.5 83t71.5 53t92.5 18.5t92.5 -18.5t71.5 -53t46.5 -83t16.5 -108.5zM103 453q0 -101 43 -156.5t126 -55.5q82 0 125.5 55.5t43.5 156.5
q0 102 -43.5 157.5t-125.5 55.5q-83 0 -126 -55.5t-43 -157.5zM210 312q-13 0 -22 9t-9 22v227q0 13 9 22t22 9h61q55 0 78.5 -22.5t23.5 -60.5q0 -36 -13 -52.5t-36 -22.5q15 -5 23.5 -17.5t14.5 -34.5l13 -49q3 -11 -4 -20.5t-19 -9.5h-9q-14 0 -24.5 8.5t-13.5 21.5
l-13 53q-5 20 -13 26.5t-22 6.5h-12v-85q0 -13 -9 -22t-22 -9h-4zM245 478h28q17 0 24 8.5t7 26.5q0 32 -31 32h-28v-67z" />
    <glyph glyph-name="macron" unicode="&#xaf;" horiz-adv-x="533" 
d="M164 608q-13 0 -22 9t-9 22v29q0 13 9 22t22 9h204q13 0 22 -9t9 -22v-29q0 -13 -9 -22t-22 -9h-204z" />
    <glyph glyph-name="degree" unicode="&#xb0;" horiz-adv-x="408" 
d="M363 529q0 -41 -11.5 -73t-32.5 -54.5t-50.5 -34.5t-65.5 -12q-75 0 -117 46.5t-42 128.5q0 81 44 126t115 45q75 0 117.5 -44.5t42.5 -127.5zM133 532q0 -59 17.5 -83t53.5 -24t52.5 25t16.5 76q0 59 -17.5 82.5t-52.5 23.5t-52.5 -24t-17.5 -76z" />
    <glyph glyph-name="plusminus" unicode="&#xb1;" 
d="M251 171q-13 0 -22 9t-9 22v104h-130q-13 0 -22 9t-9 22v41q0 13 9 22t22 9h130v111q0 13 9 22t22 9h48q13 0 22 -9t9 -22v-111h129q13 0 22 -9t9 -22v-41q0 -13 -9 -22t-22 -9h-129v-104q0 -13 -9 -22t-22 -9h-48zM90 20q-13 0 -22 9t-9 22v40q0 13 9 22t22 9h369
q13 0 22 -9t9 -22v-40q0 -13 -9 -22t-22 -9h-369z" />
    <glyph glyph-name="uni00B2" unicode="&#xb2;" horiz-adv-x="368" 
d="M79 218q-13 0 -22 9t-9 22v12q0 14 7 27.5t18 22.5q47 36 77 63.5t47 50t23.5 42t6.5 40.5q0 33 -17.5 48t-47.5 15q-19 0 -33.5 -3t-29.5 -9q-12 -5 -24 -0.5t-17 16.5l-3 8q-5 12 -0.5 24t16.5 17q20 9 45 15t57 6q69 0 108.5 -33.5t39.5 -96.5q0 -29 -9 -55.5t-29 -53
t-52.5 -54.5t-78.5 -61h143q13 0 22 -9t9 -22v-10q0 -13 -9 -22t-22 -9h-216z" />
    <glyph glyph-name="uni00B3" unicode="&#xb3;" horiz-adv-x="371" 
d="M325 310q0 -60 -41.5 -98t-125.5 -38q-32 0 -57.5 4t-46.5 12q-12 4 -18.5 15.5t-2.5 23.5l2 7q3 12 14 18.5t24 3.5q16 -5 34 -8t38 -3q86 0 86 72q0 39 -21.5 54t-58.5 15h-22q-8 0 -14 6t-6 14v27q0 8 5 13t13 5h20q73 0 73 62q0 29 -16.5 43t-52.5 14
q-17 0 -31.5 -2.5t-28.5 -7.5q-12 -5 -23.5 0.5t-16.5 17.5l-2 6q-5 12 0.5 23.5t17.5 16.5q21 8 45.5 13t54.5 5q66 0 104.5 -31t38.5 -87q0 -41 -19.5 -65.5t-51.5 -36.5q40 -11 63 -38.5t23 -75.5z" />
    <glyph glyph-name="acute" unicode="&#xb4;" horiz-adv-x="533" 
d="M230 575q-12 -6 -24.5 -2t-19.5 15l-6 11q-7 11 -4.5 24t13.5 21l142 102q10 7 22 4.5t18 -13.5l27 -46q6 -11 2 -23t-15 -18z" />
    <glyph glyph-name="uni00B5" unicode="&#xb5;" horiz-adv-x="526" 
d="M348 56q-27 -29 -58.5 -48t-64.5 -19q-23 0 -41 9v-164q0 -13 -9 -22t-22 -9h-52q-13 0 -22 9t-9 22v641q0 13 9 22t22 9h52q13 0 22 -9t9 -22v-323q0 -41 14.5 -55.5t42.5 -14.5q26 0 50 13t47 33v347q0 13 9 22t22 9h51q13 0 22 -9t9 -22v-444q0 -13 -9 -22t-22 -9h-29
q-14 0 -24.5 8.5t-12.5 21.5z" />
    <glyph glyph-name="paragraph" unicode="&#xb6;" horiz-adv-x="583" 
d="M278 -87q-13 0 -22 9t-9 22v401h-8q-94 0 -141.5 46.5t-47.5 127.5q0 87 52.5 130t143.5 43h227q13 0 22 -9t9 -22v-717q0 -13 -9 -22t-22 -9h-27q-13 0 -22 9t-9 22v670h-79v-670q0 -13 -9 -22t-22 -9h-27z" />
    <glyph glyph-name="periodcentered" unicode="&#xb7;" horiz-adv-x="282" 
d="M220 328q0 -34 -23 -57t-57 -23q-32 0 -55 23t-23 57q0 33 23 56t55 23q34 0 57 -23t23 -56z" />
    <glyph glyph-name="cedilla" unicode="&#xb8;" horiz-adv-x="533" 
d="M365 -130q0 -18 -5.5 -34t-18 -28t-33 -19t-50.5 -7q-28 0 -56 10q-11 4 -16 14t0 22q4 12 15.5 17t22.5 2q7 -2 14 -3t15 -1q38 0 38 31q0 17 -9 24t-30 7q-6 0 -11 -0.5t-10 -0.5q-6 -2 -10 3t-2 11l24 82v1q2 9 11 9h28q11 0 18 -9t3 -20l-10 -29q38 -5 55 -26.5
t17 -55.5z" />
    <glyph glyph-name="uni00B9" unicode="&#xb9;" horiz-adv-x="338" 
d="M89 218q-13 0 -22 9t-9 22v3q0 13 9 22t22 9h48v255l-49 -24q-9 -5 -19.5 -2t-15.5 13l-1 2q-5 10 -2.5 21t11.5 18l75 59q24 19 55 19h7q13 0 22 -9t9 -22v-330h42q13 0 22 -9t9 -22v-3q0 -13 -9 -22t-22 -9h-182z" />
    <glyph glyph-name="ordmasculine" unicode="&#xba;" horiz-adv-x="497" 
d="M442 411q0 -63 -14 -108.5t-39.5 -74.5t-61 -42.5t-79.5 -13.5t-79.5 13.5t-61 43t-39.5 75t-14 109.5q0 127 52 182.5t141 55.5q44 0 80 -13.5t61.5 -42.5t39.5 -74.5t14 -109.5zM167 411q0 -47 4.5 -77.5t14.5 -48.5t25.5 -25t36.5 -7t36.5 7t25 25t14 49t4.5 78
q0 48 -4.5 79t-14.5 48.5t-25 24t-37 6.5q-21 0 -36.5 -6.5t-25 -24t-14 -48.5t-4.5 -80z" />
    <glyph glyph-name="guillemotright" unicode="&#xbb;" horiz-adv-x="537" 
d="M149 46q-7 -11 -19.5 -13.5t-22.5 5.5l-30 20q-11 8 -13.5 20.5t4.5 23.5l93 149l-93 150q-7 11 -4 23.5t14 20.5l28 19q11 8 23.5 5.5t19.5 -13.5l113 -179q16 -26 0 -52zM361 46q-7 -11 -19.5 -13.5t-22.5 5.5l-30 20q-11 8 -13.5 20.5t4.5 23.5l94 149l-93 150
q-7 11 -4.5 23.5t13.5 20.5l29 19q10 8 22.5 5.5t19.5 -13.5l113 -179q16 -26 0 -52z" />
    <glyph glyph-name="onequarter" unicode="&#xbc;" horiz-adv-x="994" 
d="M817 54h-189q-13 0 -22 9t-9 22v16q0 14 3.5 30.5t8.5 29.5l97 228q5 14 17 21.5t26 7.5h30q11 0 17.5 -9t1.5 -20l-112 -262h131v133q0 14 8.5 24t22.5 12l27 5q12 2 21.5 -6t9.5 -20v-148h14q13 0 22 -9t9 -22v-11q0 -13 -9 -22t-22 -9h-14v-59q0 -13 -9 -22t-22 -9
h-27q-13 0 -22 9t-9 22v59zM288 0q-11 0 -15.5 9t0.5 18l337 585q8 12 20.5 19.5t26.5 7.5h33q11 0 15.5 -9t-0.5 -18l-337 -585q-8 -12 -20.5 -19.5t-26.5 -7.5h-33zM89 218q-13 0 -22 9t-9 22v3q0 13 9 22t22 9h49v255l-49 -24q-9 -5 -19.5 -2t-15.5 13l-1 2
q-5 10 -2.5 21t11.5 18l75 59q24 19 55 19h6q13 0 22 -9t9 -22v-330h43q13 0 22 -9t9 -22v-3q0 -13 -9 -22t-22 -9h-183z" />
    <glyph glyph-name="onehalf" unicode="&#xbd;" horiz-adv-x="984" 
d="M686 0q-13 0 -22 9t-9 22v12q0 14 7 27.5t18 22.5q47 36 77 63.5t47.5 50t24 42t6.5 40.5q0 33 -17.5 48t-47.5 15q-19 0 -33.5 -3t-30.5 -10q-12 -5 -23.5 0t-16.5 17l-4 8q-5 12 0 24t17 17q20 9 44.5 15t56.5 6q69 0 108.5 -33.5t39.5 -96.5q0 -29 -9 -55.5t-28.5 -53
t-52 -54.5t-78.5 -61h142q13 0 22 -9t9 -22v-10q0 -13 -9 -22t-22 -9h-216zM287 0q-11 0 -15.5 9t0.5 18l337 585q8 12 20.5 19.5t26.5 7.5h33q11 0 15.5 -9t-0.5 -18l-337 -585q-8 -12 -20.5 -19.5t-26.5 -7.5h-33zM89 218q-13 0 -22 9t-9 22v3q0 13 9 22t22 9h49v255
l-49 -24q-9 -5 -19.5 -2t-15.5 13l-1 2q-5 10 -2.5 21t11.5 18l75 59q24 19 55 19h6q13 0 22 -9t9 -22v-330h43q13 0 22 -9t9 -22v-3q0 -13 -9 -22t-22 -9h-183z" />
    <glyph glyph-name="threequarters" unicode="&#xbe;" horiz-adv-x="1011" 
d="M833 54h-189q-13 0 -22 9t-9 22v16q0 14 3.5 30.5t8.5 29.5l98 228q5 14 17 21.5t26 7.5h29q11 0 17.5 -9t1.5 -20l-112 -262h131v133q0 14 8.5 24t22.5 12l28 5q12 2 21.5 -6t9.5 -20v-148h14q13 0 22 -9t9 -22v-11q0 -13 -9 -22t-22 -9h-14v-59q0 -13 -9 -22t-22 -9
h-28q-13 0 -22 9t-9 22v59zM335 313q0 -60 -41.5 -98t-125.5 -38q-32 0 -57.5 4t-46.5 11q-12 4 -18.5 15.5t-2.5 23.5l2 8q3 12 14 18.5t24 3.5q16 -5 34 -8t38 -3q86 0 86 71q0 40 -21.5 55t-58.5 15h-22q-8 0 -14 6t-6 14v27q0 8 5 13t13 5h20q73 0 73 61
q0 29 -16.5 43.5t-52.5 14.5q-32 0 -60 -11q-12 -5 -23.5 1t-15.5 18l-3 6q-5 12 0.5 23.5t17.5 16.5q21 8 45.5 13t54.5 5q66 0 104.5 -31t38.5 -87q0 -41 -19.5 -65.5t-51.5 -36.5q40 -11 63 -38.5t23 -75.5zM313 0q-11 0 -15.5 9t0.5 18l337 585q8 12 20.5 19.5t26.5 7.5
h33q11 0 15.5 -9t-0.5 -18l-337 -585q-8 -12 -20.5 -19.5t-26.5 -7.5h-33z" />
    <glyph glyph-name="questiondown" unicode="&#xbf;" horiz-adv-x="445" 
d="M378 -156q-29 -18 -65 -29.5t-81 -11.5q-39 0 -72 9t-57 28.5t-37.5 50t-13.5 74.5q0 36 8 62t22.5 45.5t34 35t43.5 31.5q26 18 34.5 37.5t8.5 50.5v41q0 13 9 22t22 9h36q13 0 22 -9t9 -22v-56q0 -28 -4 -49t-12 -37.5t-21.5 -29.5t-31.5 -25q-16 -11 -28 -20.5
t-19.5 -20.5t-11 -25t-3.5 -34q0 -36 16.5 -52t58.5 -16q25 0 46.5 7t39.5 17q11 6 23.5 2t18.5 -15l16 -27q7 -11 3.5 -23.5t-14.5 -19.5zM326 442q0 -32 -22 -54.5t-54 -22.5t-53.5 22.5t-21.5 54.5t21.5 53.5t53.5 21.5t54 -21.5t22 -53.5z" />
    <glyph glyph-name="Agrave" unicode="&#xc0;" horiz-adv-x="576" 
d="M53 0q-12 0 -19 9.5t-3 20.5l188 632q4 14 15 22t25 8h66q14 0 25 -8t14 -22l181 -632q3 -11 -4 -20.5t-19 -9.5h-68q-14 0 -24.5 8.5t-14.5 21.5l-36 141h-188l-38 -141q-4 -14 -14.5 -22t-24.5 -8h-61zM287 556q-3 -17 -6 -34.5t-7 -37.5t-10 -44.5t-15 -55.5l-32 -118
h138l-30 118q-8 32 -14 56.5t-10 45t-6.5 37t-5.5 33.5h-2zM368 762q-7 -11 -19.5 -15t-24.5 2l-155 75q-11 6 -15 18t2 23l26 46q6 11 18 14t22 -5l143 -102q11 -8 13.5 -21t-4.5 -24z" />
    <glyph glyph-name="Aacute" unicode="&#xc1;" horiz-adv-x="576" 
d="M53 0q-12 0 -19 9.5t-3 20.5l188 632q4 14 15 22t25 8h66q14 0 25 -8t14 -22l181 -632q3 -11 -4 -20.5t-19 -9.5h-68q-14 0 -24.5 8.5t-14.5 21.5l-36 141h-188l-38 -141q-4 -14 -14.5 -22t-24.5 -8h-61zM287 556q-3 -17 -6 -34.5t-7 -37.5t-10 -44.5t-15 -55.5l-32 -118
h138l-30 118q-8 32 -14 56.5t-10 45t-6.5 37t-5.5 33.5h-2zM251 749q-12 -6 -24.5 -2t-19.5 15l-6 11q-7 11 -4.5 24t13.5 21l142 102q10 7 22 4.5t18 -13.5l27 -46q6 -11 2 -23t-15 -18z" />
    <glyph glyph-name="Acircumflex" unicode="&#xc2;" horiz-adv-x="576" 
d="M53 0q-12 0 -19 9.5t-3 20.5l188 632q4 14 15 22t25 8h66q14 0 25 -8t14 -22l181 -632q3 -11 -4 -20.5t-19 -9.5h-68q-14 0 -24.5 8.5t-14.5 21.5l-36 141h-188l-38 -141q-4 -14 -14.5 -22t-24.5 -8h-61zM287 556q-3 -17 -6 -34.5t-7 -37.5t-10 -44.5t-15 -55.5l-32 -118
h138l-30 118q-8 32 -14 56.5t-10 45t-6.5 37t-5.5 33.5h-2zM192 756q-11 -7 -23.5 -5t-20.5 13l-2 3q-8 11 -7 24.5t10 22.5l82 85q10 10 24 16t28 6h7q14 0 28 -6t24 -16l81 -85q9 -9 10 -22.5t-7 -24.5l-2 -3q-8 -11 -20.5 -13.5t-23.5 5.5l-95 61z" />
    <glyph glyph-name="Atilde" unicode="&#xc3;" horiz-adv-x="576" 
d="M53 0q-12 0 -19 9.5t-3 20.5l188 632q4 14 15 22t25 8h66q14 0 25 -8t14 -22l181 -632q3 -11 -4 -20.5t-19 -9.5h-68q-14 0 -24.5 8.5t-14.5 21.5l-36 141h-188l-38 -141q-4 -14 -14.5 -22t-24.5 -8h-61zM287 556q-3 -17 -6 -34.5t-7 -37.5t-10 -44.5t-15 -55.5l-32 -118
h138l-30 118q-8 32 -14 56.5t-10 45t-6.5 37t-5.5 33.5h-2zM229 787q-16 0 -31 -15q-9 -10 -22.5 -11t-24.5 7l-7 4q-11 8 -14 21t4 24q38 69 96 69q21 0 37 -6t29 -13l25 -12q12 -6 27 -6q17 0 31 15q9 9 22.5 10.5t24.5 -6.5l7 -4q11 -8 14 -21t-4 -24q-38 -69 -96 -69
q-21 0 -37 6t-29 12l-25 13q-12 6 -27 6z" />
    <glyph glyph-name="Adieresis" unicode="&#xc4;" horiz-adv-x="576" 
d="M53 0q-12 0 -19 9.5t-3 20.5l188 632q4 14 15 22t25 8h66q14 0 25 -8t14 -22l181 -632q3 -11 -4 -20.5t-19 -9.5h-68q-14 0 -24.5 8.5t-14.5 21.5l-36 141h-188l-38 -141q-4 -14 -14.5 -22t-24.5 -8h-61zM287 556q-3 -17 -6 -34.5t-7 -37.5t-10 -44.5t-15 -55.5l-32 -118
h138l-30 118q-8 32 -14 56.5t-10 45t-6.5 37t-5.5 33.5h-2zM254 808q0 -29 -20.5 -48.5t-46.5 -19.5q-27 0 -47.5 19.5t-20.5 48.5t20 48.5t47 19.5t47.5 -19.5t20.5 -48.5zM456 808q0 -29 -20.5 -48.5t-46.5 -19.5q-27 0 -47.5 19.5t-20.5 48.5t20 48.5t47 19.5t47.5 -19.5
t20.5 -48.5z" />
    <glyph glyph-name="Aring" unicode="&#xc5;" horiz-adv-x="576" 
d="M53 0q-12 0 -19 9.5t-3 20.5l188 632q4 14 15 22t25 8h66q14 0 25 -8t14 -22l181 -632q3 -11 -4 -20.5t-19 -9.5h-68q-14 0 -24.5 8.5t-14.5 21.5l-36 141h-188l-38 -141q-4 -14 -14.5 -22t-24.5 -8h-61zM287 556q-3 -17 -6 -34.5t-7 -37.5t-10 -44.5t-15 -55.5l-32 -118
h138l-30 118q-8 32 -14 56.5t-10 45t-6.5 37t-5.5 33.5h-2zM394 838q0 -45 -28.5 -77t-77.5 -32q-48 0 -76.5 32t-28.5 77q0 46 28.5 78t76.5 32q49 0 77.5 -32t28.5 -78zM249 838q0 -27 9 -41t30 -14q22 0 31 14t9 41q0 28 -9 41.5t-31 13.5q-21 0 -30 -13.5t-9 -41.5z" />
    <glyph glyph-name="AE" unicode="&#xc6;" horiz-adv-x="838" 
d="M47 0q-11 0 -16.5 9t-0.5 19l322 636q6 13 18.5 20.5t26.5 7.5h348q13 0 22 -9t9 -22v-41q0 -13 -9 -22t-22 -9h-210v-177h162q13 0 22 -9t9 -22v-39q0 -13 -9 -22t-22 -9h-162v-207h225q13 0 22 -9t9 -22v-42q0 -13 -9 -22t-22 -9h-315q-13 0 -22 9t-9 22v125h-197
l-62 -128q-7 -13 -19 -20.5t-26 -7.5h-63zM416 596q-12 -34 -27 -75t-39 -92l-86 -177h150v162q0 11 0.5 39t1.5 58t1.5 55t0.5 30h-2z" />
    <glyph glyph-name="Ccedilla" unicode="&#xc7;" horiz-adv-x="547" 
d="M379 -130q0 -18 -5.5 -34t-18 -28t-33 -19t-50.5 -7q-28 0 -56 10q-11 4 -16 14t0 22q4 12 15.5 17t22.5 2q7 -2 14 -3t15 -1q38 0 38 31q0 17 -9 24t-30 7q-6 0 -11 -0.5t-10 -0.5q-6 -2 -10 3t-2 11l22 77q-103 21 -151 107t-48 242q0 184 67 272.5t205 88.5
q88 0 147 -36q11 -7 14 -19t-3 -23l-22 -38q-6 -11 -18 -14.5t-23 3.5q-41 25 -91 25q-43 0 -71 -13t-44 -43t-22 -78t-6 -118q0 -73 7 -123t24 -81t44.5 -44.5t69.5 -13.5q30 0 54 8.5t44 22.5q11 7 23 4.5t19 -13.5l22 -35q7 -11 4 -23.5t-14 -19.5q-30 -20 -68 -33
t-88 -13h-11l-12 -35q38 -5 55 -26.5t17 -55.5z" />
    <glyph glyph-name="Egrave" unicode="&#xc8;" horiz-adv-x="509" 
d="M116 0q-13 0 -22 9t-9 22v630q0 13 9 22t22 9h300q13 0 22 -9t9 -22v-41q0 -13 -9 -22t-22 -9h-210v-177h162q13 0 22 -9t9 -22v-39q0 -13 -9 -22t-22 -9h-162v-207h225q13 0 22 -9t9 -22v-42q0 -13 -9 -22t-22 -9h-315zM358 762q-7 -11 -19.5 -15t-24.5 2l-155 75
q-11 6 -15 18t2 23l26 46q6 11 18 14t22 -5l143 -102q11 -8 13.5 -21t-4.5 -24z" />
    <glyph glyph-name="Eacute" unicode="&#xc9;" horiz-adv-x="509" 
d="M116 0q-13 0 -22 9t-9 22v630q0 13 9 22t22 9h300q13 0 22 -9t9 -22v-41q0 -13 -9 -22t-22 -9h-210v-177h162q13 0 22 -9t9 -22v-39q0 -13 -9 -22t-22 -9h-162v-207h225q13 0 22 -9t9 -22v-42q0 -13 -9 -22t-22 -9h-315zM224 749q-12 -6 -24.5 -2t-19.5 15l-6 11
q-7 11 -4.5 24t13.5 21l142 102q10 7 22 4.5t18 -13.5l27 -46q6 -11 2 -23t-15 -18z" />
    <glyph glyph-name="Ecircumflex" unicode="&#xca;" horiz-adv-x="509" 
d="M116 0q-13 0 -22 9t-9 22v630q0 13 9 22t22 9h300q13 0 22 -9t9 -22v-41q0 -13 -9 -22t-22 -9h-210v-177h162q13 0 22 -9t9 -22v-39q0 -13 -9 -22t-22 -9h-162v-207h225q13 0 22 -9t9 -22v-42q0 -13 -9 -22t-22 -9h-315zM171 756q-11 -7 -23.5 -5t-20.5 13l-2 3
q-8 11 -7 24.5t10 22.5l82 85q10 10 24 16t28 6h7q14 0 28 -6t24 -16l81 -85q9 -9 10 -22.5t-7 -24.5l-2 -3q-8 -11 -20.5 -13.5t-23.5 5.5l-95 61z" />
    <glyph glyph-name="Edieresis" unicode="&#xcb;" horiz-adv-x="509" 
d="M116 0q-13 0 -22 9t-9 22v630q0 13 9 22t22 9h300q13 0 22 -9t9 -22v-41q0 -13 -9 -22t-22 -9h-210v-177h162q13 0 22 -9t9 -22v-39q0 -13 -9 -22t-22 -9h-162v-207h225q13 0 22 -9t9 -22v-42q0 -13 -9 -22t-22 -9h-315zM231 808q0 -29 -20.5 -48.5t-46.5 -19.5
q-27 0 -47.5 19.5t-20.5 48.5t20 48.5t47 19.5t47.5 -19.5t20.5 -48.5zM433 808q0 -29 -20.5 -48.5t-46.5 -19.5q-27 0 -47.5 19.5t-20.5 48.5t20 48.5t47 19.5t47.5 -19.5t20.5 -48.5z" />
    <glyph glyph-name="Igrave" unicode="&#xcc;" horiz-adv-x="372" 
d="M87 0q-13 0 -22 9t-9 22v5q0 14 8.5 24t22.5 12l38 6v536l-38 7q-14 2 -22.5 12t-8.5 24v4q0 13 9 22t22 9h198q13 0 22 -9t9 -22v-4q0 -14 -8.5 -24t-22.5 -12l-38 -7v-536l38 -6q14 -2 22.5 -12t8.5 -24v-5q0 -13 -9 -22t-22 -9h-198zM277 762q-7 -11 -19.5 -15
t-24.5 2l-155 75q-11 6 -15 18t2 23l26 46q6 11 18 14t22 -5l143 -102q11 -8 13.5 -21t-4.5 -24z" />
    <glyph glyph-name="Iacute" unicode="&#xcd;" horiz-adv-x="372" 
d="M87 0q-13 0 -22 9t-9 22v5q0 14 8.5 24t22.5 12l38 6v536l-38 7q-14 2 -22.5 12t-8.5 24v4q0 13 9 22t22 9h198q13 0 22 -9t9 -22v-4q0 -14 -8.5 -24t-22.5 -12l-38 -7v-536l38 -6q14 -2 22.5 -12t8.5 -24v-5q0 -13 -9 -22t-22 -9h-198zM142 749q-12 -6 -24.5 -2
t-19.5 15l-6 11q-7 11 -4.5 24t13.5 21l142 102q10 7 22 4.5t18 -13.5l27 -46q6 -11 2 -23t-15 -18z" />
    <glyph glyph-name="Icircumflex" unicode="&#xce;" horiz-adv-x="372" 
d="M87 0q-13 0 -22 9t-9 22v5q0 14 8.5 24t22.5 12l38 6v536l-38 7q-14 2 -22.5 12t-8.5 24v4q0 13 9 22t22 9h198q13 0 22 -9t9 -22v-4q0 -14 -8.5 -24t-22.5 -12l-38 -7v-536l38 -6q14 -2 22.5 -12t8.5 -24v-5q0 -13 -9 -22t-22 -9h-198zM92 756q-11 -7 -23.5 -5t-20.5 13
l-2 3q-8 11 -7 24.5t10 22.5l82 85q10 10 24 16t28 6h7q14 0 28 -6t24 -16l81 -85q9 -9 10 -22.5t-7 -24.5l-2 -3q-8 -11 -20.5 -13.5t-23.5 5.5l-95 61z" />
    <glyph glyph-name="Idieresis" unicode="&#xcf;" horiz-adv-x="372" 
d="M87 0q-13 0 -22 9t-9 22v5q0 14 8.5 24t22.5 12l38 6v536l-38 7q-14 2 -22.5 12t-8.5 24v4q0 13 9 22t22 9h198q13 0 22 -9t9 -22v-4q0 -14 -8.5 -24t-22.5 -12l-38 -7v-536l38 -6q14 -2 22.5 -12t8.5 -24v-5q0 -13 -9 -22t-22 -9h-198zM153 808q0 -29 -20.5 -48.5
t-46.5 -19.5q-27 0 -47.5 19.5t-20.5 48.5t20 48.5t47 19.5t47.5 -19.5t20.5 -48.5zM355 808q0 -29 -20.5 -48.5t-46.5 -19.5q-27 0 -47.5 19.5t-20.5 48.5t20 48.5t47 19.5t47.5 -19.5t20.5 -48.5z" />
    <glyph glyph-name="Eth" unicode="&#xd0;" horiz-adv-x="608" 
d="M53 292q-13 0 -22 9t-9 22v37q0 13 9 22t22 9h27v270q0 13 9 22t22 9h169q68 0 119 -17.5t85 -58t51 -106.5t17 -163q0 -93 -15 -158.5t-47 -107.5t-82.5 -61.5t-122.5 -19.5h-174q-13 0 -22 9t-9 22v261h-27zM201 103h81q40 0 67 11t43 39.5t22.5 76.5t6.5 122
q0 70 -6.5 116t-22.5 73t-43 38t-68 11h-80v-199h86q13 0 22 -9t9 -22v-37q0 -13 -9 -22t-22 -9h-86v-189z" />
    <glyph glyph-name="Ntilde" unicode="&#xd1;" horiz-adv-x="617" 
d="M116 0q-13 0 -22 9t-9 22v630q0 13 9 22t22 9h55q31 0 44 -28l155 -322q9 -19 18 -40.5t17.5 -43t15.5 -42.5l13 -39h1q-4 33 -8.5 85.5t-4.5 104.5v294q0 13 9 22t22 9h49q13 0 22 -9t9 -22v-630q0 -13 -9 -22t-22 -9h-61q-31 0 -44 28l-143 302q-29 59 -43.5 100
t-26.5 78h-2q4 -31 8.5 -86t4.5 -118v-273q0 -13 -9 -22t-22 -9h-48zM252 787q-16 0 -31 -15q-9 -10 -22.5 -11t-24.5 7l-7 4q-11 8 -14 21t4 24q38 69 96 69q21 0 37 -6t29 -13l25 -12q12 -6 27 -6q17 0 31 15q9 9 22.5 10.5t24.5 -6.5l7 -4q11 -8 14 -21t-4 -24
q-38 -69 -96 -69q-21 0 -37 6t-29 12l-25 13q-12 6 -27 6z" />
    <glyph glyph-name="Ograve" unicode="&#xd2;" horiz-adv-x="644" 
d="M587 347q0 -185 -65.5 -272.5t-198.5 -87.5t-200 86t-67 271q0 183 67.5 272t198.5 89q130 0 197.5 -88.5t67.5 -269.5zM187 348q0 -71 7 -121t23 -81.5t41.5 -46.5t63.5 -15q37 0 63 14.5t41.5 46t22.5 81t7 119.5t-7 120t-22.5 81.5t-41.5 46t-63 14.5
q-38 0 -63.5 -14.5t-41.5 -45.5t-23 -80.5t-7 -118.5zM405 762q-7 -11 -19.5 -15t-24.5 2l-155 75q-11 6 -15 18t2 23l26 46q6 11 18 14t22 -5l143 -102q11 -8 13.5 -21t-4.5 -24z" />
    <glyph glyph-name="Oacute" unicode="&#xd3;" horiz-adv-x="644" 
d="M587 347q0 -185 -65.5 -272.5t-198.5 -87.5t-200 86t-67 271q0 183 67.5 272t198.5 89q130 0 197.5 -88.5t67.5 -269.5zM187 348q0 -71 7 -121t23 -81.5t41.5 -46.5t63.5 -15q37 0 63 14.5t41.5 46t22.5 81t7 119.5t-7 120t-22.5 81.5t-41.5 46t-63 14.5
q-38 0 -63.5 -14.5t-41.5 -45.5t-23 -80.5t-7 -118.5zM285 749q-12 -6 -24.5 -2t-19.5 15l-6 11q-7 11 -4.5 24t13.5 21l142 102q10 7 22 4.5t18 -13.5l27 -46q6 -11 2 -23t-15 -18z" />
    <glyph glyph-name="Ocircumflex" unicode="&#xd4;" horiz-adv-x="644" 
d="M587 347q0 -185 -65.5 -272.5t-198.5 -87.5t-200 86t-67 271q0 183 67.5 272t198.5 89q130 0 197.5 -88.5t67.5 -269.5zM187 348q0 -71 7 -121t23 -81.5t41.5 -46.5t63.5 -15q37 0 63 14.5t41.5 46t22.5 81t7 119.5t-7 120t-22.5 81.5t-41.5 46t-63 14.5
q-38 0 -63.5 -14.5t-41.5 -45.5t-23 -80.5t-7 -118.5zM227 756q-11 -7 -23.5 -5t-20.5 13l-2 3q-8 11 -7 24.5t10 22.5l82 85q10 10 24 16t28 6h7q14 0 28 -6t24 -16l81 -85q9 -9 10 -22.5t-7 -24.5l-2 -3q-8 -11 -20.5 -13.5t-23.5 5.5l-95 61z" />
    <glyph glyph-name="Otilde" unicode="&#xd5;" horiz-adv-x="644" 
d="M587 347q0 -185 -65.5 -272.5t-198.5 -87.5t-200 86t-67 271q0 183 67.5 272t198.5 89q130 0 197.5 -88.5t67.5 -269.5zM187 348q0 -71 7 -121t23 -81.5t41.5 -46.5t63.5 -15q37 0 63 14.5t41.5 46t22.5 81t7 119.5t-7 120t-22.5 81.5t-41.5 46t-63 14.5
q-38 0 -63.5 -14.5t-41.5 -45.5t-23 -80.5t-7 -118.5zM263 787q-16 0 -31 -15q-9 -10 -22.5 -11t-24.5 7l-7 4q-11 8 -14 21t4 24q38 69 96 69q21 0 37 -6t29 -13l25 -12q12 -6 27 -6q17 0 31 15q9 9 22.5 10.5t24.5 -6.5l7 -4q11 -8 14 -21t-4 -24q-38 -69 -96 -69
q-21 0 -37 6t-29 12l-25 13q-12 6 -27 6z" />
    <glyph glyph-name="Odieresis" unicode="&#xd6;" horiz-adv-x="644" 
d="M587 347q0 -185 -65.5 -272.5t-198.5 -87.5t-200 86t-67 271q0 183 67.5 272t198.5 89q130 0 197.5 -88.5t67.5 -269.5zM187 348q0 -71 7 -121t23 -81.5t41.5 -46.5t63.5 -15q37 0 63 14.5t41.5 46t22.5 81t7 119.5t-7 120t-22.5 81.5t-41.5 46t-63 14.5
q-38 0 -63.5 -14.5t-41.5 -45.5t-23 -80.5t-7 -118.5zM287 808q0 -29 -20.5 -48.5t-46.5 -19.5q-27 0 -47.5 19.5t-20.5 48.5t20 48.5t47 19.5t47.5 -19.5t20.5 -48.5zM490 808q0 -29 -20.5 -48.5t-46.5 -19.5q-27 0 -47.5 19.5t-20.5 48.5t20 48.5t47 19.5t47.5 -19.5
t20.5 -48.5z" />
    <glyph glyph-name="multiply" unicode="&#xd7;" 
d="M427 134q-8 -10 -21 -10t-21 10l-111 117l-108 -116q-8 -9 -21 -9.5t-21 9.5l-30 30q-9 10 -8.5 23t8.5 22l110 115l-111 116q-9 9 -9 22t8 23l30 30q8 10 21 10t21 -9l112 -117l108 114q8 10 21 10t21 -10l29 -29q9 -10 8.5 -23t-8.5 -22l-109 -114l111 -117q9 -9 9 -22
t-9 -23z" />
    <glyph glyph-name="Oslash" unicode="&#xd8;" horiz-adv-x="644" 
d="M143 -62q-6 -11 -18.5 -14.5t-23.5 2.5l-19 12q-11 6 -14.5 18.5t2.5 23.5l53 93q-67 86 -67 271q0 183 67.5 272t198.5 89q84 0 141 -36l41 71q6 11 18.5 14.5t23.5 -2.5l19 -12q11 -6 14.5 -18.5t-2.5 -23.5l-52 -90q62 -89 62 -261q0 -185 -65.5 -272.5t-198.5 -87.5
q-80 0 -135 30zM322 607q-38 0 -64 -14.5t-42 -45.5t-23.5 -80.5t-7.5 -118.5q0 -45 2.5 -81.5t9.5 -65.5l212 372q-31 34 -87 34zM241 110q31 -27 81 -27q37 0 63 14.5t42.5 46t23.5 81.5t7 120q0 76 -9 130z" />
    <glyph glyph-name="Ugrave" unicode="&#xd9;" horiz-adv-x="622" 
d="M431 56q-26 -28 -64 -48.5t-94 -20.5q-41 0 -76.5 12t-61.5 38.5t-41 70t-15 106.5v447q0 13 9 22t22 9h59q13 0 22 -9t9 -22v-448q0 -63 17.5 -92.5t74.5 -29.5q45 0 75 15.5t49 32.5v522q0 13 9 22t22 9h59q13 0 22 -9t9 -22v-630q0 -13 -9 -22t-22 -9h-26q-14 0 -25 8
t-15 22zM393 762q-7 -11 -19.5 -15t-24.5 2l-155 75q-11 6 -15 18t2 23l26 46q6 11 18 14t22 -5l143 -102q11 -8 13.5 -21t-4.5 -24z" />
    <glyph glyph-name="Uacute" unicode="&#xda;" horiz-adv-x="622" 
d="M431 56q-26 -28 -64 -48.5t-94 -20.5q-41 0 -76.5 12t-61.5 38.5t-41 70t-15 106.5v447q0 13 9 22t22 9h59q13 0 22 -9t9 -22v-448q0 -63 17.5 -92.5t74.5 -29.5q45 0 75 15.5t49 32.5v522q0 13 9 22t22 9h59q13 0 22 -9t9 -22v-630q0 -13 -9 -22t-22 -9h-26q-14 0 -25 8
t-15 22zM279 749q-12 -6 -24.5 -2t-19.5 15l-6 11q-7 11 -4.5 24t13.5 21l142 102q10 7 22 4.5t18 -13.5l27 -46q6 -11 2 -23t-15 -18z" />
    <glyph glyph-name="Ucircumflex" unicode="&#xdb;" horiz-adv-x="622" 
d="M431 56q-26 -28 -64 -48.5t-94 -20.5q-41 0 -76.5 12t-61.5 38.5t-41 70t-15 106.5v447q0 13 9 22t22 9h59q13 0 22 -9t9 -22v-448q0 -63 17.5 -92.5t74.5 -29.5q45 0 75 15.5t49 32.5v522q0 13 9 22t22 9h59q13 0 22 -9t9 -22v-630q0 -13 -9 -22t-22 -9h-26q-14 0 -25 8
t-15 22zM218 756q-11 -7 -23.5 -5t-20.5 13l-2 3q-8 11 -7 24.5t10 22.5l82 85q10 10 24 16t28 6h7q14 0 28 -6t24 -16l81 -85q9 -9 10 -22.5t-7 -24.5l-2 -3q-8 -11 -20.5 -13.5t-23.5 5.5l-95 61z" />
    <glyph glyph-name="Udieresis" unicode="&#xdc;" horiz-adv-x="622" 
d="M431 56q-26 -28 -64 -48.5t-94 -20.5q-41 0 -76.5 12t-61.5 38.5t-41 70t-15 106.5v447q0 13 9 22t22 9h59q13 0 22 -9t9 -22v-448q0 -63 17.5 -92.5t74.5 -29.5q45 0 75 15.5t49 32.5v522q0 13 9 22t22 9h59q13 0 22 -9t9 -22v-630q0 -13 -9 -22t-22 -9h-26q-14 0 -25 8
t-15 22zM278 808q0 -29 -20.5 -48.5t-46.5 -19.5q-27 0 -47.5 19.5t-20.5 48.5t20 48.5t47 19.5t47.5 -19.5t20.5 -48.5zM480 808q0 -29 -20.5 -48.5t-46.5 -19.5q-27 0 -47.5 19.5t-20.5 48.5t20 48.5t47 19.5t47.5 -19.5t20.5 -48.5z" />
    <glyph glyph-name="Yacute" unicode="&#xdd;" horiz-adv-x="545" 
d="M241 0q-13 0 -22 9t-9 22v256l-176 377q-5 10 1 19t17 9h74q14 0 26 -8t17 -21l67 -160q13 -32 22.5 -59t16.5 -56q8 29 17 60t19 54l71 162q5 13 17 20.5t26 7.5h68q11 0 17 -9t1 -19l-180 -377v-256q0 -13 -9 -22t-22 -9h-59zM259 749q-12 -6 -24.5 -2t-19.5 15l-6 11
q-7 11 -4.5 24t13.5 21l142 102q10 7 22 4.5t18 -13.5l27 -46q6 -11 2 -23t-15 -18z" />
    <glyph glyph-name="Thorn" unicode="&#xde;" horiz-adv-x="562" 
d="M115 0q-13 0 -22 9t-9 22v630q0 13 9 22t22 9h59q13 0 22 -9t9 -22v-79h82q115 0 173 -49.5t58 -160.5q0 -51 -11 -92t-37 -69.5t-68 -43.5t-104 -15h-93v-121q0 -13 -9 -22t-22 -9h-59zM205 252h86q26 0 45 5.5t32 18.5t19 34.5t6 53.5q0 67 -24 91.5t-77 24.5h-87v-228
z" />
    <glyph glyph-name="germandbls" unicode="&#xdf;" horiz-adv-x="553" 
d="M513 171q0 -46 -13.5 -80t-38 -56.5t-58.5 -33.5t-75 -11q-20 0 -36 2t-29 5t-20 13.5t-5 23.5l5 26q2 11 12 18t22 5q7 -1 14.5 -1.5t16.5 -0.5q40 0 62 21t22 66q0 22 -5.5 38t-14.5 29t-20.5 23.5t-24.5 21.5l-10 8q-13 11 -24.5 21.5t-20.5 22.5t-14 27.5t-5 35.5
q0 33 14 52.5t31 35t31 32.5t14 45q0 36 -18 50.5t-56 14.5q-45 0 -63 -29t-18 -90v-475q0 -13 -9 -22t-22 -9h-51q-13 0 -22 9t-9 22v484q0 103 53 152t144 49q86 0 133.5 -39.5t47.5 -112.5q0 -40 -14.5 -64.5t-32.5 -41t-32.5 -28t-14.5 -24.5q0 -14 13 -25t48 -38
q15 -12 31.5 -27t30 -36t22.5 -48t9 -61z" />
    <glyph glyph-name="agrave" unicode="&#xe0;" horiz-adv-x="490" 
d="M316 44q-21 -23 -50.5 -40t-71.5 -17q-76 0 -113.5 41.5t-37.5 118.5q0 88 53.5 127.5t172.5 39.5h36v29q0 20 -2 35t-8.5 25.5t-19.5 16t-34 5.5q-29 0 -58 -9t-55 -22q-11 -6 -23.5 -2t-18.5 15l-13 26q-6 12 -2 24.5t15 18.5q35 20 75.5 31.5t91.5 11.5
q85 0 125.5 -36t40.5 -122v-330q0 -13 -9 -22t-22 -9h-27q-14 0 -25 8t-15 22zM159 148q0 -44 14 -61t46 -17q29 0 50 13.5t36 28.5v128h-18q-41 0 -66 -5.5t-39 -16.5t-18.5 -28.5t-4.5 -41.5zM333 588q-7 -11 -19.5 -15t-24.5 2l-155 75q-11 6 -15 18t2 23l26 46
q6 11 18 14t22 -5l143 -102q11 -8 13.5 -21t-4.5 -24z" />
    <glyph glyph-name="aacute" unicode="&#xe1;" horiz-adv-x="490" 
d="M316 44q-21 -23 -50.5 -40t-71.5 -17q-76 0 -113.5 41.5t-37.5 118.5q0 88 53.5 127.5t172.5 39.5h36v29q0 20 -2 35t-8.5 25.5t-19.5 16t-34 5.5q-29 0 -58 -9t-55 -22q-11 -6 -23.5 -2t-18.5 15l-13 26q-6 12 -2 24.5t15 18.5q35 20 75.5 31.5t91.5 11.5
q85 0 125.5 -36t40.5 -122v-330q0 -13 -9 -22t-22 -9h-27q-14 0 -25 8t-15 22zM159 148q0 -44 14 -61t46 -17q29 0 50 13.5t36 28.5v128h-18q-41 0 -66 -5.5t-39 -16.5t-18.5 -28.5t-4.5 -41.5zM192 575q-12 -6 -24.5 -2t-19.5 15l-6 11q-7 11 -4.5 24t13.5 21l142 102
q10 7 22 4.5t18 -13.5l27 -46q6 -11 2 -23t-15 -18z" />
    <glyph glyph-name="acircumflex" unicode="&#xe2;" horiz-adv-x="490" 
d="M316 44q-21 -23 -50.5 -40t-71.5 -17q-76 0 -113.5 41.5t-37.5 118.5q0 88 53.5 127.5t172.5 39.5h36v29q0 20 -2 35t-8.5 25.5t-19.5 16t-34 5.5q-29 0 -58 -9t-55 -22q-11 -6 -23.5 -2t-18.5 15l-13 26q-6 12 -2 24.5t15 18.5q35 20 75.5 31.5t91.5 11.5
q85 0 125.5 -36t40.5 -122v-330q0 -13 -9 -22t-22 -9h-27q-14 0 -25 8t-15 22zM159 148q0 -44 14 -61t46 -17q29 0 50 13.5t36 28.5v128h-18q-41 0 -66 -5.5t-39 -16.5t-18.5 -28.5t-4.5 -41.5zM151 582q-11 -7 -23.5 -5t-20.5 13l-2 3q-8 11 -7 24.5t10 22.5l82 85
q10 10 24 16t28 6h7q14 0 28 -6t24 -16l81 -85q9 -9 10 -22.5t-7 -24.5l-2 -3q-8 -11 -20.5 -13.5t-23.5 5.5l-95 61z" />
    <glyph glyph-name="atilde" unicode="&#xe3;" horiz-adv-x="490" 
d="M316 44q-21 -23 -50.5 -40t-71.5 -17q-76 0 -113.5 41.5t-37.5 118.5q0 88 53.5 127.5t172.5 39.5h36v29q0 20 -2 35t-8.5 25.5t-19.5 16t-34 5.5q-29 0 -58 -9t-55 -22q-11 -6 -23.5 -2t-18.5 15l-13 26q-6 12 -2 24.5t15 18.5q35 20 75.5 31.5t91.5 11.5
q85 0 125.5 -36t40.5 -122v-330q0 -13 -9 -22t-22 -9h-27q-14 0 -25 8t-15 22zM159 148q0 -44 14 -61t46 -17q29 0 50 13.5t36 28.5v128h-18q-41 0 -66 -5.5t-39 -16.5t-18.5 -28.5t-4.5 -41.5zM181 613q-16 0 -31 -15q-9 -10 -22.5 -11t-24.5 7l-7 4q-11 8 -14 21t4 24
q38 69 96 69q21 0 37 -6t29 -13l25 -12q12 -6 27 -6q17 0 31 15q9 9 22.5 10.5t24.5 -6.5l7 -4q11 -8 14 -21t-4 -24q-38 -69 -96 -69q-21 0 -37 6t-29 12l-25 13q-12 6 -27 6z" />
    <glyph glyph-name="adieresis" unicode="&#xe4;" horiz-adv-x="490" 
d="M316 44q-21 -23 -50.5 -40t-71.5 -17q-76 0 -113.5 41.5t-37.5 118.5q0 88 53.5 127.5t172.5 39.5h36v29q0 20 -2 35t-8.5 25.5t-19.5 16t-34 5.5q-29 0 -58 -9t-55 -22q-11 -6 -23.5 -2t-18.5 15l-13 26q-6 12 -2 24.5t15 18.5q35 20 75.5 31.5t91.5 11.5
q85 0 125.5 -36t40.5 -122v-330q0 -13 -9 -22t-22 -9h-27q-14 0 -25 8t-15 22zM159 148q0 -44 14 -61t46 -17q29 0 50 13.5t36 28.5v128h-18q-41 0 -66 -5.5t-39 -16.5t-18.5 -28.5t-4.5 -41.5zM213 634q0 -29 -20.5 -48.5t-46.5 -19.5q-27 0 -47.5 19.5t-20.5 48.5t20 48.5
t47 19.5t47.5 -19.5t20.5 -48.5zM415 634q0 -29 -20.5 -48.5t-46.5 -19.5q-27 0 -47.5 19.5t-20.5 48.5t20 48.5t47 19.5t47.5 -19.5t20.5 -48.5z" />
    <glyph glyph-name="aring" unicode="&#xe5;" horiz-adv-x="490" 
d="M316 44q-21 -23 -50.5 -40t-71.5 -17q-76 0 -113.5 41.5t-37.5 118.5q0 88 53.5 127.5t172.5 39.5h36v29q0 20 -2 35t-8.5 25.5t-19.5 16t-34 5.5q-29 0 -58 -9t-55 -22q-11 -6 -23.5 -2t-18.5 15l-13 26q-6 12 -2 24.5t15 18.5q35 20 75.5 31.5t91.5 11.5
q85 0 125.5 -36t40.5 -122v-330q0 -13 -9 -22t-22 -9h-27q-14 0 -25 8t-15 22zM159 148q0 -44 14 -61t46 -17q29 0 50 13.5t36 28.5v128h-18q-41 0 -66 -5.5t-39 -16.5t-18.5 -28.5t-4.5 -41.5zM354 671q0 -45 -28.5 -77t-77.5 -32q-48 0 -76.5 32t-28.5 77q0 46 28.5 78
t76.5 32q49 0 77.5 -32t28.5 -78zM209 671q0 -27 9 -41t30 -14q22 0 31 14t9 41q0 28 -9 41.5t-31 13.5q-21 0 -30 -13.5t-9 -41.5z" />
    <glyph glyph-name="ae" unicode="&#xe6;" horiz-adv-x="748" 
d="M355 69q-29 -36 -69.5 -59t-89.5 -23q-78 0 -115.5 41.5t-37.5 116.5q0 85 53.5 124t172.5 39h36v35q0 20 -2 35t-8.5 25.5t-19.5 16t-34 5.5q-29 0 -58 -9t-55 -22q-11 -6 -23.5 -2t-18.5 15l-13 26q-6 12 -2 24.5t15 18.5q35 20 75.5 31.5t91.5 11.5q88 0 121 -52
q46 52 129 52q103 0 152 -61t49 -200v-16q0 -14 -14 -14h-270q1 -46 7 -75t18.5 -46t32 -23.5t46.5 -6.5q29 0 51 7t41 19q11 7 23.5 4.5t20.5 -13.5l16 -24q8 -11 5.5 -23t-13.5 -20q-29 -19 -63.5 -29.5t-79.5 -10.5q-65 0 -105.5 20.5t-64.5 61.5zM159 145
q0 -42 14 -58.5t46 -16.5q26 0 46.5 11.5t39.5 30.5v120h-18q-41 0 -66 -5t-39 -15.5t-18.5 -27t-4.5 -39.5zM587 308q0 35 -4 59t-13.5 39t-25 21.5t-39.5 6.5q-19 0 -33.5 -5.5t-24.5 -19.5t-16.5 -38.5t-8.5 -62.5h165z" />
    <glyph glyph-name="ccedilla" unicode="&#xe7;" horiz-adv-x="437" 
d="M318 -130q0 -18 -5.5 -34t-18 -28t-33 -19t-50.5 -7q-28 0 -56 10q-11 4 -16 14t0 22q4 12 15.5 17t22.5 2q7 -2 14 -3t15 -1q38 0 38 31q0 17 -9 24t-30 7q-6 0 -11 -0.5t-10 -0.5q-6 -2 -10 3t-2 11l22 76q-148 33 -148 260q0 71 13.5 121.5t40 82.5t64.5 46.5t88 14.5
q38 0 68.5 -9t57.5 -29q11 -8 12.5 -20.5t-6.5 -22.5l-20 -26q-8 -11 -20.5 -12.5t-23.5 6.5q-14 10 -28.5 15t-34.5 5q-24 0 -41 -6.5t-27.5 -25t-15.5 -51.5t-5 -87q0 -53 5 -87.5t16 -54t29 -27t44 -7.5q21 0 36 6t28 16q11 8 23.5 6t20.5 -12l19 -26q8 -11 6 -23
t-12 -20q-25 -19 -55.5 -29t-70.5 -11q0 -2 -0.5 -3t-0.5 -3l-10 -29q38 -5 55 -26.5t17 -55.5z" />
    <glyph glyph-name="egrave" unicode="&#xe8;" horiz-adv-x="497" 
d="M416 27q-29 -19 -64 -29.5t-80 -10.5q-57 0 -99 15t-70.5 47t-42.5 83t-14 122q0 72 14 122.5t40.5 82t64.5 46t86 14.5q102 0 151 -61t49 -200v-19q0 -8 -5 -13t-12 -5h-267q1 -44 7.5 -71.5t19 -43t31.5 -21.5t46 -6q29 0 50.5 7.5t40.5 19.5q11 7 23.5 4.5t19.5 -13.5
l19 -27q8 -11 5.5 -23t-13.5 -20zM334 302q-1 73 -18 102.5t-64 29.5q-19 0 -33.5 -5.5t-25 -20.5t-17 -40.5t-8.5 -65.5h166zM349 588q-7 -11 -19.5 -15t-24.5 2l-155 75q-11 6 -15 18t2 23l26 46q6 11 18 14t22 -5l143 -102q11 -8 13.5 -21t-4.5 -24z" />
    <glyph glyph-name="eacute" unicode="&#xe9;" horiz-adv-x="497" 
d="M416 27q-29 -19 -64 -29.5t-80 -10.5q-57 0 -99 15t-70.5 47t-42.5 83t-14 122q0 72 14 122.5t40.5 82t64.5 46t86 14.5q102 0 151 -61t49 -200v-19q0 -8 -5 -13t-12 -5h-267q1 -44 7.5 -71.5t19 -43t31.5 -21.5t46 -6q29 0 50.5 7.5t40.5 19.5q11 7 23.5 4.5t19.5 -13.5
l19 -27q8 -11 5.5 -23t-13.5 -20zM334 302q-1 73 -18 102.5t-64 29.5q-19 0 -33.5 -5.5t-25 -20.5t-17 -40.5t-8.5 -65.5h166zM204 575q-12 -6 -24.5 -2t-19.5 15l-6 11q-7 11 -4.5 24t13.5 21l142 102q10 7 22 4.5t18 -13.5l27 -46q6 -11 2 -23t-15 -18z" />
    <glyph glyph-name="ecircumflex" unicode="&#xea;" horiz-adv-x="497" 
d="M416 27q-29 -19 -64 -29.5t-80 -10.5q-57 0 -99 15t-70.5 47t-42.5 83t-14 122q0 72 14 122.5t40.5 82t64.5 46t86 14.5q102 0 151 -61t49 -200v-19q0 -8 -5 -13t-12 -5h-267q1 -44 7.5 -71.5t19 -43t31.5 -21.5t46 -6q29 0 50.5 7.5t40.5 19.5q11 7 23.5 4.5t19.5 -13.5
l19 -27q8 -11 5.5 -23t-13.5 -20zM334 302q-1 73 -18 102.5t-64 29.5q-19 0 -33.5 -5.5t-25 -20.5t-17 -40.5t-8.5 -65.5h166zM157 582q-11 -7 -23.5 -5t-20.5 13l-2 3q-8 11 -7 24.5t10 22.5l82 85q10 10 24 16t28 6h7q14 0 28 -6t24 -16l81 -85q9 -9 10 -22.5t-7 -24.5
l-2 -3q-8 -11 -20.5 -13.5t-23.5 5.5l-95 61z" />
    <glyph glyph-name="edieresis" unicode="&#xeb;" horiz-adv-x="497" 
d="M416 27q-29 -19 -64 -29.5t-80 -10.5q-57 0 -99 15t-70.5 47t-42.5 83t-14 122q0 72 14 122.5t40.5 82t64.5 46t86 14.5q102 0 151 -61t49 -200v-19q0 -8 -5 -13t-12 -5h-267q1 -44 7.5 -71.5t19 -43t31.5 -21.5t46 -6q29 0 50.5 7.5t40.5 19.5q11 7 23.5 4.5t19.5 -13.5
l19 -27q8 -11 5.5 -23t-13.5 -20zM334 302q-1 73 -18 102.5t-64 29.5q-19 0 -33.5 -5.5t-25 -20.5t-17 -40.5t-8.5 -65.5h166zM218 634q0 -29 -20.5 -48.5t-46.5 -19.5q-27 0 -47.5 19.5t-20.5 48.5t20 48.5t47 19.5t47.5 -19.5t20.5 -48.5zM420 634q0 -29 -20.5 -48.5
t-46.5 -19.5q-27 0 -47.5 19.5t-20.5 48.5t20 48.5t47 19.5t47.5 -19.5t20.5 -48.5z" />
    <glyph glyph-name="igrave" unicode="&#xec;" horiz-adv-x="293" 
d="M133 0q-13 0 -22 9t-9 22v389l-36 6q-13 3 -21.5 13t-8.5 24v12q0 13 9 22t22 9h117q13 0 22 -9t9 -22v-444q0 -13 -9 -22t-22 -9h-51zM208 588q-7 -11 -19.5 -15t-24.5 2l-155 75q-11 6 -15 18t2 23l26 46q6 11 18 14t22 -5l143 -102q11 -8 13.5 -21t-4.5 -24z" />
    <glyph glyph-name="iacute" unicode="&#xed;" horiz-adv-x="293" 
d="M133 0q-13 0 -22 9t-9 22v389l-36 6q-13 3 -21.5 13t-8.5 24v12q0 13 9 22t22 9h117q13 0 22 -9t9 -22v-444q0 -13 -9 -22t-22 -9h-51zM137 575q-12 -6 -24.5 -2t-19.5 15l-6 11q-7 11 -4.5 24t13.5 21l142 102q10 7 22 4.5t18 -13.5l27 -46q6 -11 2 -23t-15 -18z" />
    <glyph glyph-name="icircumflex" unicode="&#xee;" horiz-adv-x="293" 
d="M133 0q-13 0 -22 9t-9 22v389l-36 6q-13 3 -21.5 13t-8.5 24v12q0 13 9 22t22 9h117q13 0 22 -9t9 -22v-444q0 -13 -9 -22t-22 -9h-51zM48 582q-11 -7 -23.5 -5t-20.5 13l-2 3q-8 11 -7 24.5t10 22.5l82 85q10 10 24 16t28 6h7q14 0 28 -6t24 -16l81 -85q9 -9 10 -22.5
t-7 -24.5l-2 -3q-8 -11 -20.5 -13.5t-23.5 5.5l-95 61z" />
    <glyph glyph-name="idieresis" unicode="&#xef;" horiz-adv-x="293" 
d="M133 0q-13 0 -22 9t-9 22v389l-36 6q-13 3 -21.5 13t-8.5 24v12q0 13 9 22t22 9h117q13 0 22 -9t9 -22v-444q0 -13 -9 -22t-22 -9h-51zM112 634q0 -29 -20.5 -48.5t-46.5 -19.5q-27 0 -47.5 19.5t-20.5 48.5t20 48.5t47 19.5t47.5 -19.5t20.5 -48.5zM314 634
q0 -29 -20.5 -48.5t-46.5 -19.5q-27 0 -47.5 19.5t-20.5 48.5t20 48.5t47 19.5t47.5 -19.5t20.5 -48.5z" />
    <glyph glyph-name="eth" unicode="&#xf0;" horiz-adv-x="518" 
d="M184 537q-11 -5 -23.5 -0.5t-17.5 15.5l-3 8q-5 11 -0.5 23.5t15.5 17.5l49 21q-25 19 -53 35q-11 6 -14.5 18.5t3.5 23.5l9 17q6 11 19 14.5t24 -1.5q30 -15 57 -31t51 -34l75 33q11 5 23.5 0t17.5 -16l3 -7q5 -11 0.5 -23t-15.5 -17l-47 -21q57 -61 86.5 -143
t29.5 -193q0 -80 -15 -135.5t-43 -90t-67.5 -49.5t-88.5 -15t-88.5 15t-67.5 47t-43 81t-15 118q0 68 15 115.5t40.5 77t60 43t73.5 13.5q32 0 55 -9t40 -26q-23 62 -67 109zM167 246q0 -49 5 -82t16.5 -53.5t29 -29t41.5 -8.5q49 0 71 38.5t22 136.5q0 92 -22.5 127.5
t-71.5 35.5q-26 0 -43.5 -7.5t-28 -26.5t-15 -50.5t-4.5 -80.5z" />
    <glyph glyph-name="ntilde" unicode="&#xf1;" horiz-adv-x="524" 
d="M105 0q-13 0 -22 9t-9 22v444q0 13 9 22t22 9h29q14 0 24.5 -8.5t13.5 -21.5l5 -25q31 30 66.5 49t82.5 19q60 0 93.5 -30t33.5 -102v-356q0 -13 -9 -22t-22 -9h-52q-13 0 -22 9t-9 22v327q0 40 -13 53t-41 13q-27 0 -51 -12.5t-46 -32.5v-348q0 -13 -9 -22t-22 -9h-52z
M202 613q-16 0 -31 -15q-9 -10 -22.5 -11t-24.5 7l-7 4q-11 8 -14 21t4 24q38 69 96 69q21 0 37 -6t29 -13l25 -12q12 -6 27 -6q17 0 31 15q9 9 22.5 10.5t24.5 -6.5l7 -4q11 -8 14 -21t-4 -24q-38 -69 -96 -69q-21 0 -37 6t-29 12l-25 13q-12 6 -27 6z" />
    <glyph glyph-name="ograve" unicode="&#xf2;" horiz-adv-x="518" 
d="M472 253q0 -71 -15 -121.5t-42.5 -82.5t-67 -47t-88.5 -15t-88.5 15t-67 47t-42.5 83t-15 122q0 72 14.5 122t42 82t67 46.5t88.5 14.5t88.5 -15t67.5 -47t43 -82.5t15 -121.5zM167 253q0 -54 5 -88.5t16 -55t28.5 -28.5t42.5 -8t42 8t28 28.5t16 55.5t5 89t-5 89t-16 55
t-28.5 27.5t-42.5 7.5t-42 -7.5t-28 -28t-16 -55.5t-5 -89zM339 588q-7 -11 -19.5 -15t-24.5 2l-155 75q-11 6 -15 18t2 23l26 46q6 11 18 14t22 -5l143 -102q11 -8 13.5 -21t-4.5 -24z" />
    <glyph glyph-name="oacute" unicode="&#xf3;" horiz-adv-x="518" 
d="M472 253q0 -71 -15 -121.5t-42.5 -82.5t-67 -47t-88.5 -15t-88.5 15t-67 47t-42.5 83t-15 122q0 72 14.5 122t42 82t67 46.5t88.5 14.5t88.5 -15t67.5 -47t43 -82.5t15 -121.5zM167 253q0 -54 5 -88.5t16 -55t28.5 -28.5t42.5 -8t42 8t28 28.5t16 55.5t5 89t-5 89t-16 55
t-28.5 27.5t-42.5 7.5t-42 -7.5t-28 -28t-16 -55.5t-5 -89zM222 575q-12 -6 -24.5 -2t-19.5 15l-6 11q-7 11 -4.5 24t13.5 21l142 102q10 7 22 4.5t18 -13.5l27 -46q6 -11 2 -23t-15 -18z" />
    <glyph glyph-name="ocircumflex" unicode="&#xf4;" horiz-adv-x="518" 
d="M472 253q0 -71 -15 -121.5t-42.5 -82.5t-67 -47t-88.5 -15t-88.5 15t-67 47t-42.5 83t-15 122q0 72 14.5 122t42 82t67 46.5t88.5 14.5t88.5 -15t67.5 -47t43 -82.5t15 -121.5zM167 253q0 -54 5 -88.5t16 -55t28.5 -28.5t42.5 -8t42 8t28 28.5t16 55.5t5 89t-5 89t-16 55
t-28.5 27.5t-42.5 7.5t-42 -7.5t-28 -28t-16 -55.5t-5 -89zM164 582q-11 -7 -23.5 -5t-20.5 13l-2 3q-8 11 -7 24.5t10 22.5l82 85q10 10 24 16t28 6h7q14 0 28 -6t24 -16l81 -85q9 -9 10 -22.5t-7 -24.5l-2 -3q-8 -11 -20.5 -13.5t-23.5 5.5l-95 61z" />
    <glyph glyph-name="otilde" unicode="&#xf5;" horiz-adv-x="518" 
d="M472 253q0 -71 -15 -121.5t-42.5 -82.5t-67 -47t-88.5 -15t-88.5 15t-67 47t-42.5 83t-15 122q0 72 14.5 122t42 82t67 46.5t88.5 14.5t88.5 -15t67.5 -47t43 -82.5t15 -121.5zM167 253q0 -54 5 -88.5t16 -55t28.5 -28.5t42.5 -8t42 8t28 28.5t16 55.5t5 89t-5 89t-16 55
t-28.5 27.5t-42.5 7.5t-42 -7.5t-28 -28t-16 -55.5t-5 -89zM200 613q-16 0 -31 -15q-9 -10 -22.5 -11t-24.5 7l-7 4q-11 8 -14 21t4 24q38 69 96 69q21 0 37 -6t29 -13l25 -12q12 -6 27 -6q17 0 31 15q9 9 22.5 10.5t24.5 -6.5l7 -4q11 -8 14 -21t-4 -24q-38 -69 -96 -69
q-21 0 -37 6t-29 12l-25 13q-12 6 -27 6z" />
    <glyph glyph-name="odieresis" unicode="&#xf6;" horiz-adv-x="518" 
d="M472 253q0 -71 -15 -121.5t-42.5 -82.5t-67 -47t-88.5 -15t-88.5 15t-67 47t-42.5 83t-15 122q0 72 14.5 122t42 82t67 46.5t88.5 14.5t88.5 -15t67.5 -47t43 -82.5t15 -121.5zM167 253q0 -54 5 -88.5t16 -55t28.5 -28.5t42.5 -8t42 8t28 28.5t16 55.5t5 89t-5 89t-16 55
t-28.5 27.5t-42.5 7.5t-42 -7.5t-28 -28t-16 -55.5t-5 -89zM224 634q0 -29 -20.5 -48.5t-46.5 -19.5q-27 0 -47.5 19.5t-20.5 48.5t20 48.5t47 19.5t47.5 -19.5t20.5 -48.5zM427 634q0 -29 -20.5 -48.5t-46.5 -19.5q-27 0 -47.5 19.5t-20.5 48.5t20 48.5t47 19.5t47.5 -19.5
t20.5 -48.5z" />
    <glyph glyph-name="divide" unicode="&#xf7;" 
d="M351 522q0 -32 -22.5 -55t-54.5 -23q-16 0 -30 6t-24.5 16.5t-16.5 25t-6 30.5q0 32 22.5 54.5t54.5 22.5t54.5 -22.5t22.5 -54.5zM93 273q-13 0 -22 9t-9 22v42q0 13 9 22t22 9h363q13 0 22 -9t9 -22v-42q0 -13 -9 -22t-22 -9h-363zM351 129q0 -32 -22.5 -55t-54.5 -23
q-16 0 -30 6t-24.5 16.5t-16.5 25t-6 30.5t6 30.5t16.5 25t24.5 16.5t30 6q32 0 54.5 -23t22.5 -55z" />
    <glyph glyph-name="oslash" unicode="&#xf8;" horiz-adv-x="518" 
d="M130 -51q-6 -11 -18.5 -14.5t-23.5 3.5l-14 8q-11 7 -14.5 19.5t2.5 23.5l37 65q-26 32 -39.5 81.5t-13.5 118.5q0 72 14.5 122t42 82t67 46.5t88.5 14.5q54 0 96 -18l34 58q6 11 18.5 14.5t23.5 -3.5l14 -8q11 -7 14.5 -19.5t-2.5 -23.5l-38 -67q26 -32 40 -81t14 -118
q0 -71 -15 -121.5t-42.5 -82.5t-67 -47t-88.5 -15q-55 0 -97 18zM208 86q10 -8 22.5 -10.5t28.5 -2.5q25 0 42 8t28 28.5t16 55.5t5 89q0 44 -3 74zM258 433q-25 0 -42 -7.5t-28 -28t-16 -55.5t-5 -89q0 -23 0.5 -41t2.5 -34l138 242q-19 13 -50 13z" />
    <glyph glyph-name="ugrave" unicode="&#xf9;" horiz-adv-x="526" 
d="M348 56q-30 -30 -62.5 -49.5t-80.5 -19.5q-58 0 -96.5 33.5t-38.5 104.5v350q0 13 9 22t22 9h52q13 0 22 -9t9 -22v-323q0 -41 14.5 -55.5t42.5 -14.5q26 0 50 13t47 33v347q0 13 9 22t22 9h51q13 0 22 -9t9 -22v-444q0 -13 -9 -22t-22 -9h-29q-14 0 -24.5 8.5
t-12.5 21.5zM340 588q-7 -11 -19.5 -15t-24.5 2l-155 75q-11 6 -15 18t2 23l26 46q6 11 18 14t22 -5l143 -102q11 -8 13.5 -21t-4.5 -24z" />
    <glyph glyph-name="uacute" unicode="&#xfa;" horiz-adv-x="526" 
d="M348 56q-30 -30 -62.5 -49.5t-80.5 -19.5q-58 0 -96.5 33.5t-38.5 104.5v350q0 13 9 22t22 9h52q13 0 22 -9t9 -22v-323q0 -41 14.5 -55.5t42.5 -14.5q26 0 50 13t47 33v347q0 13 9 22t22 9h51q13 0 22 -9t9 -22v-444q0 -13 -9 -22t-22 -9h-29q-14 0 -24.5 8.5
t-12.5 21.5zM226 575q-12 -6 -24.5 -2t-19.5 15l-6 11q-7 11 -4.5 24t13.5 21l142 102q10 7 22 4.5t18 -13.5l27 -46q6 -11 2 -23t-15 -18z" />
    <glyph glyph-name="ucircumflex" unicode="&#xfb;" horiz-adv-x="526" 
d="M348 56q-30 -30 -62.5 -49.5t-80.5 -19.5q-58 0 -96.5 33.5t-38.5 104.5v350q0 13 9 22t22 9h52q13 0 22 -9t9 -22v-323q0 -41 14.5 -55.5t42.5 -14.5q26 0 50 13t47 33v347q0 13 9 22t22 9h51q13 0 22 -9t9 -22v-444q0 -13 -9 -22t-22 -9h-29q-14 0 -24.5 8.5
t-12.5 21.5zM168 582q-11 -7 -23.5 -5t-20.5 13l-2 3q-8 11 -7 24.5t10 22.5l82 85q10 10 24 16t28 6h7q14 0 28 -6t24 -16l81 -85q9 -9 10 -22.5t-7 -24.5l-2 -3q-8 -11 -20.5 -13.5t-23.5 5.5l-95 61z" />
    <glyph glyph-name="udieresis" unicode="&#xfc;" horiz-adv-x="526" 
d="M348 56q-30 -30 -62.5 -49.5t-80.5 -19.5q-58 0 -96.5 33.5t-38.5 104.5v350q0 13 9 22t22 9h52q13 0 22 -9t9 -22v-323q0 -41 14.5 -55.5t42.5 -14.5q26 0 50 13t47 33v347q0 13 9 22t22 9h51q13 0 22 -9t9 -22v-444q0 -13 -9 -22t-22 -9h-29q-14 0 -24.5 8.5
t-12.5 21.5zM227 634q0 -29 -20.5 -48.5t-46.5 -19.5q-27 0 -47.5 19.5t-20.5 48.5t20 48.5t47 19.5t47.5 -19.5t20.5 -48.5zM430 634q0 -29 -20.5 -48.5t-46.5 -19.5q-27 0 -47.5 19.5t-20.5 48.5t20 48.5t47 19.5t47.5 -19.5t20.5 -48.5z" />
    <glyph glyph-name="yacute" unicode="&#xfd;" horiz-adv-x="484" 
d="M303 -11q-16 -51 -33 -84t-38 -54t-49 -32.5t-66 -19.5q-13 -2 -24 5t-15 19l-8 33q-3 12 3.5 23.5t18.5 14.5q24 6 41 14t29.5 20t22.5 29.5t19 42.5h-1q-12 0 -21.5 7.5t-13.5 18.5l-138 450q-3 11 3.5 20.5t18.5 9.5h59q14 0 24.5 -8.5t14.5 -21.5l65 -248
q11 -40 17 -70.5t10 -57.5h1q5 26 10.5 58.5t16.5 70.5l67 247q4 14 14.5 22t24.5 8h56q12 0 18.5 -9.5t3.5 -20.5zM217 575q-12 -6 -24.5 -2t-19.5 15l-6 11q-7 11 -4.5 24t13.5 21l142 102q10 7 22 4.5t18 -13.5l27 -46q6 -11 2 -23t-15 -18z" />
    <glyph glyph-name="thorn" unicode="&#xfe;" horiz-adv-x="531" 
d="M105 -197q-13 0 -22 9t-9 22v863q0 13 9 22t22 9h52q13 0 22 -9t9 -22v-235q21 23 53.5 40t71.5 17q38 0 69.5 -12t54 -41.5t35 -79.5t12.5 -126q0 -75 -10.5 -127.5t-31.5 -84.5t-53.5 -46.5t-75.5 -14.5q-41 0 -72.5 15.5t-52.5 35.5v-204q0 -13 -9 -22t-22 -9h-52z
M188 119q17 -16 39.5 -27t48.5 -11q24 0 40.5 6.5t26.5 25t14.5 52.5t4.5 89q0 54 -4 87.5t-13 52t-24.5 25.5t-37.5 7q-31 0 -53 -12.5t-42 -32.5v-262z" />
    <glyph glyph-name="ydieresis" unicode="&#xff;" horiz-adv-x="484" 
d="M303 -11q-16 -51 -33 -84t-38 -54t-49 -32.5t-66 -19.5q-13 -2 -24 5t-15 19l-8 33q-3 12 3.5 23.5t18.5 14.5q24 6 41 14t29.5 20t22.5 29.5t19 42.5h-1q-12 0 -21.5 7.5t-13.5 18.5l-138 450q-3 11 3.5 20.5t18.5 9.5h59q14 0 24.5 -8.5t14.5 -21.5l65 -248
q11 -40 17 -70.5t10 -57.5h1q5 26 10.5 58.5t16.5 70.5l67 247q4 14 14.5 22t24.5 8h56q12 0 18.5 -9.5t3.5 -20.5zM211 634q0 -29 -20.5 -48.5t-46.5 -19.5q-27 0 -47.5 19.5t-20.5 48.5t20 48.5t47 19.5t47.5 -19.5t20.5 -48.5zM413 634q0 -29 -20.5 -48.5t-46.5 -19.5
q-27 0 -47.5 19.5t-20.5 48.5t20 48.5t47 19.5t47.5 -19.5t20.5 -48.5z" />
    <glyph glyph-name="Amacron" unicode="&#x100;" horiz-adv-x="576" 
d="M53 0q-12 0 -19 9.5t-3 20.5l188 632q4 14 15 22t25 8h66q14 0 25 -8t14 -22l181 -632q3 -11 -4 -20.5t-19 -9.5h-68q-14 0 -24.5 8.5t-14.5 21.5l-36 141h-188l-38 -141q-4 -14 -14.5 -22t-24.5 -8h-61zM287 556q-3 -17 -6 -34.5t-7 -37.5t-10 -44.5t-15 -55.5l-32 -118
h138l-30 118q-8 32 -14 56.5t-10 45t-6.5 37t-5.5 33.5h-2zM184 741q-13 0 -22 9t-9 22v29q0 13 9 22t22 9h204q13 0 22 -9t9 -22v-29q0 -13 -9 -22t-22 -9h-204z" />
    <glyph glyph-name="amacron" unicode="&#x101;" horiz-adv-x="490" 
d="M316 44q-21 -23 -50.5 -40t-71.5 -17q-76 0 -113.5 41.5t-37.5 118.5q0 88 53.5 127.5t172.5 39.5h36v29q0 20 -2 35t-8.5 25.5t-19.5 16t-34 5.5q-29 0 -58 -9t-55 -22q-11 -6 -23.5 -2t-18.5 15l-13 26q-6 12 -2 24.5t15 18.5q35 20 75.5 31.5t91.5 11.5
q85 0 125.5 -36t40.5 -122v-330q0 -13 -9 -22t-22 -9h-27q-14 0 -25 8t-15 22zM159 148q0 -44 14 -61t46 -17q29 0 50 13.5t36 28.5v128h-18q-41 0 -66 -5.5t-39 -16.5t-18.5 -28.5t-4.5 -41.5zM142 567q-13 0 -22 9t-9 22v29q0 13 9 22t22 9h204q13 0 22 -9t9 -22v-29
q0 -13 -9 -22t-22 -9h-204z" />
    <glyph glyph-name="Abreve" unicode="&#x102;" horiz-adv-x="576" 
d="M53 0q-12 0 -19 9.5t-3 20.5l188 632q4 14 15 22t25 8h66q14 0 25 -8t14 -22l181 -632q3 -11 -4 -20.5t-19 -9.5h-68q-14 0 -24.5 8.5t-14.5 21.5l-36 141h-188l-38 -141q-4 -14 -14.5 -22t-24.5 -8h-61zM287 556q-3 -17 -6 -34.5t-7 -37.5t-10 -44.5t-15 -55.5l-32 -118
h138l-30 118q-8 32 -14 56.5t-10 45t-6.5 37t-5.5 33.5h-2zM431 876q-7 -21 -20 -40t-31 -34t-41.5 -24t-52.5 -9t-53 9t-42 24.5t-31 35t-20 40.5q-4 11 2.5 22.5t18.5 13.5l13 3q14 3 27 -2.5t20 -17.5q10 -17 25 -25t40 -8t40 8t25 25q7 12 20 17.5t27 1.5l13 -3
q13 -3 19 -14t1 -23z" />
    <glyph glyph-name="abreve" unicode="&#x103;" horiz-adv-x="490" 
d="M316 44q-21 -23 -50.5 -40t-71.5 -17q-76 0 -113.5 41.5t-37.5 118.5q0 88 53.5 127.5t172.5 39.5h36v29q0 20 -2 35t-8.5 25.5t-19.5 16t-34 5.5q-29 0 -58 -9t-55 -22q-11 -6 -23.5 -2t-18.5 15l-13 26q-6 12 -2 24.5t15 18.5q35 20 75.5 31.5t91.5 11.5
q85 0 125.5 -36t40.5 -122v-330q0 -13 -9 -22t-22 -9h-27q-14 0 -25 8t-15 22zM159 148q0 -44 14 -61t46 -17q29 0 50 13.5t36 28.5v128h-18q-41 0 -66 -5.5t-39 -16.5t-18.5 -28.5t-4.5 -41.5zM389 702q-7 -21 -20 -40t-31 -34t-41.5 -24t-52.5 -9t-53 9t-42 24.5t-31 35
t-20 40.5q-4 11 2.5 22.5t18.5 13.5l13 3q14 3 27 -2.5t20 -17.5q10 -17 25 -25t40 -8t40 8t25 25q7 12 20 17.5t27 1.5l13 -3q13 -3 19 -14t1 -23z" />
    <glyph glyph-name="Aogonek" unicode="&#x104;" horiz-adv-x="576" 
d="M516 -206q-12 -5 -27 -8.5t-34 -3.5q-51 0 -74.5 25.5t-23.5 60.5q0 40 20.5 74.5t45.5 57.5l-44 171h-188l-38 -141q-4 -14 -14.5 -22t-24.5 -8h-61q-12 0 -19 9.5t-3 20.5l188 632q4 14 15 22t25 8h66q14 0 25 -8t14 -22l181 -632q3 -11 -4 -20.5t-19 -9.5h-26
q-27 -32 -44.5 -64t-17.5 -59q0 -30 30 -30q8 0 15 1t13 3q11 4 21.5 -1t15.5 -15l2 -4q5 -11 0.5 -22t-15.5 -15zM287 556q-3 -17 -6 -34.5t-7 -37.5t-10 -44.5t-15 -55.5l-32 -118h138l-30 118q-8 32 -14 56.5t-10 45t-6.5 37t-5.5 33.5h-2z" />
    <glyph glyph-name="aogonek" unicode="&#x105;" horiz-adv-x="490" 
d="M423 -206q-12 -5 -27 -8.5t-34 -3.5q-51 0 -74.5 25.5t-23.5 60.5q0 40 20.5 74.5t45.5 57.5l-14 44q-21 -23 -50.5 -40t-71.5 -17q-76 0 -113.5 41.5t-37.5 118.5q0 88 53.5 127.5t172.5 39.5h36v29q0 20 -2 35t-8.5 25.5t-19.5 16t-34 5.5q-29 0 -58 -9t-55 -22
q-11 -6 -23.5 -2t-18.5 15l-13 26q-6 12 -2 24.5t15 18.5q35 20 75.5 31.5t91.5 11.5q85 0 125.5 -36t40.5 -122v-346q0 -6 -4.5 -10.5t-10.5 -4.5h-1q-27 -32 -44.5 -64t-17.5 -59q0 -30 30 -30q8 0 15 1t13 3q11 4 21.5 -1t15.5 -15l2 -4q5 -11 0.5 -22t-15.5 -15z
M159 148q0 -44 14 -61t46 -17q29 0 50 13.5t36 28.5v128h-18q-41 0 -66 -5.5t-39 -16.5t-18.5 -28.5t-4.5 -41.5z" />
    <glyph glyph-name="Cacute" unicode="&#x106;" horiz-adv-x="547" 
d="M486 33q-30 -20 -68 -33t-88 -13q-142 0 -208 88t-66 269q0 184 67 272.5t205 88.5q88 0 147 -36q11 -7 14 -19t-3 -23l-22 -38q-6 -11 -18 -14.5t-23 3.5q-41 25 -91 25q-43 0 -71 -13t-44 -43t-22 -78t-6 -118q0 -73 7 -123t24 -81t44.5 -44.5t69.5 -13.5q30 0 54 8.5
t44 22.5q11 7 23 4.5t19 -13.5l22 -35q7 -11 4 -23.5t-14 -19.5zM255 749q-12 -6 -24.5 -2t-19.5 15l-6 11q-7 11 -4.5 24t13.5 21l142 102q10 7 22 4.5t18 -13.5l27 -46q6 -11 2 -23t-15 -18z" />
    <glyph glyph-name="cacute" unicode="&#x107;" horiz-adv-x="437" 
d="M383 27q-25 -19 -56 -29.5t-72 -10.5q-105 0 -157 65t-52 202q0 71 13.5 121.5t40 82.5t64.5 46.5t88 14.5q38 0 68.5 -9t57.5 -29q11 -8 12.5 -20.5t-6.5 -22.5l-20 -26q-8 -11 -20.5 -12.5t-23.5 6.5q-14 10 -28.5 15t-34.5 5q-24 0 -41 -6.5t-27.5 -25t-15.5 -51.5
t-5 -87q0 -53 5 -87.5t16 -54t29 -27t44 -7.5q21 0 36 6t28 16q11 8 23.5 6t20.5 -12l19 -26q8 -11 6 -23t-12 -20zM179 575q-12 -6 -24.5 -2t-19.5 15l-6 11q-7 11 -4.5 24t13.5 21l142 102q10 7 22 4.5t18 -13.5l27 -46q6 -11 2 -23t-15 -18z" />
    <glyph glyph-name="Ccircumflex" unicode="&#x108;" horiz-adv-x="547" 
d="M486 33q-30 -20 -68 -33t-88 -13q-142 0 -208 88t-66 269q0 184 67 272.5t205 88.5q88 0 147 -36q11 -7 14 -19t-3 -23l-22 -38q-6 -11 -18 -14.5t-23 3.5q-41 25 -91 25q-43 0 -71 -13t-44 -43t-22 -78t-6 -118q0 -73 7 -123t24 -81t44.5 -44.5t69.5 -13.5q30 0 54 8.5
t44 22.5q11 7 23 4.5t19 -13.5l22 -35q7 -11 4 -23.5t-14 -19.5zM218 756q-11 -7 -23.5 -5t-20.5 13l-2 3q-8 11 -7 24.5t10 22.5l82 85q10 10 24 16t28 6h7q14 0 28 -6t24 -16l81 -85q9 -9 10 -22.5t-7 -24.5l-2 -3q-8 -11 -20.5 -13.5t-23.5 5.5l-95 61z" />
    <glyph glyph-name="ccircumflex" unicode="&#x109;" horiz-adv-x="437" 
d="M383 27q-25 -19 -56 -29.5t-72 -10.5q-105 0 -157 65t-52 202q0 71 13.5 121.5t40 82.5t64.5 46.5t88 14.5q38 0 68.5 -9t57.5 -29q11 -8 12.5 -20.5t-6.5 -22.5l-20 -26q-8 -11 -20.5 -12.5t-23.5 6.5q-14 10 -28.5 15t-34.5 5q-24 0 -41 -6.5t-27.5 -25t-15.5 -51.5
t-5 -87q0 -53 5 -87.5t16 -54t29 -27t44 -7.5q21 0 36 6t28 16q11 8 23.5 6t20.5 -12l19 -26q8 -11 6 -23t-12 -20zM142 582q-11 -7 -23.5 -5t-20.5 13l-2 3q-8 11 -7 24.5t10 22.5l82 85q10 10 24 16t28 6h7q14 0 28 -6t24 -16l81 -85q9 -9 10 -22.5t-7 -24.5l-2 -3
q-8 -11 -20.5 -13.5t-23.5 5.5l-95 61z" />
    <glyph glyph-name="Cdotaccent" unicode="&#x10a;" horiz-adv-x="547" 
d="M486 33q-30 -20 -68 -33t-88 -13q-142 0 -208 88t-66 269q0 184 67 272.5t205 88.5q88 0 147 -36q11 -7 14 -19t-3 -23l-22 -38q-6 -11 -18 -14.5t-23 3.5q-41 25 -91 25q-43 0 -71 -13t-44 -43t-22 -78t-6 -118q0 -73 7 -123t24 -81t44.5 -44.5t69.5 -13.5q30 0 54 8.5
t44 22.5q11 7 23 4.5t19 -13.5l22 -35q7 -11 4 -23.5t-14 -19.5zM311 734q-30 0 -51 21t-21 52t21 52.5t52 21.5t52 -21t21 -53q0 -31 -21 -52t-53 -21z" />
    <glyph glyph-name="cdotaccent" unicode="&#x10b;" horiz-adv-x="437" 
d="M383 27q-25 -19 -56 -29.5t-72 -10.5q-105 0 -157 65t-52 202q0 71 13.5 121.5t40 82.5t64.5 46.5t88 14.5q38 0 68.5 -9t57.5 -29q11 -8 12.5 -20.5t-6.5 -22.5l-20 -26q-8 -11 -20.5 -12.5t-23.5 6.5q-14 10 -28.5 15t-34.5 5q-24 0 -41 -6.5t-27.5 -25t-15.5 -51.5
t-5 -87q0 -53 5 -87.5t16 -54t29 -27t44 -7.5q21 0 36 6t28 16q11 8 23.5 6t20.5 -12l19 -26q8 -11 6 -23t-12 -20zM234 582q-30 0 -51 21t-21 52t21 52.5t52 21.5t52 -21t21 -53q0 -31 -21 -52t-53 -21z" />
    <glyph glyph-name="Ccaron" unicode="&#x10c;" horiz-adv-x="547" 
d="M486 33q-30 -20 -68 -33t-88 -13q-142 0 -208 88t-66 269q0 184 67 272.5t205 88.5q88 0 147 -36q11 -7 14 -19t-3 -23l-22 -38q-6 -11 -18 -14.5t-23 3.5q-41 25 -91 25q-43 0 -71 -13t-44 -43t-22 -78t-6 -118q0 -73 7 -123t24 -81t44.5 -44.5t69.5 -13.5q30 0 54 8.5
t44 22.5q11 7 23 4.5t19 -13.5l22 -35q7 -11 4 -23.5t-14 -19.5zM309 743q-14 0 -28 6t-24 16l-81 84q-9 9 -10 22.5t7 24.5l3 4q8 11 20.5 13t23.5 -5l94 -62l93 62q11 7 23.5 5t20.5 -13l2 -4q8 -11 7 -24t-11 -23l-80 -84q-11 -10 -25 -16t-28 -6h-7z" />
    <glyph glyph-name="ccaron" unicode="&#x10d;" horiz-adv-x="437" 
d="M383 27q-25 -19 -56 -29.5t-72 -10.5q-105 0 -157 65t-52 202q0 71 13.5 121.5t40 82.5t64.5 46.5t88 14.5q38 0 68.5 -9t57.5 -29q11 -8 12.5 -20.5t-6.5 -22.5l-20 -26q-8 -11 -20.5 -12.5t-23.5 6.5q-14 10 -28.5 15t-34.5 5q-24 0 -41 -6.5t-27.5 -25t-15.5 -51.5
t-5 -87q0 -53 5 -87.5t16 -54t29 -27t44 -7.5q21 0 36 6t28 16q11 8 23.5 6t20.5 -12l19 -26q8 -11 6 -23t-12 -20zM233 569q-14 0 -28 6t-24 16l-81 84q-9 9 -10 22.5t7 24.5l3 4q8 11 20.5 13t23.5 -5l94 -62l93 62q11 7 23.5 5t20.5 -13l2 -4q8 -11 7 -24t-11 -23
l-80 -84q-11 -10 -25 -16t-28 -6h-7z" />
    <glyph glyph-name="Dcaron" unicode="&#x10e;" horiz-adv-x="607" 
d="M109 0q-13 0 -22 9t-9 22v630q0 13 9 22t22 9h169q68 0 119 -17.5t85 -58t51 -106.5t17 -163q0 -93 -14.5 -158.5t-47 -107.5t-83 -61.5t-122.5 -19.5h-174zM199 103h81q40 0 67 11t43 39.5t22.5 76.5t6.5 122q0 70 -6.5 116t-22.5 73t-43 38t-67 11h-81v-487zM266 743
q-14 0 -28 6t-24 16l-81 84q-9 9 -10 22.5t7 24.5l3 4q8 11 20.5 13t23.5 -5l94 -62l93 62q11 7 23.5 5t20.5 -13l2 -4q8 -11 7 -24t-11 -23l-80 -84q-11 -10 -25 -16t-28 -6h-7z" />
    <glyph glyph-name="dcaron" unicode="&#x10f;" horiz-adv-x="534" 
d="M356 50q-29 -31 -61 -47t-71 -16q-38 0 -70 12t-55 42t-36 80.5t-13 127.5q0 75 10.5 127t31.5 83.5t53 45.5t76 14q41 0 72.5 -17t52.5 -37v232q0 13 9 22t22 9h52q13 0 22 -9t9 -22v-666q0 -13 -9 -22t-22 -9h-29q-14 0 -24.5 8.5t-14.5 21.5zM172 253q0 -54 4 -87.5
t13 -52.5t24 -25.5t37 -6.5q31 0 53.5 10.5t42.5 30.5v262q-17 16 -39.5 29t-49.5 13q-24 0 -40 -6.5t-26 -25.5t-14.5 -53t-4.5 -88zM620 595q-2 -14 -11.5 -22.5t-23.5 -8.5h-26q-13 0 -22 9t-9 22l1 102q0 13 9 22t22 9h47q12 0 20.5 -9.5t6.5 -21.5z" />
    <glyph glyph-name="Dcroat" unicode="&#x110;" horiz-adv-x="608" 
d="M53 292q-13 0 -22 9t-9 22v37q0 13 9 22t22 9h27v270q0 13 9 22t22 9h169q68 0 119 -17.5t85 -58t51 -106.5t17 -163q0 -93 -15 -158.5t-47 -107.5t-82.5 -61.5t-122.5 -19.5h-174q-13 0 -22 9t-9 22v261h-27zM201 103h81q40 0 67 11t43 39.5t22.5 76.5t6.5 122
q0 70 -6.5 116t-22.5 73t-43 38t-68 11h-80v-199h86q13 0 22 -9t9 -22v-37q0 -13 -9 -22t-22 -9h-86v-189z" />
    <glyph glyph-name="dcroat" unicode="&#x111;" horiz-adv-x="534" 
d="M222 576q-13 0 -22 9t-9 22v19q0 13 9 22t22 9h124v40q0 13 9 22t22 9h52q13 0 22 -9t9 -22v-40h19q13 0 22 -9t9 -22v-19q0 -13 -9 -22t-22 -9h-19v-545q0 -13 -9 -22t-22 -9h-29q-14 0 -24.5 8.5t-14.5 21.5l-5 20q-29 -31 -61 -47t-71 -16q-38 0 -70 12t-55 42
t-36 80.5t-13 127.5q0 75 10.5 127t31.5 83.5t53 45.5t76 14q41 0 72.5 -17t52.5 -37v111h-124zM172 253q0 -54 4 -87.5t13 -52.5t24 -25.5t37 -6.5q31 0 53.5 10.5t42.5 30.5v262q-17 16 -39.5 29t-49.5 13q-24 0 -40 -6.5t-26 -25.5t-14.5 -53t-4.5 -88z" />
    <glyph glyph-name="Emacron" unicode="&#x112;" horiz-adv-x="509" 
d="M116 0q-13 0 -22 9t-9 22v630q0 13 9 22t22 9h300q13 0 22 -9t9 -22v-41q0 -13 -9 -22t-22 -9h-210v-177h162q13 0 22 -9t9 -22v-39q0 -13 -9 -22t-22 -9h-162v-207h225q13 0 22 -9t9 -22v-42q0 -13 -9 -22t-22 -9h-315zM162 741q-13 0 -22 9t-9 22v29q0 13 9 22t22 9
h204q13 0 22 -9t9 -22v-29q0 -13 -9 -22t-22 -9h-204z" />
    <glyph glyph-name="emacron" unicode="&#x113;" horiz-adv-x="497" 
d="M416 27q-29 -19 -64 -29.5t-80 -10.5q-57 0 -99 15t-70.5 47t-42.5 83t-14 122q0 72 14 122.5t40.5 82t64.5 46t86 14.5q102 0 151 -61t49 -200v-19q0 -8 -5 -13t-12 -5h-267q1 -44 7.5 -71.5t19 -43t31.5 -21.5t46 -6q29 0 50.5 7.5t40.5 19.5q11 7 23.5 4.5t19.5 -13.5
l19 -27q8 -11 5.5 -23t-13.5 -20zM334 302q-1 73 -18 102.5t-64 29.5q-19 0 -33.5 -5.5t-25 -20.5t-17 -40.5t-8.5 -65.5h166zM149 567q-13 0 -22 9t-9 22v29q0 13 9 22t22 9h204q13 0 22 -9t9 -22v-29q0 -13 -9 -22t-22 -9h-204z" />
    <glyph glyph-name="Ebreve" unicode="&#x114;" horiz-adv-x="509" 
d="M116 0q-13 0 -22 9t-9 22v630q0 13 9 22t22 9h300q13 0 22 -9t9 -22v-41q0 -13 -9 -22t-22 -9h-210v-177h162q13 0 22 -9t9 -22v-39q0 -13 -9 -22t-22 -9h-162v-207h225q13 0 22 -9t9 -22v-42q0 -13 -9 -22t-22 -9h-315zM409 876q-7 -21 -20 -40t-31 -34t-41.5 -24
t-52.5 -9t-53 9t-42 24.5t-31 35t-20 40.5q-4 11 2.5 22.5t18.5 13.5l13 3q14 3 27 -2.5t20 -17.5q10 -17 25 -25t40 -8t40 8t25 25q7 12 20 17.5t27 1.5l13 -3q13 -3 19 -14t1 -23z" />
    <glyph glyph-name="ebreve" unicode="&#x115;" horiz-adv-x="497" 
d="M416 27q-29 -19 -64 -29.5t-80 -10.5q-57 0 -99 15t-70.5 47t-42.5 83t-14 122q0 72 14 122.5t40.5 82t64.5 46t86 14.5q102 0 151 -61t49 -200v-19q0 -8 -5 -13t-12 -5h-267q1 -44 7.5 -71.5t19 -43t31.5 -21.5t46 -6q29 0 50.5 7.5t40.5 19.5q11 7 23.5 4.5t19.5 -13.5
l19 -27q8 -11 5.5 -23t-13.5 -20zM334 302q-1 73 -18 102.5t-64 29.5q-19 0 -33.5 -5.5t-25 -20.5t-17 -40.5t-8.5 -65.5h166zM396 702q-7 -21 -20 -40t-31 -34t-41.5 -24t-52.5 -9t-53 9t-42 24.5t-31 35t-20 40.5q-4 11 2.5 22.5t18.5 13.5l13 3q14 3 27 -2.5t20 -17.5
q10 -17 25 -25t40 -8t40 8t25 25q7 12 20 17.5t27 1.5l13 -3q13 -3 19 -14t1 -23z" />
    <glyph glyph-name="Edotaccent" unicode="&#x116;" horiz-adv-x="509" 
d="M116 0q-13 0 -22 9t-9 22v630q0 13 9 22t22 9h300q13 0 22 -9t9 -22v-41q0 -13 -9 -22t-22 -9h-210v-177h162q13 0 22 -9t9 -22v-39q0 -13 -9 -22t-22 -9h-162v-207h225q13 0 22 -9t9 -22v-42q0 -13 -9 -22t-22 -9h-315zM262 734q-30 0 -51 21t-21 52t21 52.5t52 21.5
t52 -21t21 -53q0 -31 -21 -52t-53 -21z" />
    <glyph glyph-name="edotaccent" unicode="&#x117;" horiz-adv-x="497" 
d="M416 27q-29 -19 -64 -29.5t-80 -10.5q-57 0 -99 15t-70.5 47t-42.5 83t-14 122q0 72 14 122.5t40.5 82t64.5 46t86 14.5q102 0 151 -61t49 -200v-19q0 -8 -5 -13t-12 -5h-267q1 -44 7.5 -71.5t19 -43t31.5 -21.5t46 -6q29 0 50.5 7.5t40.5 19.5q11 7 23.5 4.5t19.5 -13.5
l19 -27q8 -11 5.5 -23t-13.5 -20zM334 302q-1 73 -18 102.5t-64 29.5q-19 0 -33.5 -5.5t-25 -20.5t-17 -40.5t-8.5 -65.5h166zM249 582q-30 0 -51 21t-21 52t21 52.5t52 21.5t52 -21t21 -53q0 -31 -21 -52t-53 -21z" />
    <glyph glyph-name="Eogonek" unicode="&#x118;" horiz-adv-x="509" 
d="M116 0q-13 0 -22 9t-9 22v630q0 13 9 22t22 9h300q13 0 22 -9t9 -22v-41q0 -13 -9 -22t-22 -9h-210v-177h162q13 0 22 -9t9 -22v-39q0 -13 -9 -22t-22 -9h-162v-207h225q13 0 22 -9t9 -22v-53q0 -8 -6 -14t-14 -6h-1q-27 -32 -44.5 -64t-17.5 -59q0 -30 30 -30q8 0 15 1
t13 3q11 4 21.5 -1t15.5 -15l2 -4q5 -11 0.5 -22t-15.5 -15q-12 -5 -27 -8.5t-34 -3.5q-51 0 -74.5 25.5t-23.5 60.5q0 40 20.5 74.5t45.5 57.5h-252z" />
    <glyph glyph-name="eogonek" unicode="&#x119;" horiz-adv-x="497" 
d="M274 -13q-57 0 -100 15t-71.5 47t-42.5 83t-14 122q0 72 14 122.5t40.5 82t64.5 46t86 14.5q102 0 151 -61t49 -200v-19q0 -8 -5 -13t-12 -5h-267q1 -44 7.5 -71.5t19 -43t31.5 -21.5t46 -6q29 0 50.5 7.5t40.5 19.5q11 7 23.5 4.5t19.5 -13.5l20 -28q7 -10 5 -21.5
t-12 -18.5q-7 -5 -13.5 -9t-13.5 -7q-19 -9 -27.5 -14t-14.5 -13q-23 -29 -37 -57t-14 -52q0 -30 30 -30q8 0 15 1t13 3q11 4 21.5 -1t15.5 -15l2 -4q5 -11 0.5 -22t-15.5 -15q-12 -5 -27 -8.5t-34 -3.5q-51 0 -74.5 25.5t-23.5 60.5t16 65.5t37 53.5zM334 302
q-1 73 -18 102.5t-64 29.5q-19 0 -33.5 -5.5t-25 -20.5t-17 -40.5t-8.5 -65.5h166z" />
    <glyph glyph-name="Ecaron" unicode="&#x11a;" horiz-adv-x="509" 
d="M116 0q-13 0 -22 9t-9 22v630q0 13 9 22t22 9h300q13 0 22 -9t9 -22v-41q0 -13 -9 -22t-22 -9h-210v-177h162q13 0 22 -9t9 -22v-39q0 -13 -9 -22t-22 -9h-162v-207h225q13 0 22 -9t9 -22v-42q0 -13 -9 -22t-22 -9h-315zM260 743q-14 0 -28 6t-24 16l-81 84
q-9 9 -10 22.5t7 24.5l3 4q8 11 20.5 13t23.5 -5l94 -62l93 62q11 7 23.5 5t20.5 -13l2 -4q8 -11 7 -24t-11 -23l-80 -84q-11 -10 -25 -16t-28 -6h-7z" />
    <glyph glyph-name="ecaron" unicode="&#x11b;" horiz-adv-x="497" 
d="M416 27q-29 -19 -64 -29.5t-80 -10.5q-57 0 -99 15t-70.5 47t-42.5 83t-14 122q0 72 14 122.5t40.5 82t64.5 46t86 14.5q102 0 151 -61t49 -200v-19q0 -8 -5 -13t-12 -5h-267q1 -44 7.5 -71.5t19 -43t31.5 -21.5t46 -6q29 0 50.5 7.5t40.5 19.5q11 7 23.5 4.5t19.5 -13.5
l19 -27q8 -11 5.5 -23t-13.5 -20zM334 302q-1 73 -18 102.5t-64 29.5q-19 0 -33.5 -5.5t-25 -20.5t-17 -40.5t-8.5 -65.5h166zM247 569q-14 0 -28 6t-24 16l-81 84q-9 9 -10 22.5t7 24.5l3 4q8 11 20.5 13t23.5 -5l94 -62l93 62q11 7 23.5 5t20.5 -13l2 -4q8 -11 7 -24
t-11 -23l-80 -84q-11 -10 -25 -16t-28 -6h-7z" />
    <glyph glyph-name="Gcircumflex" unicode="&#x11c;" horiz-adv-x="615" 
d="M487 0q-14 0 -25 8t-15 22l-5 15q-26 -26 -61 -42t-74 -16q-121 0 -186 87.5t-65 269.5q0 185 67.5 273t203.5 88q53 0 94 -12t77 -38q11 -8 13.5 -20t-5.5 -23l-27 -38q-8 -11 -20.5 -13t-22.5 6q-25 17 -49 25.5t-56 8.5q-41 0 -68 -13t-43.5 -42.5t-23.5 -77
t-7 -117.5q0 -73 7 -123t22.5 -81t41 -45t63.5 -14q31 0 56.5 10.5t45.5 28.5v149h-76q-13 0 -22 9t-9 22v39q0 13 9 22t22 9h164q13 0 22 -9t9 -22v-315q0 -13 -9 -22t-22 -9h-26zM218 756q-11 -7 -23.5 -5t-20.5 13l-2 3q-8 11 -7 24.5t10 22.5l82 85q10 10 24 16t28 6h7
q14 0 28 -6t24 -16l81 -85q9 -9 10 -22.5t-7 -24.5l-2 -3q-8 -11 -20.5 -13.5t-23.5 5.5l-95 61z" />
    <glyph glyph-name="gcircumflex" unicode="&#x11d;" horiz-adv-x="511" 
d="M472 -24q0 -82 -53.5 -125t-171.5 -43q-109 0 -158.5 35t-49.5 98q0 37 19.5 60.5t46.5 38.5q-40 26 -40 77q0 37 16 61.5t39 41.5q-62 42 -62 134q0 81 48 123t142 42q44 0 81 -13h120q12 0 21 -9t9 -21v-2q0 -14 -8 -24.5t-21 -14.5l-29 -10q17 -36 17 -78
q0 -158 -189 -158q-17 0 -31 1.5t-28 3.5q-9 -11 -15.5 -24t-6.5 -25q0 -11 8 -18t26 -7h92q40 0 72.5 -8.5t56 -26t36.5 -44.5t13 -65zM166 21q-10 -11 -16 -27.5t-6 -37.5q0 -17 3.5 -29.5t15 -21t32 -13t54.5 -4.5q109 0 109 76q0 35 -21.5 46t-65.5 11h-105zM171 350
q0 -43 17.5 -63t59.5 -20q43 0 61 19.5t18 63.5q0 45 -17 65t-62 20q-41 0 -59 -20t-18 -65zM142 582q-11 -7 -23.5 -5t-20.5 13l-2 3q-8 11 -7 24.5t10 22.5l82 85q10 10 24 16t28 6h7q14 0 28 -6t24 -16l81 -85q9 -9 10 -22.5t-7 -24.5l-2 -3q-8 -11 -20.5 -13.5
t-23.5 5.5l-95 61z" />
    <glyph glyph-name="Gbreve" unicode="&#x11e;" horiz-adv-x="615" 
d="M487 0q-14 0 -25 8t-15 22l-5 15q-26 -26 -61 -42t-74 -16q-121 0 -186 87.5t-65 269.5q0 185 67.5 273t203.5 88q53 0 94 -12t77 -38q11 -8 13.5 -20t-5.5 -23l-27 -38q-8 -11 -20.5 -13t-22.5 6q-25 17 -49 25.5t-56 8.5q-41 0 -68 -13t-43.5 -42.5t-23.5 -77
t-7 -117.5q0 -73 7 -123t22.5 -81t41 -45t63.5 -14q31 0 56.5 10.5t45.5 28.5v149h-76q-13 0 -22 9t-9 22v39q0 13 9 22t22 9h164q13 0 22 -9t9 -22v-315q0 -13 -9 -22t-22 -9h-26zM457 876q-7 -21 -20 -40t-31 -34t-41.5 -24t-52.5 -9t-53 9t-42 24.5t-31 35t-20 40.5
q-4 11 2.5 22.5t18.5 13.5l13 3q14 3 27 -2.5t20 -17.5q10 -17 25 -25t40 -8t40 8t25 25q7 12 20 17.5t27 1.5l13 -3q13 -3 19 -14t1 -23z" />
    <glyph glyph-name="gbreve" unicode="&#x11f;" horiz-adv-x="511" 
d="M472 -24q0 -82 -53.5 -125t-171.5 -43q-109 0 -158.5 35t-49.5 98q0 37 19.5 60.5t46.5 38.5q-40 26 -40 77q0 37 16 61.5t39 41.5q-62 42 -62 134q0 81 48 123t142 42q44 0 81 -13h120q12 0 21 -9t9 -21v-2q0 -14 -8 -24.5t-21 -14.5l-29 -10q17 -36 17 -78
q0 -158 -189 -158q-17 0 -31 1.5t-28 3.5q-9 -11 -15.5 -24t-6.5 -25q0 -11 8 -18t26 -7h92q40 0 72.5 -8.5t56 -26t36.5 -44.5t13 -65zM166 21q-10 -11 -16 -27.5t-6 -37.5q0 -17 3.5 -29.5t15 -21t32 -13t54.5 -4.5q109 0 109 76q0 35 -21.5 46t-65.5 11h-105zM171 350
q0 -43 17.5 -63t59.5 -20q43 0 61 19.5t18 63.5q0 45 -17 65t-62 20q-41 0 -59 -20t-18 -65zM382 702q-7 -21 -20 -40t-31 -34t-41.5 -24t-52.5 -9t-53 9t-42 24.5t-31 35t-20 40.5q-4 11 2.5 22.5t18.5 13.5l13 3q14 3 27 -2.5t20 -17.5q10 -17 25 -25t40 -8t40 8t25 25
q7 12 20 17.5t27 1.5l13 -3q13 -3 19 -14t1 -23z" />
    <glyph glyph-name="Gdotaccent" unicode="&#x120;" horiz-adv-x="615" 
d="M487 0q-14 0 -25 8t-15 22l-5 15q-26 -26 -61 -42t-74 -16q-121 0 -186 87.5t-65 269.5q0 185 67.5 273t203.5 88q53 0 94 -12t77 -38q11 -8 13.5 -20t-5.5 -23l-27 -38q-8 -11 -20.5 -13t-22.5 6q-25 17 -49 25.5t-56 8.5q-41 0 -68 -13t-43.5 -42.5t-23.5 -77
t-7 -117.5q0 -73 7 -123t22.5 -81t41 -45t63.5 -14q31 0 56.5 10.5t45.5 28.5v149h-76q-13 0 -22 9t-9 22v39q0 13 9 22t22 9h164q13 0 22 -9t9 -22v-315q0 -13 -9 -22t-22 -9h-26zM311 734q-30 0 -51 21t-21 52t21 52.5t52 21.5t52 -21t21 -53q0 -31 -21 -52t-53 -21z" />
    <glyph glyph-name="gdotaccent" unicode="&#x121;" horiz-adv-x="511" 
d="M472 -24q0 -82 -53.5 -125t-171.5 -43q-109 0 -158.5 35t-49.5 98q0 37 19.5 60.5t46.5 38.5q-40 26 -40 77q0 37 16 61.5t39 41.5q-62 42 -62 134q0 81 48 123t142 42q44 0 81 -13h120q12 0 21 -9t9 -21v-2q0 -14 -8 -24.5t-21 -14.5l-29 -10q17 -36 17 -78
q0 -158 -189 -158q-17 0 -31 1.5t-28 3.5q-9 -11 -15.5 -24t-6.5 -25q0 -11 8 -18t26 -7h92q40 0 72.5 -8.5t56 -26t36.5 -44.5t13 -65zM166 21q-10 -11 -16 -27.5t-6 -37.5q0 -17 3.5 -29.5t15 -21t32 -13t54.5 -4.5q109 0 109 76q0 35 -21.5 46t-65.5 11h-105zM171 350
q0 -43 17.5 -63t59.5 -20q43 0 61 19.5t18 63.5q0 45 -17 65t-62 20q-41 0 -59 -20t-18 -65zM234 582q-30 0 -51 21t-21 52t21 52.5t52 21.5t52 -21t21 -53q0 -31 -21 -52t-53 -21z" />
    <glyph glyph-name="Gcommaaccent" unicode="&#x122;" horiz-adv-x="615" 
d="M487 0q-14 0 -25 8t-15 22l-5 15q-26 -26 -61 -42t-74 -16q-121 0 -186 87.5t-65 269.5q0 185 67.5 273t203.5 88q53 0 94 -12t77 -38q11 -8 13.5 -20t-5.5 -23l-27 -38q-8 -11 -20.5 -13t-22.5 6q-25 17 -49 25.5t-56 8.5q-41 0 -68 -13t-43.5 -42.5t-23.5 -77
t-7 -117.5q0 -73 7 -123t22.5 -81t41 -45t63.5 -14q31 0 56.5 10.5t45.5 28.5v149h-76q-13 0 -22 9t-9 22v39q0 13 9 22t22 9h164q13 0 22 -9t9 -22v-315q0 -13 -9 -22t-22 -9h-26zM231 -248q-3 11 2 20t15 13q18 7 31 17.5t13 27.5q-8 0 -17.5 3.5t-17.5 11t-13.5 19
t-5.5 27.5q0 28 18.5 46t46.5 18q32 0 53.5 -22.5t21.5 -61.5q0 -99 -111 -134q-12 -4 -22.5 0t-13.5 15z" />
    <glyph glyph-name="gcommaaccent" unicode="&#x123;" horiz-adv-x="511" 
d="M472 -24q0 -82 -53.5 -125t-171.5 -43q-109 0 -158.5 35t-49.5 98q0 37 19.5 60.5t46.5 38.5q-40 26 -40 77q0 37 16 61.5t39 41.5q-62 42 -62 134q0 81 48 123t142 42q44 0 81 -13h120q12 0 21 -9t9 -21v-2q0 -14 -8 -24.5t-21 -14.5l-29 -10q17 -36 17 -78
q0 -158 -189 -158q-17 0 -31 1.5t-28 3.5q-9 -11 -15.5 -24t-6.5 -25q0 -11 8 -18t26 -7h92q40 0 72.5 -8.5t56 -26t36.5 -44.5t13 -65zM166 21q-10 -11 -16 -27.5t-6 -37.5q0 -17 3.5 -29.5t15 -21t32 -13t54.5 -4.5q109 0 109 76q0 35 -21.5 46t-65.5 11h-105zM171 350
q0 -43 17.5 -63t59.5 -20q43 0 61 19.5t18 63.5q0 45 -17 65t-62 20q-41 0 -59 -20t-18 -65zM320 768q3 -11 -2 -20t-15 -13q-18 -7 -31 -17.5t-13 -27.5q8 0 17.5 -3.5t17.5 -11t13.5 -19t5.5 -27.5q0 -28 -18.5 -46t-46.5 -18q-32 0 -53.5 22.5t-21.5 61.5q0 99 111 134
q12 4 22.5 0t13.5 -15z" />
    <glyph glyph-name="Hcircumflex" unicode="&#x124;" horiz-adv-x="618" 
d="M116 0q-13 0 -22 9t-9 22v630q0 13 9 22t22 9h59q13 0 22 -9t9 -22v-242h206v242q0 13 9 22t22 9h59q13 0 22 -9t9 -22v-630q0 -13 -9 -22t-22 -9h-59q-13 0 -22 9t-9 22v283h-206v-283q0 -13 -9 -22t-22 -9h-59zM214 756q-11 -7 -23.5 -5t-20.5 13l-2 3q-8 11 -7 24.5
t10 22.5l82 85q10 10 24 16t28 6h7q14 0 28 -6t24 -16l81 -85q9 -9 10 -22.5t-7 -24.5l-2 -3q-8 -11 -20.5 -13.5t-23.5 5.5l-95 61z" />
    <glyph glyph-name="hcircumflex" unicode="&#x125;" horiz-adv-x="524" 
d="M105 0q-13 0 -22 9t-9 22v666q0 13 9 22t22 9h52q13 0 22 -9t9 -22v-237q28 26 61 42.5t77 16.5q60 0 93.5 -30t33.5 -102v-356q0 -13 -9 -22t-22 -9h-52q-13 0 -22 9t-9 22v327q0 40 -13 53t-41 13q-27 0 -51 -12.5t-46 -32.5v-348q0 -13 -9 -22t-22 -9h-52zM37 768
q-11 -7 -23.5 -5t-20.5 13l-2 3q-8 11 -7 24.5t10 22.5l82 85q10 10 24 16t28 6h7q14 0 28 -6t24 -16l81 -85q9 -9 10 -22.5t-7 -24.5l-2 -3q-8 -11 -20.5 -13.5t-23.5 5.5l-95 61z" />
    <glyph glyph-name="Hbar" unicode="&#x126;" horiz-adv-x="618" 
d="M57 503q-13 0 -22 9t-9 22v19q0 13 9 22t22 9h28v77q0 13 9 22t22 9h59q13 0 22 -9t9 -22v-77h206v77q0 13 9 22t22 9h59q13 0 22 -9t9 -22v-77h29q13 0 22 -9t9 -22v-19q0 -13 -9 -22t-22 -9h-29v-472q0 -13 -9 -22t-22 -9h-59q-13 0 -22 9t-9 22v283h-206v-283
q0 -13 -9 -22t-22 -9h-59q-13 0 -22 9t-9 22v472h-28zM206 419h206v84h-206v-84z" />
    <glyph glyph-name="hbar" unicode="&#x127;" horiz-adv-x="524" 
d="M45 571q-13 0 -22 9t-9 22v19q0 13 9 22t22 9h29v45q0 13 9 22t22 9h52q13 0 22 -9t9 -22v-45h141q13 0 22 -9t9 -22v-19q0 -13 -9 -22t-22 -9h-141v-111q28 26 61 42.5t77 16.5q60 0 93.5 -30t33.5 -102v-356q0 -13 -9 -22t-22 -9h-52q-13 0 -22 9t-9 22v327
q0 40 -13 53t-41 13q-27 0 -51 -12.5t-46 -32.5v-348q0 -13 -9 -22t-22 -9h-52q-13 0 -22 9t-9 22v540h-29z" />
    <glyph glyph-name="Itilde" unicode="&#x128;" horiz-adv-x="372" 
d="M87 0q-13 0 -22 9t-9 22v5q0 14 8.5 24t22.5 12l38 6v536l-38 7q-14 2 -22.5 12t-8.5 24v4q0 13 9 22t22 9h198q13 0 22 -9t9 -22v-4q0 -14 -8.5 -24t-22.5 -12l-38 -7v-536l38 -6q14 -2 22.5 -12t8.5 -24v-5q0 -13 -9 -22t-22 -9h-198zM127 787q-16 0 -31 -15
q-9 -10 -22.5 -11t-24.5 7l-7 4q-11 8 -14 21t4 24q38 69 96 69q21 0 37 -6t29 -13l25 -12q12 -6 27 -6q17 0 31 15q9 9 22.5 10.5t24.5 -6.5l7 -4q11 -8 14 -21t-4 -24q-38 -69 -96 -69q-21 0 -37 6t-29 12l-25 13q-12 6 -27 6z" />
    <glyph glyph-name="itilde" unicode="&#x129;" horiz-adv-x="293" 
d="M133 0q-13 0 -22 9t-9 22v389l-36 6q-13 3 -21.5 13t-8.5 24v12q0 13 9 22t22 9h117q13 0 22 -9t9 -22v-444q0 -13 -9 -22t-22 -9h-51zM82 613q-16 0 -31 -15q-9 -10 -22.5 -11t-24.5 7l-7 4q-11 8 -14 21t4 24q38 69 96 69q21 0 37 -6t29 -13l25 -12q12 -6 27 -6
q17 0 31 15q9 9 22.5 10.5t24.5 -6.5l7 -4q11 -8 14 -21t-4 -24q-38 -69 -96 -69q-21 0 -37 6t-29 12l-25 13q-12 6 -27 6z" />
    <glyph glyph-name="Imacron" unicode="&#x12a;" horiz-adv-x="372" 
d="M87 0q-13 0 -22 9t-9 22v5q0 14 8.5 24t22.5 12l38 6v536l-38 7q-14 2 -22.5 12t-8.5 24v4q0 13 9 22t22 9h198q13 0 22 -9t9 -22v-4q0 -14 -8.5 -24t-22.5 -12l-38 -7v-536l38 -6q14 -2 22.5 -12t8.5 -24v-5q0 -13 -9 -22t-22 -9h-198zM83 741q-13 0 -22 9t-9 22v29
q0 13 9 22t22 9h204q13 0 22 -9t9 -22v-29q0 -13 -9 -22t-22 -9h-204z" />
    <glyph glyph-name="imacron" unicode="&#x12b;" horiz-adv-x="293" 
d="M133 0q-13 0 -22 9t-9 22v389l-36 6q-13 3 -21.5 13t-8.5 24v12q0 13 9 22t22 9h117q13 0 22 -9t9 -22v-444q0 -13 -9 -22t-22 -9h-51zM39 567q-13 0 -22 9t-9 22v29q0 13 9 22t22 9h204q13 0 22 -9t9 -22v-29q0 -13 -9 -22t-22 -9h-204z" />
    <glyph glyph-name="Ibreve" unicode="&#x12c;" horiz-adv-x="372" 
d="M87 0q-13 0 -22 9t-9 22v5q0 14 8.5 24t22.5 12l38 6v536l-38 7q-14 2 -22.5 12t-8.5 24v4q0 13 9 22t22 9h198q13 0 22 -9t9 -22v-4q0 -14 -8.5 -24t-22.5 -12l-38 -7v-536l38 -6q14 -2 22.5 -12t8.5 -24v-5q0 -13 -9 -22t-22 -9h-198zM330 876q-7 -21 -20 -40t-31 -34
t-41.5 -24t-52.5 -9t-53 9t-42 24.5t-31 35t-20 40.5q-4 11 2.5 22.5t18.5 13.5l13 3q14 3 27 -2.5t20 -17.5q10 -17 25 -25t40 -8t40 8t25 25q7 12 20 17.5t27 1.5l13 -3q13 -3 19 -14t1 -23z" />
    <glyph glyph-name="ibreve" unicode="&#x12d;" horiz-adv-x="293" 
d="M133 0q-13 0 -22 9t-9 22v389l-36 6q-13 3 -21.5 13t-8.5 24v12q0 13 9 22t22 9h117q13 0 22 -9t9 -22v-444q0 -13 -9 -22t-22 -9h-51zM285 702q-7 -21 -20 -40t-31 -34t-41.5 -24t-52.5 -9t-53 9t-42 24.5t-31 35t-20 40.5q-4 11 2.5 22.5t18.5 13.5l13 3q14 3 27 -2.5
t20 -17.5q10 -17 25 -25t40 -8t40 8t25 25q7 12 20 17.5t27 1.5l13 -3q13 -3 19 -14t1 -23z" />
    <glyph glyph-name="Iogonek" unicode="&#x12e;" horiz-adv-x="372" 
d="M87 0q-13 0 -22 9t-9 22v5q0 14 8.5 24t22.5 12l38 6v536l-38 7q-14 2 -22.5 12t-8.5 24v4q0 13 9 22t22 9h198q13 0 22 -9t9 -22v-4q0 -14 -8.5 -24t-22.5 -12l-38 -7v-536l38 -6q14 -2 22.5 -12t8.5 -24v-5q0 -13 -9 -22t-22 -9h-83q-27 -32 -44.5 -64t-17.5 -59
q0 -30 30 -30q8 0 15 1t13 3q11 4 21.5 -1t15.5 -15l2 -4q5 -11 0.5 -22t-15.5 -15q-12 -5 -27 -8.5t-34 -3.5q-51 0 -74.5 25.5t-23.5 60.5q0 40 20.5 74.5t45.5 57.5h-42z" />
    <glyph glyph-name="iogonek" unicode="&#x12f;" horiz-adv-x="293" 
d="M195 -206q-12 -5 -27 -8.5t-34 -3.5q-51 0 -74.5 25.5t-23.5 60.5q0 40 20.5 74.5t45.5 57.5v420l-36 6q-13 3 -21.5 13t-8.5 24v12q0 13 9 22t22 9h117q13 0 22 -9t9 -22v-444q0 -13 -9 -22t-22 -9h-9q-27 -32 -44.5 -64t-17.5 -59q0 -30 30 -30q8 0 15 1t13 3
q11 4 21.5 -1t15.5 -15l2 -4q5 -11 0.5 -22t-15.5 -15zM231 655q0 -31 -21 -52t-53 -21q-30 0 -51 21t-21 52t21 52.5t52 21.5t52 -21t21 -53z" />
    <glyph glyph-name="Idotaccent" unicode="&#x130;" horiz-adv-x="372" 
d="M87 0q-13 0 -22 9t-9 22v5q0 14 8.5 24t22.5 12l38 6v536l-38 7q-14 2 -22.5 12t-8.5 24v4q0 13 9 22t22 9h198q13 0 22 -9t9 -22v-4q0 -14 -8.5 -24t-22.5 -12l-38 -7v-536l38 -6q14 -2 22.5 -12t8.5 -24v-5q0 -13 -9 -22t-22 -9h-198zM184 734q-30 0 -51 21t-21 52
t21 52.5t52 21.5t52 -21t21 -53q0 -31 -21 -52t-53 -21z" />
    <glyph glyph-name="dotlessi" unicode="&#x131;" horiz-adv-x="293" 
d="M133 0q-13 0 -22 9t-9 22v389l-36 6q-13 3 -21.5 13t-8.5 24v12q0 13 9 22t22 9h117q13 0 22 -9t9 -22v-444q0 -13 -9 -22t-22 -9h-51z" />
    <glyph glyph-name="IJ" unicode="&#x132;" horiz-adv-x="671" 
d="M87 0q-13 0 -22 9t-9 22v5q0 14 8.5 24t22.5 12l38 6v536l-38 7q-14 2 -22.5 12t-8.5 24v4q0 13 9 22t22 9h198q13 0 22 -9t9 -22v-4q0 -14 -8.5 -24t-22.5 -12l-38 -7v-536l38 -6q14 -2 22.5 -12t8.5 -24v-5q0 -13 -9 -22t-22 -9h-198zM585 72q0 -48 -8 -83.5t-25.5 -62
t-44 -45.5t-63.5 -34q-12 -5 -24 -1t-17 15l-15 29q-6 11 -2.5 24t14.5 21q16 12 28 24t20 29.5t11.5 42.5t3.5 63v567q0 13 9 22t22 9h60q13 0 22 -9t9 -22v-589z" />
    <glyph glyph-name="ij" unicode="&#x133;" horiz-adv-x="586" 
d="M133 0q-13 0 -22 9t-9 22v389l-36 6q-13 3 -21.5 13t-8.5 24v12q0 13 9 22t22 9h117q13 0 22 -9t9 -22v-444q0 -13 -9 -22t-22 -9h-51zM231 655q0 -31 -21 -52t-53 -21q-30 0 -51 21t-21 52t21 52.5t52 21.5t52 -21t21 -53zM508 17q0 -47 -6 -80.5t-19.5 -58t-36 -42
t-54.5 -30.5q-12 -5 -24.5 -0.5t-17.5 16.5l-11 22q-6 12 -3 25t14 21q28 20 36.5 46t8.5 77v407l-36 6q-13 3 -21.5 13t-8.5 24v12q0 13 9 22t22 9h117q13 0 22 -9t9 -22v-458zM524 655q0 -31 -21 -52t-53 -21q-30 0 -51 21t-21 52t21 52.5t52 21.5t52 -21t21 -53z" />
    <glyph glyph-name="Jcircumflex" unicode="&#x134;" horiz-adv-x="299" 
d="M213 72q0 -48 -8 -83.5t-25.5 -62t-44 -45.5t-63.5 -34q-12 -5 -24 -1t-17 15l-15 29q-6 11 -2.5 24t14.5 21q16 12 28 24t20 29.5t11.5 42.5t3.5 63v567q0 13 9 22t22 9h60q13 0 22 -9t9 -22v-589zM57 756q-11 -7 -23.5 -5t-20.5 13l-2 3q-8 11 -7 24.5t10 22.5l82 85
q10 10 24 16t28 6h7q14 0 28 -6t24 -16l81 -85q9 -9 10 -22.5t-7 -24.5l-2 -3q-8 -11 -20.5 -13.5t-23.5 5.5l-95 61z" />
    <glyph glyph-name="jcircumflex" unicode="&#x135;" horiz-adv-x="293" 
d="M215 17q0 -47 -6 -80.5t-19.5 -58t-36 -42t-54.5 -30.5q-12 -5 -24.5 -0.5t-17.5 16.5l-11 22q-6 12 -3 25t14 21q28 20 36.5 46t8.5 77v407l-36 6q-13 3 -21.5 13t-8.5 24v12q0 13 9 22t22 9h117q13 0 22 -9t9 -22v-458zM47 582q-11 -7 -23.5 -5t-20.5 13l-2 3
q-8 11 -7 24.5t10 22.5l82 85q10 10 24 16t28 6h7q14 0 28 -6t24 -16l81 -85q9 -9 10 -22.5t-7 -24.5l-2 -3q-8 -11 -20.5 -13.5t-23.5 5.5l-95 61z" />
    <glyph glyph-name="Kcommaaccent" unicode="&#x136;" horiz-adv-x="561" 
d="M116 0q-13 0 -22 9t-9 22v630q0 13 9 22t22 9h59q13 0 22 -9t9 -22v-286l178 291q16 26 47 26h68q11 0 15.5 -9t-1.5 -17l-182 -287l197 -352q5 -9 0 -18t-16 -9h-74q-14 0 -26.5 7.5t-19.5 19.5l-186 345v-341q0 -13 -9 -22t-22 -9h-59zM221 -248q-3 11 2 20t15 13
q18 7 31 17.5t13 27.5q-8 0 -17.5 3.5t-17.5 11t-13.5 19t-5.5 27.5q0 28 18.5 46t46.5 18q32 0 53.5 -22.5t21.5 -61.5q0 -99 -111 -134q-12 -4 -22.5 0t-13.5 15z" />
    <glyph glyph-name="kcommaaccent" unicode="&#x137;" horiz-adv-x="494" 
d="M105 0q-13 0 -22 9t-9 22v666q0 13 9 22t22 9h52q13 0 22 -9t9 -22v-666q0 -13 -9 -22t-22 -9h-52zM388 0q-14 0 -26.5 7.5t-19.5 19.5l-134 233q-7 12 -6.5 26.5t8.5 26.5l104 167q18 26 48 26h65q10 0 14.5 -8.5t-1.5 -16.5l-128 -186l156 -268q5 -9 0.5 -18t-15.5 -9
h-65zM198 -248q-3 11 2 20t15 13q18 7 31 17.5t13 27.5q-8 0 -17.5 3.5t-17.5 11t-13.5 19t-5.5 27.5q0 28 18.5 46t46.5 18q32 0 53.5 -22.5t21.5 -61.5q0 -99 -111 -134q-12 -4 -22.5 0t-13.5 15z" />
    <glyph glyph-name="kgreenlandic" unicode="&#x138;" horiz-adv-x="494" 
d="M105 0q-13 0 -22 9t-9 22v444q0 13 9 22t22 9h52q13 0 22 -9t9 -22v-444q0 -13 -9 -22t-22 -9h-52zM388 0q-14 0 -26.5 7.5t-19.5 19.5l-134 233q-7 12 -6.5 26.5t8.5 26.5l104 167q18 26 48 26h65q10 0 14.5 -8.5t-1.5 -16.5l-128 -186l156 -268q5 -9 0.5 -18t-15.5 -9
h-65z" />
    <glyph glyph-name="Lacute" unicode="&#x139;" horiz-adv-x="473" 
d="M116 0q-13 0 -22 9t-9 22v630q0 13 9 22t22 9h58q13 0 22 -9t9 -22v-557h192q13 0 22 -9t9 -22v-42q0 -13 -9 -22t-22 -9h-281zM152 749q-12 -6 -24.5 -2t-19.5 15l-6 11q-7 11 -4.5 24t13.5 21l142 102q10 7 22 4.5t18 -13.5l27 -46q6 -11 2 -23t-15 -18z" />
    <glyph glyph-name="lacute" unicode="&#x13a;" horiz-adv-x="282" 
d="M225 -6q-22 -5 -42 -5q-32 0 -53 8.5t-33 25.5t-17 44t-5 64v566q0 13 9 22t22 9h52q13 0 22 -9t9 -22v-580q0 -31 21 -37q15 -5 24.5 -11t11.5 -21l3 -21q2 -12 -4.5 -21.5t-19.5 -11.5zM141 761q-12 -6 -24.5 -2t-19.5 15l-6 11q-7 11 -4.5 24t13.5 21l142 102
q10 7 22 4.5t18 -13.5l27 -46q6 -11 2 -23t-15 -18z" />
    <glyph glyph-name="Lcommaaccent" unicode="&#x13b;" horiz-adv-x="473" 
d="M116 0q-13 0 -22 9t-9 22v630q0 13 9 22t22 9h58q13 0 22 -9t9 -22v-557h192q13 0 22 -9t9 -22v-42q0 -13 -9 -22t-22 -9h-281zM188 -248q-3 11 2 20t15 13q18 7 31 17.5t13 27.5q-8 0 -17.5 3.5t-17.5 11t-13.5 19t-5.5 27.5q0 28 18.5 46t46.5 18q32 0 53.5 -22.5
t21.5 -61.5q0 -99 -111 -134q-12 -4 -22.5 0t-13.5 15z" />
    <glyph glyph-name="lcommaaccent" unicode="&#x13c;" horiz-adv-x="282" 
d="M225 -6q-22 -5 -42 -5q-32 0 -53 8.5t-33 25.5t-17 44t-5 64v566q0 13 9 22t22 9h52q13 0 22 -9t9 -22v-580q0 -31 21 -37q15 -5 24.5 -11t11.5 -21l3 -21q2 -12 -4.5 -21.5t-19.5 -11.5zM93 -248q-3 11 2 20t15 13q18 7 31 17.5t13 27.5q-8 0 -17.5 3.5t-17.5 11
t-13.5 19t-5.5 27.5q0 28 18.5 46t46.5 18q32 0 53.5 -22.5t21.5 -61.5q0 -99 -111 -134q-12 -4 -22.5 0t-13.5 15z" />
    <glyph glyph-name="Lcaron" unicode="&#x13d;" horiz-adv-x="473" 
d="M116 0q-13 0 -22 9t-9 22v630q0 13 9 22t22 9h58q13 0 22 -9t9 -22v-557h192q13 0 22 -9t9 -22v-42q0 -13 -9 -22t-22 -9h-281zM366 559q-2 -14 -11.5 -22.5t-23.5 -8.5h-26q-13 0 -22 9t-9 22l1 102q0 13 9 22t22 9h47q12 0 20.5 -9.5t6.5 -21.5z" />
    <glyph glyph-name="lcaron" unicode="&#x13e;" horiz-adv-x="282" 
d="M225 -6q-22 -5 -42 -5q-32 0 -53 8.5t-33 25.5t-17 44t-5 64v566q0 13 9 22t22 9h52q13 0 22 -9t9 -22v-580q0 -31 21 -37q15 -5 24.5 -11t11.5 -21l3 -21q2 -12 -4.5 -21.5t-19.5 -11.5zM341 595q-2 -14 -11.5 -22.5t-23.5 -8.5h-26q-13 0 -22 9t-9 22l1 102q0 13 9 22
t22 9h47q12 0 20.5 -9.5t6.5 -21.5z" />
    <glyph glyph-name="Ldot" unicode="&#x13f;" horiz-adv-x="473" 
d="M116 0q-13 0 -22 9t-9 22v630q0 13 9 22t22 9h58q13 0 22 -9t9 -22v-557h192q13 0 22 -9t9 -22v-42q0 -13 -9 -22t-22 -9h-281zM445 397q0 -29 -20.5 -48.5t-46.5 -19.5q-27 0 -47.5 19.5t-20.5 48.5t20 48.5t47 19.5t47.5 -19.5t20.5 -48.5z" />
    <glyph glyph-name="ldot" unicode="&#x140;" horiz-adv-x="351" 
d="M225 -6q-22 -5 -42 -5q-32 0 -53 8.5t-33 25.5t-17 44t-5 64v566q0 13 9 22t22 9h52q13 0 22 -9t9 -22v-580q0 -31 21 -37q15 -5 24.5 -11t11.5 -21l3 -21q2 -12 -4.5 -21.5t-19.5 -11.5zM308 319q-30 0 -51 21t-21 52t21 52.5t52 21.5t52 -21t21 -53q0 -31 -21 -52
t-53 -21z" />
    <glyph glyph-name="Lslash" unicode="&#x141;" horiz-adv-x="475" 
d="M52 242q-11 -4 -20 3t-9 18v38q0 14 8 25.5t21 16.5l36 13v305q0 13 9 22t22 9h58q13 0 22 -9t9 -22v-261l113 41q11 5 20 -2t9 -18v-39q0 -14 -8.5 -25.5t-20.5 -16.5l-113 -41v-195h192q13 0 22 -9t9 -22v-42q0 -13 -9 -22t-22 -9h-281q-13 0 -22 9t-9 22v224z" />
    <glyph glyph-name="lslash" unicode="&#x142;" horiz-adv-x="290" 
d="M197 117q0 -31 21 -37q15 -5 24.5 -11t11.5 -21l3 -21q2 -12 -4.5 -21.5t-19.5 -11.5q-22 -5 -42 -5q-32 0 -52.5 8.5t-32.5 25.5t-17 44t-5 64v166l-32 -14q-4 -2 -8 -2q-8 0 -14 5.5t-6 14.5v34q0 31 28 44l32 14v304q0 13 9 22t22 9h51q13 0 22 -9t9 -22v-254l44 20
q10 5 19 -1t9 -17v-34q0 -31 -28 -44l-44 -20v-230z" />
    <glyph glyph-name="Nacute" unicode="&#x143;" horiz-adv-x="617" 
d="M116 0q-13 0 -22 9t-9 22v630q0 13 9 22t22 9h55q31 0 44 -28l155 -322q9 -19 18 -40.5t17.5 -43t15.5 -42.5l13 -39h1q-4 33 -8.5 85.5t-4.5 104.5v294q0 13 9 22t22 9h49q13 0 22 -9t9 -22v-630q0 -13 -9 -22t-22 -9h-61q-31 0 -44 28l-143 302q-29 59 -43.5 100
t-26.5 78h-2q4 -31 8.5 -86t4.5 -118v-273q0 -13 -9 -22t-22 -9h-48zM272 749q-12 -6 -24.5 -2t-19.5 15l-6 11q-7 11 -4.5 24t13.5 21l142 102q10 7 22 4.5t18 -13.5l27 -46q6 -11 2 -23t-15 -18z" />
    <glyph glyph-name="nacute" unicode="&#x144;" horiz-adv-x="524" 
d="M105 0q-13 0 -22 9t-9 22v444q0 13 9 22t22 9h29q14 0 24.5 -8.5t13.5 -21.5l5 -25q31 30 66.5 49t82.5 19q60 0 93.5 -30t33.5 -102v-356q0 -13 -9 -22t-22 -9h-52q-13 0 -22 9t-9 22v327q0 40 -13 53t-41 13q-27 0 -51 -12.5t-46 -32.5v-348q0 -13 -9 -22t-22 -9h-52z
M226 575q-12 -6 -24.5 -2t-19.5 15l-6 11q-7 11 -4.5 24t13.5 21l142 102q10 7 22 4.5t18 -13.5l27 -46q6 -11 2 -23t-15 -18z" />
    <glyph glyph-name="Ncommaaccent" unicode="&#x145;" horiz-adv-x="617" 
d="M116 0q-13 0 -22 9t-9 22v630q0 13 9 22t22 9h55q31 0 44 -28l155 -322q9 -19 18 -40.5t17.5 -43t15.5 -42.5l13 -39h1q-4 33 -8.5 85.5t-4.5 104.5v294q0 13 9 22t22 9h49q13 0 22 -9t9 -22v-630q0 -13 -9 -22t-22 -9h-61q-31 0 -44 28l-143 302q-29 59 -43.5 100
t-26.5 78h-2q4 -31 8.5 -86t4.5 -118v-273q0 -13 -9 -22t-22 -9h-48zM229 -248q-3 11 2 20t15 13q18 7 31 17.5t13 27.5q-8 0 -17.5 3.5t-17.5 11t-13.5 19t-5.5 27.5q0 28 18.5 46t46.5 18q32 0 53.5 -22.5t21.5 -61.5q0 -99 -111 -134q-12 -4 -22.5 0t-13.5 15z" />
    <glyph glyph-name="ncommaaccent" unicode="&#x146;" horiz-adv-x="524" 
d="M105 0q-13 0 -22 9t-9 22v444q0 13 9 22t22 9h29q14 0 24.5 -8.5t13.5 -21.5l5 -25q31 30 66.5 49t82.5 19q60 0 93.5 -30t33.5 -102v-356q0 -13 -9 -22t-22 -9h-52q-13 0 -22 9t-9 22v327q0 40 -13 53t-41 13q-27 0 -51 -12.5t-46 -32.5v-348q0 -13 -9 -22t-22 -9h-52z
M187 -248q-3 11 2 20t15 13q18 7 31 17.5t13 27.5q-8 0 -17.5 3.5t-17.5 11t-13.5 19t-5.5 27.5q0 28 18.5 46t46.5 18q32 0 53.5 -22.5t21.5 -61.5q0 -99 -111 -134q-12 -4 -22.5 0t-13.5 15z" />
    <glyph glyph-name="Ncaron" unicode="&#x147;" horiz-adv-x="617" 
d="M116 0q-13 0 -22 9t-9 22v630q0 13 9 22t22 9h55q31 0 44 -28l155 -322q9 -19 18 -40.5t17.5 -43t15.5 -42.5l13 -39h1q-4 33 -8.5 85.5t-4.5 104.5v294q0 13 9 22t22 9h49q13 0 22 -9t9 -22v-630q0 -13 -9 -22t-22 -9h-61q-31 0 -44 28l-143 302q-29 59 -43.5 100
t-26.5 78h-2q4 -31 8.5 -86t4.5 -118v-273q0 -13 -9 -22t-22 -9h-48zM307 743q-14 0 -28 6t-24 16l-81 84q-9 9 -10 22.5t7 24.5l3 4q8 11 20.5 13t23.5 -5l94 -62l93 62q11 7 23.5 5t20.5 -13l2 -4q8 -11 7 -24t-11 -23l-80 -84q-11 -10 -25 -16t-28 -6h-7z" />
    <glyph glyph-name="ncaron" unicode="&#x148;" horiz-adv-x="524" 
d="M105 0q-13 0 -22 9t-9 22v444q0 13 9 22t22 9h29q14 0 24.5 -8.5t13.5 -21.5l5 -25q31 30 66.5 49t82.5 19q60 0 93.5 -30t33.5 -102v-356q0 -13 -9 -22t-22 -9h-52q-13 0 -22 9t-9 22v327q0 40 -13 53t-41 13q-27 0 -51 -12.5t-46 -32.5v-348q0 -13 -9 -22t-22 -9h-52z
M258 569q-14 0 -28 6t-24 16l-81 84q-9 9 -10 22.5t7 24.5l3 4q8 11 20.5 13t23.5 -5l94 -62l93 62q11 7 23.5 5t20.5 -13l2 -4q8 -11 7 -24t-11 -23l-80 -84q-11 -10 -25 -16t-28 -6h-7z" />
    <glyph glyph-name="napostrophe" unicode="&#x149;" horiz-adv-x="619" 
d="M200 0q-13 0 -22 9t-9 22v444q0 13 9 22t22 9h29q14 0 24.5 -8.5t13.5 -21.5l5 -25q31 30 66.5 49t82.5 19q60 0 93.5 -30t33.5 -102v-356q0 -13 -9 -22t-22 -9h-52q-13 0 -22 9t-9 22v327q0 40 -13 53t-41 13q-27 0 -51 -12.5t-46 -32.5v-348q0 -13 -9 -22t-22 -9h-52z
M91 506q-4 -14 -15 -22t-25 -8h-19q-14 0 -21 10.5t-5 20.5l41 221q2 14 12 22.5t24 8.5h53q12 0 19 -9.5t3 -20.5z" />
    <glyph glyph-name="Eng" unicode="&#x14a;" horiz-adv-x="617" 
d="M116 0q-13 0 -22 9t-9 22v630q0 13 9 22t22 9h55q31 0 44 -28l155 -322q9 -19 18 -40.5t17.5 -43t15.5 -42.5l13 -39h1q-4 33 -8.5 85.5t-4.5 104.5v294q0 13 9 22t22 9h49q13 0 22 -9t9 -22v-634q0 -47 -8.5 -81.5t-25.5 -60.5t-43.5 -45t-63.5 -34q-12 -5 -24 -1
t-17 15l-15 29q-6 11 -2.5 24t14.5 21q13 10 24.5 19.5t20 22.5t14 30t8.5 41q-12 7 -18 21l-143 302q-29 59 -43.5 100t-26.5 78h-2q4 -31 8.5 -86t4.5 -118v-273q0 -13 -9 -22t-22 -9h-48z" />
    <glyph glyph-name="eng" unicode="&#x14b;" horiz-adv-x="524" 
d="M453 17q0 -47 -6 -80.5t-19.5 -58t-36 -42t-54.5 -30.5q-12 -5 -24.5 -0.5t-17.5 16.5l-11 22q-6 12 -3 25t14 21q14 10 22.5 21t13.5 25t6.5 32.5t1.5 44.5v349q0 38 -14 50t-40 12q-27 0 -51 -12.5t-46 -32.5v-348q0 -13 -9 -22t-22 -9h-52q-13 0 -22 9t-9 22v444
q0 13 9 22t22 9h29q14 0 24.5 -8.5t13.5 -21.5l5 -25q31 30 66.5 49t82.5 19q60 0 93.5 -30t33.5 -102v-370z" />
    <glyph glyph-name="Omacron" unicode="&#x14c;" horiz-adv-x="644" 
d="M587 347q0 -185 -65.5 -272.5t-198.5 -87.5t-200 86t-67 271q0 183 67.5 272t198.5 89q130 0 197.5 -88.5t67.5 -269.5zM187 348q0 -71 7 -121t23 -81.5t41.5 -46.5t63.5 -15q37 0 63 14.5t41.5 46t22.5 81t7 119.5t-7 120t-22.5 81.5t-41.5 46t-63 14.5
q-38 0 -63.5 -14.5t-41.5 -45.5t-23 -80.5t-7 -118.5zM218 741q-13 0 -22 9t-9 22v29q0 13 9 22t22 9h204q13 0 22 -9t9 -22v-29q0 -13 -9 -22t-22 -9h-204z" />
    <glyph glyph-name="omacron" unicode="&#x14d;" horiz-adv-x="518" 
d="M472 253q0 -71 -15 -121.5t-42.5 -82.5t-67 -47t-88.5 -15t-88.5 15t-67 47t-42.5 83t-15 122q0 72 14.5 122t42 82t67 46.5t88.5 14.5t88.5 -15t67.5 -47t43 -82.5t15 -121.5zM167 253q0 -54 5 -88.5t16 -55t28.5 -28.5t42.5 -8t42 8t28 28.5t16 55.5t5 89t-5 89t-16 55
t-28.5 27.5t-42.5 7.5t-42 -7.5t-28 -28t-16 -55.5t-5 -89zM155 567q-13 0 -22 9t-9 22v29q0 13 9 22t22 9h204q13 0 22 -9t9 -22v-29q0 -13 -9 -22t-22 -9h-204z" />
    <glyph glyph-name="Obreve" unicode="&#x14e;" horiz-adv-x="644" 
d="M587 347q0 -185 -65.5 -272.5t-198.5 -87.5t-200 86t-67 271q0 183 67.5 272t198.5 89q130 0 197.5 -88.5t67.5 -269.5zM187 348q0 -71 7 -121t23 -81.5t41.5 -46.5t63.5 -15q37 0 63 14.5t41.5 46t22.5 81t7 119.5t-7 120t-22.5 81.5t-41.5 46t-63 14.5
q-38 0 -63.5 -14.5t-41.5 -45.5t-23 -80.5t-7 -118.5zM465 876q-7 -21 -20 -40t-31 -34t-41.5 -24t-52.5 -9t-53 9t-42 24.5t-31 35t-20 40.5q-4 11 2.5 22.5t18.5 13.5l13 3q14 3 27 -2.5t20 -17.5q10 -17 25 -25t40 -8t40 8t25 25q7 12 20 17.5t27 1.5l13 -3q13 -3 19 -14
t1 -23z" />
    <glyph glyph-name="obreve" unicode="&#x14f;" horiz-adv-x="518" 
d="M472 253q0 -71 -15 -121.5t-42.5 -82.5t-67 -47t-88.5 -15t-88.5 15t-67 47t-42.5 83t-15 122q0 72 14.5 122t42 82t67 46.5t88.5 14.5t88.5 -15t67.5 -47t43 -82.5t15 -121.5zM167 253q0 -54 5 -88.5t16 -55t28.5 -28.5t42.5 -8t42 8t28 28.5t16 55.5t5 89t-5 89t-16 55
t-28.5 27.5t-42.5 7.5t-42 -7.5t-28 -28t-16 -55.5t-5 -89zM402 702q-7 -21 -20 -40t-31 -34t-41.5 -24t-52.5 -9t-53 9t-42 24.5t-31 35t-20 40.5q-4 11 2.5 22.5t18.5 13.5l13 3q14 3 27 -2.5t20 -17.5q10 -17 25 -25t40 -8t40 8t25 25q7 12 20 17.5t27 1.5l13 -3
q13 -3 19 -14t1 -23z" />
    <glyph glyph-name="Ohungarumlaut" unicode="&#x150;" horiz-adv-x="644" 
d="M587 347q0 -185 -65.5 -272.5t-198.5 -87.5t-200 86t-67 271q0 183 67.5 272t198.5 89q130 0 197.5 -88.5t67.5 -269.5zM187 348q0 -71 7 -121t23 -81.5t41.5 -46.5t63.5 -15q37 0 63 14.5t41.5 46t22.5 81t7 119.5t-7 120t-22.5 81.5t-41.5 46t-63 14.5
q-38 0 -63.5 -14.5t-41.5 -45.5t-23 -80.5t-7 -118.5zM250 761q-7 -11 -20 -14t-24 3l-13 7q-11 6 -15 18.5t1 24.5l72 160q5 11 17 15t23 -3l45 -26q11 -7 14 -19t-4 -23zM440 761q-7 -11 -20 -14t-24 3l-12 7q-11 6 -15 18.5t1 24.5l72 160q5 11 17 15t23 -3l45 -26
q11 -7 14 -19t-4 -23z" />
    <glyph glyph-name="ohungarumlaut" unicode="&#x151;" horiz-adv-x="518" 
d="M472 253q0 -71 -15 -121.5t-42.5 -82.5t-67 -47t-88.5 -15t-88.5 15t-67 47t-42.5 83t-15 122q0 72 14.5 122t42 82t67 46.5t88.5 14.5t88.5 -15t67.5 -47t43 -82.5t15 -121.5zM167 253q0 -54 5 -88.5t16 -55t28.5 -28.5t42.5 -8t42 8t28 28.5t16 55.5t5 89t-5 89t-16 55
t-28.5 27.5t-42.5 7.5t-42 -7.5t-28 -28t-16 -55.5t-5 -89zM190 587q-7 -11 -20 -14t-24 3l-13 7q-11 6 -15 18.5t1 24.5l72 160q5 11 17 15t23 -3l45 -26q11 -7 14 -19t-4 -23zM380 587q-7 -11 -20 -14t-24 3l-12 7q-11 6 -15 18.5t1 24.5l72 160q5 11 17 15t23 -3l45 -26
q11 -7 14 -19t-4 -23z" />
    <glyph glyph-name="OE" unicode="&#x152;" horiz-adv-x="831" 
d="M329 0q-60 0 -110 17.5t-86.5 58t-56.5 106t-20 162.5q0 93 18 159t52 108t84 61.5t113 19.5h416q13 0 22 -9t9 -22v-41q0 -13 -9 -22t-22 -9h-211v-177h163q13 0 22 -9t9 -22v-39q0 -13 -9 -22t-22 -9h-163v-207h225q13 0 22 -9t9 -22v-42q0 -13 -9 -22t-22 -9h-424z
M187 341q0 -70 8 -116t25 -73t43.5 -38t63.5 -11h80v485h-81q-36 0 -62.5 -11t-43.5 -38.5t-25 -75.5t-8 -122z" />
    <glyph glyph-name="oe" unicode="&#x153;" horiz-adv-x="799" 
d="M410 69q-47 -82 -152 -82q-49 0 -88.5 15t-67 47t-42 83t-14.5 122q0 72 14.5 122t42 82t66.5 46.5t88 14.5q107 0 153 -81q44 81 148 81q99 0 147.5 -61t48.5 -200v-19q0 -8 -5 -13t-12 -5h-266q1 -44 7.5 -71.5t18.5 -44t31.5 -22.5t46.5 -6q29 0 50.5 7.5t41.5 18.5
q11 7 23.5 4.5t20.5 -13.5l16 -24q8 -11 5.5 -23t-13.5 -20q-29 -19 -64 -29.5t-80 -10.5q-120 0 -165 82zM167 253q0 -54 5 -88.5t16 -55t28.5 -28.5t42.5 -8t42 8t28 28.5t16 55.5t5 89t-5 89t-16 55t-28.5 27.5t-42.5 7.5t-42 -7.5t-28 -28t-16 -55.5t-5 -89zM637 302
q-1 73 -18 102.5t-64 29.5q-19 0 -33.5 -5.5t-25 -20.5t-16.5 -40.5t-8 -65.5h165z" />
    <glyph glyph-name="Racute" unicode="&#x154;" horiz-adv-x="577" 
d="M116 0q-13 0 -22 9t-9 22v630q0 13 9 22t22 9h173q117 0 173 -49t56 -146q0 -41 -8 -71.5t-24 -52t-40 -35.5t-55 -23q30 -11 51 -40t38 -82l53 -164q4 -11 -3 -20t-18 -9h-69q-14 0 -25 8t-15 22l-52 166q-9 29 -18.5 47t-20.5 28.5t-25.5 14t-32.5 3.5h-48v-258
q0 -13 -9 -22t-22 -9h-59zM206 382h85q57 0 78.5 26.5t21.5 83.5q0 53 -22.5 75.5t-78.5 22.5h-84v-208zM221 749q-12 -6 -24.5 -2t-19.5 15l-6 11q-7 11 -4.5 24t13.5 21l142 102q10 7 22 4.5t18 -13.5l27 -46q6 -11 2 -23t-15 -18z" />
    <glyph glyph-name="racute" unicode="&#x155;" horiz-adv-x="361" 
d="M105 0q-13 0 -22 9t-9 22v444q0 13 9 22t22 9h29q14 0 24.5 -8.5t12.5 -21.5l7 -34q26 33 59 53t73 20h8q4 0 8 -1q12 -2 12 -16l-13 -82q-1 -8 -7.5 -12.5t-14.5 -2.5q-5 1 -10.5 1.5t-11.5 0.5q-29 0 -50 -9t-43 -28v-335q0 -13 -9 -22t-22 -9h-52zM144 575
q-12 -6 -24.5 -2t-19.5 15l-6 11q-7 11 -4.5 24t13.5 21l142 102q10 7 22 4.5t18 -13.5l27 -46q6 -11 2 -23t-15 -18z" />
    <glyph glyph-name="Rcommaaccent" unicode="&#x156;" horiz-adv-x="577" 
d="M116 0q-13 0 -22 9t-9 22v630q0 13 9 22t22 9h173q117 0 173 -49t56 -146q0 -41 -8 -71.5t-24 -52t-40 -35.5t-55 -23q30 -11 51 -40t38 -82l53 -164q4 -11 -3 -20t-18 -9h-69q-14 0 -25 8t-15 22l-52 166q-9 29 -18.5 47t-20.5 28.5t-25.5 14t-32.5 3.5h-48v-258
q0 -13 -9 -22t-22 -9h-59zM206 382h85q57 0 78.5 26.5t21.5 83.5q0 53 -22.5 75.5t-78.5 22.5h-84v-208zM234 -248q-3 11 2 20t15 13q18 7 31 17.5t13 27.5q-8 0 -17.5 3.5t-17.5 11t-13.5 19t-5.5 27.5q0 28 18.5 46t46.5 18q32 0 53.5 -22.5t21.5 -61.5q0 -99 -111 -134
q-12 -4 -22.5 0t-13.5 15z" />
    <glyph glyph-name="rcommaaccent" unicode="&#x157;" horiz-adv-x="361" 
d="M105 0q-13 0 -22 9t-9 22v444q0 13 9 22t22 9h29q14 0 24.5 -8.5t12.5 -21.5l7 -34q26 33 59 53t73 20h8q4 0 8 -1q12 -2 12 -16l-13 -82q-1 -8 -7.5 -12.5t-14.5 -2.5q-5 1 -10.5 1.5t-11.5 0.5q-29 0 -50 -9t-43 -28v-335q0 -13 -9 -22t-22 -9h-52zM57 -248q-3 11 2 20
t15 13q18 7 31 17.5t13 27.5q-8 0 -17.5 3.5t-17.5 11t-13.5 19t-5.5 27.5q0 28 18.5 46t46.5 18q32 0 53.5 -22.5t21.5 -61.5q0 -99 -111 -134q-12 -4 -22.5 0t-13.5 15z" />
    <glyph glyph-name="Rcaron" unicode="&#x158;" horiz-adv-x="577" 
d="M116 0q-13 0 -22 9t-9 22v630q0 13 9 22t22 9h173q117 0 173 -49t56 -146q0 -41 -8 -71.5t-24 -52t-40 -35.5t-55 -23q30 -11 51 -40t38 -82l53 -164q4 -11 -3 -20t-18 -9h-69q-14 0 -25 8t-15 22l-52 166q-9 29 -18.5 47t-20.5 28.5t-25.5 14t-32.5 3.5h-48v-258
q0 -13 -9 -22t-22 -9h-59zM206 382h85q57 0 78.5 26.5t21.5 83.5q0 53 -22.5 75.5t-78.5 22.5h-84v-208zM268 743q-14 0 -28 6t-24 16l-81 84q-9 9 -10 22.5t7 24.5l3 4q8 11 20.5 13t23.5 -5l94 -62l93 62q11 7 23.5 5t20.5 -13l2 -4q8 -11 7 -24t-11 -23l-80 -84
q-11 -10 -25 -16t-28 -6h-7z" />
    <glyph glyph-name="rcaron" unicode="&#x159;" horiz-adv-x="361" 
d="M105 0q-13 0 -22 9t-9 22v444q0 13 9 22t22 9h29q14 0 24.5 -8.5t12.5 -21.5l7 -34q26 33 59 53t73 20h8q4 0 8 -1q12 -2 12 -16l-13 -82q-1 -8 -7.5 -12.5t-14.5 -2.5q-5 1 -10.5 1.5t-11.5 0.5q-29 0 -50 -9t-43 -28v-335q0 -13 -9 -22t-22 -9h-52zM176 569
q-14 0 -28 6t-24 16l-81 84q-9 9 -10 22.5t7 24.5l3 4q8 11 20.5 13t23.5 -5l94 -62l93 62q11 7 23.5 5t20.5 -13l2 -4q8 -11 7 -24t-11 -23l-80 -84q-11 -10 -25 -16t-28 -6h-7z" />
    <glyph glyph-name="Sacute" unicode="&#x15a;" horiz-adv-x="537" 
d="M482 196q0 -44 -11.5 -82t-38 -66.5t-70.5 -44.5t-108 -16q-55 0 -104 13.5t-85 35.5q-11 7 -15 19.5t2 24.5l18 36q5 11 17 14.5t23 -2.5q31 -20 63 -29t71 -9q60 0 86.5 26t26.5 71q0 26 -7 44t-21.5 30.5t-35.5 22t-48 19.5q-43 15 -76 32t-55.5 41t-34 57.5
t-11.5 80.5q0 97 56.5 144t149.5 47q49 0 84.5 -8t65.5 -24q11 -6 15.5 -18.5t-1.5 -23.5l-18 -37q-5 -11 -17.5 -15t-23.5 2q-23 11 -45 16.5t-51 5.5q-45 0 -69.5 -20t-24.5 -62q0 -22 4.5 -37t15.5 -26.5t29.5 -21t45.5 -18.5q41 -14 77 -30t63 -40.5t42.5 -60.5
t15.5 -91zM228 749q-12 -6 -24.5 -2t-19.5 15l-6 11q-7 11 -4.5 24t13.5 21l142 102q10 7 22 4.5t18 -13.5l27 -46q6 -11 2 -23t-15 -18z" />
    <glyph glyph-name="sacute" unicode="&#x15b;" horiz-adv-x="431" 
d="M387 146q0 -159 -182 -159q-45 0 -83 10.5t-67 24.5q-12 6 -16 18.5t1 23.5l14 29q5 12 17.5 16t23.5 -2q23 -12 48 -19t52 -7q44 0 61.5 15t17.5 45q0 17 -5 28t-16 19t-30 14t-46 14q-26 7 -49 19t-39.5 30.5t-26 45t-9.5 62.5q0 66 41 106t124 40q38 0 66.5 -5
t53.5 -14q12 -5 17.5 -17t0.5 -24l-11 -29q-5 -12 -16.5 -17.5t-22.5 -0.5q-20 8 -38.5 11t-40.5 3q-65 0 -65 -51q0 -15 4 -25t13 -17t24.5 -12.5t39.5 -11.5q29 -8 55.5 -19t46 -29t31 -45.5t11.5 -69.5zM182 575q-12 -6 -24.5 -2t-19.5 15l-6 11q-7 11 -4.5 24t13.5 21
l142 102q10 7 22 4.5t18 -13.5l27 -46q6 -11 2 -23t-15 -18z" />
    <glyph glyph-name="Scircumflex" unicode="&#x15c;" horiz-adv-x="537" 
d="M482 196q0 -44 -11.5 -82t-38 -66.5t-70.5 -44.5t-108 -16q-55 0 -104 13.5t-85 35.5q-11 7 -15 19.5t2 24.5l18 36q5 11 17 14.5t23 -2.5q31 -20 63 -29t71 -9q60 0 86.5 26t26.5 71q0 26 -7 44t-21.5 30.5t-35.5 22t-48 19.5q-43 15 -76 32t-55.5 41t-34 57.5
t-11.5 80.5q0 97 56.5 144t149.5 47q49 0 84.5 -8t65.5 -24q11 -6 15.5 -18.5t-1.5 -23.5l-18 -37q-5 -11 -17.5 -15t-23.5 2q-23 11 -45 16.5t-51 5.5q-45 0 -69.5 -20t-24.5 -62q0 -22 4.5 -37t15.5 -26.5t29.5 -21t45.5 -18.5q41 -14 77 -30t63 -40.5t42.5 -60.5
t15.5 -91zM169 756q-11 -7 -23.5 -5t-20.5 13l-2 3q-8 11 -7 24.5t10 22.5l82 85q10 10 24 16t28 6h7q14 0 28 -6t24 -16l81 -85q9 -9 10 -22.5t-7 -24.5l-2 -3q-8 -11 -20.5 -13.5t-23.5 5.5l-95 61z" />
    <glyph glyph-name="scircumflex" unicode="&#x15d;" horiz-adv-x="431" 
d="M387 146q0 -159 -182 -159q-45 0 -83 10.5t-67 24.5q-12 6 -16 18.5t1 23.5l14 29q5 12 17.5 16t23.5 -2q23 -12 48 -19t52 -7q44 0 61.5 15t17.5 45q0 17 -5 28t-16 19t-30 14t-46 14q-26 7 -49 19t-39.5 30.5t-26 45t-9.5 62.5q0 66 41 106t124 40q38 0 66.5 -5
t53.5 -14q12 -5 17.5 -17t0.5 -24l-11 -29q-5 -12 -16.5 -17.5t-22.5 -0.5q-20 8 -38.5 11t-40.5 3q-65 0 -65 -51q0 -15 4 -25t13 -17t24.5 -12.5t39.5 -11.5q29 -8 55.5 -19t46 -29t31 -45.5t11.5 -69.5zM126 582q-11 -7 -23.5 -5t-20.5 13l-2 3q-8 11 -7 24.5t10 22.5
l82 85q10 10 24 16t28 6h7q14 0 28 -6t24 -16l81 -85q9 -9 10 -22.5t-7 -24.5l-2 -3q-8 -11 -20.5 -13.5t-23.5 5.5l-95 61z" />
    <glyph glyph-name="Scedilla" unicode="&#x15e;" horiz-adv-x="537" 
d="M346 -130q0 -18 -5.5 -34t-18 -28t-33 -19t-50.5 -7q-28 0 -56 10q-11 4 -16 14t0 22q4 12 15.5 17t22.5 2q7 -2 14 -3t15 -1q38 0 38 31q0 17 -9 24t-30 7q-6 0 -11 -0.5t-10 -0.5q-6 -2 -10.5 3t-2.5 11l21 71q-45 4 -85 16t-70 31q-11 7 -15 19.5t2 24.5l18 36
q5 11 17 14.5t23 -2.5q31 -20 63 -29t71 -9q60 0 86.5 26t26.5 71q0 26 -7 44t-21.5 30.5t-35.5 22t-48 19.5q-43 15 -76 32t-55.5 41t-34 57.5t-11.5 80.5q0 97 56.5 144t149.5 47q49 0 84.5 -8t65.5 -24q11 -6 15.5 -18.5t-1.5 -23.5l-18 -37q-5 -11 -17.5 -15t-23.5 2
q-23 11 -45 16.5t-51 5.5q-45 0 -69.5 -20t-24.5 -62q0 -22 4.5 -37t15.5 -26.5t29.5 -21t45.5 -18.5q41 -14 77 -30t63 -40.5t42.5 -60.5t15.5 -91q0 -41 -10 -77t-32.5 -64t-60.5 -45.5t-93 -21.5l-12 -36q38 -5 55 -26.5t17 -55.5z" />
    <glyph glyph-name="scedilla" unicode="&#x15f;" horiz-adv-x="431" 
d="M297 -130q0 -18 -5.5 -34t-18 -28t-33 -19t-50.5 -7q-28 0 -56 10q-11 4 -16 14t0 22q4 12 15.5 17t22.5 2q7 -2 14 -3t15 -1q38 0 38 31q0 17 -9 24t-30 7q-6 0 -11 -0.5t-10 -0.5q-6 -2 -10.5 3t-2.5 11l21 71q-34 4 -63.5 12.5t-52.5 20.5q-12 6 -16 18.5t1 23.5
l14 29q5 12 17.5 16t23.5 -2q23 -12 48 -19t52 -7q44 0 61.5 15t17.5 45q0 17 -5 28t-16 19t-30 14t-46 14q-26 7 -49 19t-39.5 30.5t-26 45t-9.5 62.5q0 66 41 106t124 40q38 0 66.5 -5t53.5 -14q12 -5 17.5 -17t0.5 -24l-11 -29q-5 -12 -16.5 -17.5t-22.5 -0.5
q-20 8 -38.5 11t-40.5 3q-65 0 -65 -51q0 -15 4 -25t13 -17t24.5 -12.5t39.5 -11.5q29 -8 55.5 -19t46 -29t31 -45.5t11.5 -69.5q0 -72 -36.5 -111.5t-113.5 -45.5l-12 -37q38 -5 55 -26.5t17 -55.5z" />
    <glyph glyph-name="Scaron" unicode="&#x160;" horiz-adv-x="537" 
d="M482 196q0 -44 -11.5 -82t-38 -66.5t-70.5 -44.5t-108 -16q-55 0 -104 13.5t-85 35.5q-11 7 -15 19.5t2 24.5l18 36q5 11 17 14.5t23 -2.5q31 -20 63 -29t71 -9q60 0 86.5 26t26.5 71q0 26 -7 44t-21.5 30.5t-35.5 22t-48 19.5q-43 15 -76 32t-55.5 41t-34 57.5
t-11.5 80.5q0 97 56.5 144t149.5 47q49 0 84.5 -8t65.5 -24q11 -6 15.5 -18.5t-1.5 -23.5l-18 -37q-5 -11 -17.5 -15t-23.5 2q-23 11 -45 16.5t-51 5.5q-45 0 -69.5 -20t-24.5 -62q0 -22 4.5 -37t15.5 -26.5t29.5 -21t45.5 -18.5q41 -14 77 -30t63 -40.5t42.5 -60.5
t15.5 -91zM257 743q-14 0 -28 6t-24 16l-81 84q-9 9 -10 22.5t7 24.5l3 4q8 11 20.5 13t23.5 -5l94 -62l93 62q11 7 23.5 5t20.5 -13l2 -4q8 -11 7 -24t-11 -23l-80 -84q-11 -10 -25 -16t-28 -6h-7z" />
    <glyph glyph-name="scaron" unicode="&#x161;" horiz-adv-x="431" 
d="M387 146q0 -159 -182 -159q-45 0 -83 10.5t-67 24.5q-12 6 -16 18.5t1 23.5l14 29q5 12 17.5 16t23.5 -2q23 -12 48 -19t52 -7q44 0 61.5 15t17.5 45q0 17 -5 28t-16 19t-30 14t-46 14q-26 7 -49 19t-39.5 30.5t-26 45t-9.5 62.5q0 66 41 106t124 40q38 0 66.5 -5
t53.5 -14q12 -5 17.5 -17t0.5 -24l-11 -29q-5 -12 -16.5 -17.5t-22.5 -0.5q-20 8 -38.5 11t-40.5 3q-65 0 -65 -51q0 -15 4 -25t13 -17t24.5 -12.5t39.5 -11.5q29 -8 55.5 -19t46 -29t31 -45.5t11.5 -69.5zM215 569q-14 0 -28 6t-24 16l-81 84q-9 9 -10 22.5t7 24.5l3 4
q8 11 20.5 13t23.5 -5l94 -62l93 62q11 7 23.5 5t20.5 -13l2 -4q8 -11 7 -24t-11 -23l-80 -84q-11 -10 -25 -16t-28 -6h-7z" />
    <glyph glyph-name="Tcommaaccent" unicode="&#x162;" horiz-adv-x="506" 
d="M338 -130q0 -18 -5.5 -34t-18 -28t-33 -19t-50.5 -7q-28 0 -56 10q-11 4 -16 14t0 22q4 12 15.5 17t22.5 2q7 -2 14 -3t15 -1q38 0 38 31q0 17 -9 24t-30 7q-6 0 -11 -0.5t-10 -0.5q-6 -2 -10 3t-2 11l24 83q-10 2 -16.5 10.5t-6.5 19.5v557h-126q-13 0 -22 9t-9 22v42
q0 13 9 22t22 9h371q13 0 22 -9t9 -22v-42q0 -13 -9 -22t-22 -9h-126v-557q0 -13 -8.5 -21.5t-20.5 -9.5l-17 -48q38 -5 55 -26.5t17 -55.5z" />
    <glyph glyph-name="tcommaaccent" unicode="&#x163;" horiz-adv-x="335" 
d="M279 -130q0 -18 -5.5 -34t-18 -28t-33 -19t-50.5 -7q-28 0 -56 10q-11 4 -16 14t0 22q4 12 15.5 17t22.5 2q7 -2 14 -3t15 -1q38 0 38 31q0 17 -9 24t-30 7q-6 0 -11 -0.5t-10 -0.5q-6 -2 -10 3t-2 11l22 78q-32 10 -50.5 35.5t-18.5 72.5v314h-24q-13 0 -22 9t-9 22v26
q0 13 9 22t22 9h24v96q0 14 8.5 24.5t21.5 12.5l53 10q11 2 20.5 -5.5t9.5 -19.5v-118h68q13 0 22 -9t9 -22v-26q0 -13 -9 -22t-22 -9h-68v-293q0 -29 9.5 -39.5t29.5 -10.5q8 0 14.5 1t12.5 3q9 3 18 -2t11 -15l6 -26q3 -13 -3.5 -24.5t-19.5 -15.5q-12 -4 -26.5 -6.5
t-31.5 -2.5l-12 -35q38 -5 55 -26.5t17 -55.5z" />
    <glyph glyph-name="Tcaron" unicode="&#x164;" horiz-adv-x="506" 
d="M224 0q-13 0 -22 9t-9 22v557h-126q-13 0 -22 9t-9 22v42q0 13 9 22t22 9h371q13 0 22 -9t9 -22v-42q0 -13 -9 -22t-22 -9h-126v-557q0 -13 -9 -22t-22 -9h-57zM247 743q-14 0 -28 6t-24 16l-81 84q-9 9 -10 22.5t7 24.5l3 4q8 11 20.5 13t23.5 -5l94 -62l93 62
q11 7 23.5 5t20.5 -13l2 -4q8 -11 7 -24t-11 -23l-80 -84q-11 -10 -25 -16t-28 -6h-7z" />
    <glyph glyph-name="tcaron" unicode="&#x165;" horiz-adv-x="335" 
d="M62 418q-13 0 -22 9t-9 22v26q0 13 9 22t22 9h24v96q0 14 8.5 24.5t21.5 12.5l53 10q11 2 20.5 -5.5t9.5 -19.5v-118h68q13 0 22 -9t9 -22v-26q0 -13 -9 -22t-22 -9h-68v-293q0 -29 9.5 -39.5t29.5 -10.5q8 0 14.5 1t12.5 3q9 3 18 -2t11 -15l6 -26q3 -13 -3.5 -24.5
t-19.5 -15.5q-12 -4 -26.5 -6.5t-32.5 -2.5q-29 0 -53.5 6t-42 19.5t-27 36t-9.5 55.5v314h-24zM379 601q-2 -14 -11.5 -22.5t-23.5 -8.5h-26q-13 0 -22 9t-9 22l1 102q0 13 9 22t22 9h47q12 0 20.5 -9.5t6.5 -21.5z" />
    <glyph glyph-name="Tbar" unicode="&#x166;" horiz-adv-x="506" 
d="M91 325q-13 0 -22 9t-9 22v19q0 13 9 22t22 9h102v182h-126q-13 0 -22 9t-9 22v42q0 13 9 22t22 9h371q13 0 22 -9t9 -22v-42q0 -13 -9 -22t-22 -9h-126v-182h103q13 0 22 -9t9 -22v-19q0 -13 -9 -22t-22 -9h-103v-294q0 -13 -9 -22t-22 -9h-57q-13 0 -22 9t-9 22v294
h-102z" />
    <glyph glyph-name="tbar" unicode="&#x167;" horiz-adv-x="335" 
d="M62 418q-13 0 -22 9t-9 22v26q0 13 9 22t22 9h24v96q0 14 8.5 24.5t21.5 12.5l53 10q11 2 20.5 -5.5t9.5 -19.5v-118h68q13 0 22 -9t9 -22v-26q0 -13 -9 -22t-22 -9h-68v-101h68q13 0 22 -9t9 -22v-19q0 -13 -9 -22t-22 -9h-68v-111q0 -29 9.5 -39.5t29.5 -10.5
q8 0 14.5 1t12.5 3q9 3 18 -2t11 -15l6 -26q3 -13 -3.5 -24.5t-19.5 -15.5q-12 -4 -26.5 -6.5t-32.5 -2.5q-29 0 -53.5 6t-42 19.5t-27 36t-9.5 55.5v132h-24q-13 0 -22 9t-9 22v19q0 13 9 22t22 9h24v101h-24z" />
    <glyph glyph-name="Utilde" unicode="&#x168;" horiz-adv-x="622" 
d="M431 56q-26 -28 -64 -48.5t-94 -20.5q-41 0 -76.5 12t-61.5 38.5t-41 70t-15 106.5v447q0 13 9 22t22 9h59q13 0 22 -9t9 -22v-448q0 -63 17.5 -92.5t74.5 -29.5q45 0 75 15.5t49 32.5v522q0 13 9 22t22 9h59q13 0 22 -9t9 -22v-630q0 -13 -9 -22t-22 -9h-26q-14 0 -25 8
t-15 22zM251 787q-16 0 -31 -15q-9 -10 -22.5 -11t-24.5 7l-7 4q-11 8 -14 21t4 24q38 69 96 69q21 0 37 -6t29 -13l25 -12q12 -6 27 -6q17 0 31 15q9 9 22.5 10.5t24.5 -6.5l7 -4q11 -8 14 -21t-4 -24q-38 -69 -96 -69q-21 0 -37 6t-29 12l-25 13q-12 6 -27 6z" />
    <glyph glyph-name="utilde" unicode="&#x169;" horiz-adv-x="526" 
d="M348 56q-30 -30 -62.5 -49.5t-80.5 -19.5q-58 0 -96.5 33.5t-38.5 104.5v350q0 13 9 22t22 9h52q13 0 22 -9t9 -22v-323q0 -41 14.5 -55.5t42.5 -14.5q26 0 50 13t47 33v347q0 13 9 22t22 9h51q13 0 22 -9t9 -22v-444q0 -13 -9 -22t-22 -9h-29q-14 0 -24.5 8.5
t-12.5 21.5zM202 613q-16 0 -31 -15q-9 -10 -22.5 -11t-24.5 7l-7 4q-11 8 -14 21t4 24q38 69 96 69q21 0 37 -6t29 -13l25 -12q12 -6 27 -6q17 0 31 15q9 9 22.5 10.5t24.5 -6.5l7 -4q11 -8 14 -21t-4 -24q-38 -69 -96 -69q-21 0 -37 6t-29 12l-25 13q-12 6 -27 6z" />
    <glyph glyph-name="Umacron" unicode="&#x16a;" horiz-adv-x="622" 
d="M431 56q-26 -28 -64 -48.5t-94 -20.5q-41 0 -76.5 12t-61.5 38.5t-41 70t-15 106.5v447q0 13 9 22t22 9h59q13 0 22 -9t9 -22v-448q0 -63 17.5 -92.5t74.5 -29.5q45 0 75 15.5t49 32.5v522q0 13 9 22t22 9h59q13 0 22 -9t9 -22v-630q0 -13 -9 -22t-22 -9h-26q-14 0 -25 8
t-15 22zM209 741q-13 0 -22 9t-9 22v29q0 13 9 22t22 9h204q13 0 22 -9t9 -22v-29q0 -13 -9 -22t-22 -9h-204z" />
    <glyph glyph-name="umacron" unicode="&#x16b;" horiz-adv-x="526" 
d="M348 56q-30 -30 -62.5 -49.5t-80.5 -19.5q-58 0 -96.5 33.5t-38.5 104.5v350q0 13 9 22t22 9h52q13 0 22 -9t9 -22v-323q0 -41 14.5 -55.5t42.5 -14.5q26 0 50 13t47 33v347q0 13 9 22t22 9h51q13 0 22 -9t9 -22v-444q0 -13 -9 -22t-22 -9h-29q-14 0 -24.5 8.5
t-12.5 21.5zM159 567q-13 0 -22 9t-9 22v29q0 13 9 22t22 9h204q13 0 22 -9t9 -22v-29q0 -13 -9 -22t-22 -9h-204z" />
    <glyph glyph-name="Ubreve" unicode="&#x16c;" horiz-adv-x="622" 
d="M431 56q-26 -28 -64 -48.5t-94 -20.5q-41 0 -76.5 12t-61.5 38.5t-41 70t-15 106.5v447q0 13 9 22t22 9h59q13 0 22 -9t9 -22v-448q0 -63 17.5 -92.5t74.5 -29.5q45 0 75 15.5t49 32.5v522q0 13 9 22t22 9h59q13 0 22 -9t9 -22v-630q0 -13 -9 -22t-22 -9h-26q-14 0 -25 8
t-15 22zM455 876q-7 -21 -20 -40t-31 -34t-41.5 -24t-52.5 -9t-53 9t-42 24.5t-31 35t-20 40.5q-4 11 2.5 22.5t18.5 13.5l13 3q14 3 27 -2.5t20 -17.5q10 -17 25 -25t40 -8t40 8t25 25q7 12 20 17.5t27 1.5l13 -3q13 -3 19 -14t1 -23z" />
    <glyph glyph-name="ubreve" unicode="&#x16d;" horiz-adv-x="526" 
d="M348 56q-30 -30 -62.5 -49.5t-80.5 -19.5q-58 0 -96.5 33.5t-38.5 104.5v350q0 13 9 22t22 9h52q13 0 22 -9t9 -22v-323q0 -41 14.5 -55.5t42.5 -14.5q26 0 50 13t47 33v347q0 13 9 22t22 9h51q13 0 22 -9t9 -22v-444q0 -13 -9 -22t-22 -9h-29q-14 0 -24.5 8.5
t-12.5 21.5zM406 702q-7 -21 -20 -40t-31 -34t-41.5 -24t-52.5 -9t-53 9t-42 24.5t-31 35t-20 40.5q-4 11 2.5 22.5t18.5 13.5l13 3q14 3 27 -2.5t20 -17.5q10 -17 25 -25t40 -8t40 8t25 25q7 12 20 17.5t27 1.5l13 -3q13 -3 19 -14t1 -23z" />
    <glyph glyph-name="Uring" unicode="&#x16e;" horiz-adv-x="622" 
d="M431 56q-26 -28 -64 -48.5t-94 -20.5q-41 0 -76.5 12t-61.5 38.5t-41 70t-15 106.5v447q0 13 9 22t22 9h59q13 0 22 -9t9 -22v-448q0 -63 17.5 -92.5t74.5 -29.5q45 0 75 15.5t49 32.5v522q0 13 9 22t22 9h59q13 0 22 -9t9 -22v-630q0 -13 -9 -22t-22 -9h-26q-14 0 -25 8
t-15 22zM416 838q0 -45 -28.5 -77t-77.5 -32q-48 0 -76.5 32t-28.5 77q0 46 28.5 78t76.5 32q49 0 77.5 -32t28.5 -78zM271 838q0 -27 9 -41t30 -14q22 0 31 14t9 41q0 28 -9 41.5t-31 13.5q-21 0 -30 -13.5t-9 -41.5z" />
    <glyph glyph-name="uring" unicode="&#x16f;" horiz-adv-x="526" 
d="M348 56q-30 -30 -62.5 -49.5t-80.5 -19.5q-58 0 -96.5 33.5t-38.5 104.5v350q0 13 9 22t22 9h52q13 0 22 -9t9 -22v-323q0 -41 14.5 -55.5t42.5 -14.5q26 0 50 13t47 33v347q0 13 9 22t22 9h51q13 0 22 -9t9 -22v-444q0 -13 -9 -22t-22 -9h-29q-14 0 -24.5 8.5
t-12.5 21.5zM367 671q0 -45 -28.5 -77t-77.5 -32q-48 0 -76.5 32t-28.5 77q0 46 28.5 78t76.5 32q49 0 77.5 -32t28.5 -78zM222 671q0 -27 9 -41t30 -14q22 0 31 14t9 41q0 28 -9 41.5t-31 13.5q-21 0 -30 -13.5t-9 -41.5z" />
    <glyph glyph-name="Uhungarumlaut" unicode="&#x170;" horiz-adv-x="622" 
d="M431 56q-26 -28 -64 -48.5t-94 -20.5q-41 0 -76.5 12t-61.5 38.5t-41 70t-15 106.5v447q0 13 9 22t22 9h59q13 0 22 -9t9 -22v-448q0 -63 17.5 -92.5t74.5 -29.5q45 0 75 15.5t49 32.5v522q0 13 9 22t22 9h59q13 0 22 -9t9 -22v-630q0 -13 -9 -22t-22 -9h-26q-14 0 -25 8
t-15 22zM245 761q-7 -11 -20 -14t-24 3l-13 7q-11 6 -15 18.5t1 24.5l72 160q5 11 17 15t23 -3l45 -26q11 -7 14 -19t-4 -23zM435 761q-7 -11 -20 -14t-24 3l-12 7q-11 6 -15 18.5t1 24.5l72 160q5 11 17 15t23 -3l45 -26q11 -7 14 -19t-4 -23z" />
    <glyph glyph-name="uhungarumlaut" unicode="&#x171;" horiz-adv-x="526" 
d="M348 56q-30 -30 -62.5 -49.5t-80.5 -19.5q-58 0 -96.5 33.5t-38.5 104.5v350q0 13 9 22t22 9h52q13 0 22 -9t9 -22v-323q0 -41 14.5 -55.5t42.5 -14.5q26 0 50 13t47 33v347q0 13 9 22t22 9h51q13 0 22 -9t9 -22v-444q0 -13 -9 -22t-22 -9h-29q-14 0 -24.5 8.5
t-12.5 21.5zM195 587q-7 -11 -20 -14t-24 3l-13 7q-11 6 -15 18.5t1 24.5l72 160q5 11 17 15t23 -3l45 -26q11 -7 14 -19t-4 -23zM385 587q-7 -11 -20 -14t-24 3l-12 7q-11 6 -15 18.5t1 24.5l72 160q5 11 17 15t23 -3l45 -26q11 -7 14 -19t-4 -23z" />
    <glyph glyph-name="Uogonek" unicode="&#x172;" horiz-adv-x="622" 
d="M542 -206q-12 -5 -27 -8.5t-34 -3.5q-51 0 -74.5 25.5t-23.5 60.5q0 40 20.5 74.5t45.5 57.5l-18 56q-26 -28 -64 -48.5t-94 -20.5q-41 0 -76.5 12t-61.5 38.5t-41 70t-15 106.5v447q0 13 9 22t22 9h59q13 0 22 -9t9 -22v-448q0 -63 17.5 -92.5t74.5 -29.5q45 0 75 15.5
t49 32.5v522q0 13 9 22t22 9h59q13 0 22 -9t9 -22v-647q0 -14 -14 -14h-1q-27 -32 -44.5 -64t-17.5 -59q0 -30 30 -30q8 0 15 1t13 3q11 4 21.5 -1t15.5 -15l2 -4q5 -11 0.5 -22t-15.5 -15z" />
    <glyph glyph-name="uogonek" unicode="&#x173;" horiz-adv-x="526" 
d="M453 -206q-12 -5 -27 -8.5t-34 -3.5q-51 0 -74.5 25.5t-23.5 60.5q0 40 20.5 74.5t45.5 57.5l-12 56q-30 -30 -62.5 -49.5t-80.5 -19.5q-58 0 -96.5 33.5t-38.5 104.5v350q0 13 9 22t22 9h52q13 0 22 -9t9 -22v-323q0 -41 14.5 -55.5t42.5 -14.5q26 0 50 13t47 33v347
q0 13 9 22t22 9h51q13 0 22 -9t9 -22v-458q0 -7 -5 -12t-12 -5h-1q-27 -32 -44.5 -64t-17.5 -59q0 -30 30 -30q8 0 15 1t13 3q11 4 21.5 -1t15.5 -15l2 -4q5 -11 0.5 -22t-15.5 -15z" />
    <glyph glyph-name="Wcircumflex" unicode="&#x174;" horiz-adv-x="803" 
d="M204 0q-14 0 -24.5 8.5t-12.5 21.5l-130 632q-2 11 5.5 20.5t19.5 9.5h65q14 0 24.5 -8.5t12.5 -21.5l50 -263q8 -41 13.5 -80.5t9.5 -74.5t6.5 -62.5t4.5 -42.5h2q4 38 12.5 102.5t24.5 145.5l55 275q2 13 12.5 21.5t24.5 8.5h55q14 0 24.5 -8.5t12.5 -21.5l56 -276
q12 -62 21 -128.5t14 -118.5h1q2 24 5.5 55.5t8 66.5t10 71.5t11.5 70.5l47 259q2 12 12.5 21t24.5 9h59q12 0 19.5 -9.5t5.5 -20.5l-131 -632q-2 -13 -12.5 -21.5t-24.5 -8.5h-71q-14 0 -24.5 8.5t-12.5 21.5l-57 286q-6 29 -10.5 59.5t-8 58t-6.5 51.5t-4 40h-2
q-2 -14 -5 -41t-7 -57.5t-8.5 -59.5t-8.5 -48l-59 -289q-2 -13 -12.5 -21.5t-24.5 -8.5h-73zM306 756q-11 -7 -23.5 -5t-20.5 13l-2 3q-8 11 -7 24.5t10 22.5l82 85q10 10 24 16t28 6h7q14 0 28 -6t24 -16l81 -85q9 -9 10 -22.5t-7 -24.5l-2 -3q-8 -11 -20.5 -13.5
t-23.5 5.5l-95 61z" />
    <glyph glyph-name="wcircumflex" unicode="&#x175;" horiz-adv-x="700" 
d="M187 0q-14 0 -24.5 8.5t-14.5 21.5l-116 446q-3 11 4 20.5t19 9.5h55q14 0 24.5 -8.5t13.5 -21.5l43 -190q3 -13 6.5 -36t7 -46.5t5.5 -43.5l4 -28h1q1 7 3 23t5.5 36.5t7.5 42.5t9 41l50 201q3 13 13.5 21.5t24.5 8.5h48q14 0 24.5 -8.5t13.5 -21.5l48 -202
q4 -19 8.5 -40.5t8 -42t6 -36t3.5 -22.5h1q1 7 3 24.5t5.5 39.5t7.5 45t8 43l42 191q3 13 13.5 21.5t24.5 8.5h53q12 0 19 -9.5t4 -20.5l-120 -446q-4 -14 -14.5 -22t-24.5 -8h-45q-14 0 -24.5 8.5t-13.5 21.5l-52 211q-8 35 -14.5 72.5t-11.5 68.5h-1q-4 -24 -10 -63.5
t-16 -79.5l-52 -209q-3 -13 -13.5 -21.5t-24.5 -8.5h-45zM256 582q-11 -7 -23.5 -5t-20.5 13l-2 3q-8 11 -7 24.5t10 22.5l82 85q10 10 24 16t28 6h7q14 0 28 -6t24 -16l81 -85q9 -9 10 -22.5t-7 -24.5l-2 -3q-8 -11 -20.5 -13.5t-23.5 5.5l-95 61z" />
    <glyph glyph-name="Ycircumflex" unicode="&#x176;" horiz-adv-x="545" 
d="M241 0q-13 0 -22 9t-9 22v256l-176 377q-5 10 1 19t17 9h74q14 0 26 -8t17 -21l67 -160q13 -32 22.5 -59t16.5 -56q8 29 17 60t19 54l71 162q5 13 17 20.5t26 7.5h68q11 0 17 -9t1 -19l-180 -377v-256q0 -13 -9 -22t-22 -9h-59zM177 756q-11 -7 -23.5 -5t-20.5 13l-2 3
q-8 11 -7 24.5t10 22.5l82 85q10 10 24 16t28 6h7q14 0 28 -6t24 -16l81 -85q9 -9 10 -22.5t-7 -24.5l-2 -3q-8 -11 -20.5 -13.5t-23.5 5.5l-95 61z" />
    <glyph glyph-name="ycircumflex" unicode="&#x177;" horiz-adv-x="484" 
d="M303 -11q-16 -51 -33 -84t-38 -54t-49 -32.5t-66 -19.5q-13 -2 -24 5t-15 19l-8 33q-3 12 3.5 23.5t18.5 14.5q24 6 41 14t29.5 20t22.5 29.5t19 42.5h-1q-12 0 -21.5 7.5t-13.5 18.5l-138 450q-3 11 3.5 20.5t18.5 9.5h59q14 0 24.5 -8.5t14.5 -21.5l65 -248
q11 -40 17 -70.5t10 -57.5h1q5 26 10.5 58.5t16.5 70.5l67 247q4 14 14.5 22t24.5 8h56q12 0 18.5 -9.5t3.5 -20.5zM148 582q-11 -7 -23.5 -5t-20.5 13l-2 3q-8 11 -7 24.5t10 22.5l82 85q10 10 24 16t28 6h7q14 0 28 -6t24 -16l81 -85q9 -9 10 -22.5t-7 -24.5l-2 -3
q-8 -11 -20.5 -13.5t-23.5 5.5l-95 61z" />
    <glyph glyph-name="Ydieresis" unicode="&#x178;" horiz-adv-x="545" 
d="M241 0q-13 0 -22 9t-9 22v256l-176 377q-5 10 1 19t17 9h74q14 0 26 -8t17 -21l67 -160q13 -32 22.5 -59t16.5 -56q8 29 17 60t19 54l71 162q5 13 17 20.5t26 7.5h68q11 0 17 -9t1 -19l-180 -377v-256q0 -13 -9 -22t-22 -9h-59zM238 808q0 -29 -20.5 -48.5t-46.5 -19.5
q-27 0 -47.5 19.5t-20.5 48.5t20 48.5t47 19.5t47.5 -19.5t20.5 -48.5zM440 808q0 -29 -20.5 -48.5t-46.5 -19.5q-27 0 -47.5 19.5t-20.5 48.5t20 48.5t47 19.5t47.5 -19.5t20.5 -48.5z" />
    <glyph glyph-name="Zacute" unicode="&#x179;" horiz-adv-x="503" 
d="M72 0q-13 0 -22 9t-9 22v26q0 14 4 30t11 28l259 473h-221q-13 0 -22 9t-9 22v42q0 13 9 22t22 9h332q13 0 22 -9t9 -22v-29q0 -14 -4 -30t-11 -28l-259 -470h242q13 0 22 -9t9 -22v-42q0 -13 -9 -22t-22 -9h-353zM223 749q-12 -6 -24.5 -2t-19.5 15l-6 11q-7 11 -4.5 24
t13.5 21l142 102q10 7 22 4.5t18 -13.5l27 -46q6 -11 2 -23t-15 -18z" />
    <glyph glyph-name="zacute" unicode="&#x17a;" horiz-adv-x="428" 
d="M73 0q-13 0 -22 9t-9 22v26q0 14 4.5 29.5t12.5 27.5l199 302h-165q-13 0 -22 9t-9 22v28q0 13 9 22t22 9h258q13 0 22 -9t9 -22v-28q0 -14 -4.5 -29.5t-12.5 -27.5l-196 -299h187q13 0 22 -9t9 -22v-29q0 -13 -9 -22t-22 -9h-283zM186 575q-12 -6 -24.5 -2t-19.5 15
l-6 11q-7 11 -4.5 24t13.5 21l142 102q10 7 22 4.5t18 -13.5l27 -46q6 -11 2 -23t-15 -18z" />
    <glyph glyph-name="Zdotaccent" unicode="&#x17b;" horiz-adv-x="503" 
d="M72 0q-13 0 -22 9t-9 22v26q0 14 4 30t11 28l259 473h-221q-13 0 -22 9t-9 22v42q0 13 9 22t22 9h332q13 0 22 -9t9 -22v-29q0 -14 -4 -30t-11 -28l-259 -470h242q13 0 22 -9t9 -22v-42q0 -13 -9 -22t-22 -9h-353zM256 734q-30 0 -51 21t-21 52t21 52.5t52 21.5t52 -21
t21 -53q0 -31 -21 -52t-53 -21z" />
    <glyph glyph-name="zdotaccent" unicode="&#x17c;" horiz-adv-x="428" 
d="M73 0q-13 0 -22 9t-9 22v26q0 14 4.5 29.5t12.5 27.5l199 302h-165q-13 0 -22 9t-9 22v28q0 13 9 22t22 9h258q13 0 22 -9t9 -22v-28q0 -14 -4.5 -29.5t-12.5 -27.5l-196 -299h187q13 0 22 -9t9 -22v-29q0 -13 -9 -22t-22 -9h-283zM220 582q-30 0 -51 21t-21 52t21 52.5
t52 21.5t52 -21t21 -53q0 -31 -21 -52t-53 -21z" />
    <glyph glyph-name="Zcaron" unicode="&#x17d;" horiz-adv-x="503" 
d="M72 0q-13 0 -22 9t-9 22v26q0 14 4 30t11 28l259 473h-221q-13 0 -22 9t-9 22v42q0 13 9 22t22 9h332q13 0 22 -9t9 -22v-29q0 -14 -4 -30t-11 -28l-259 -470h242q13 0 22 -9t9 -22v-42q0 -13 -9 -22t-22 -9h-353zM255 743q-14 0 -28 6t-24 16l-81 84q-9 9 -10 22.5
t7 24.5l3 4q8 11 20.5 13t23.5 -5l94 -62l93 62q11 7 23.5 5t20.5 -13l2 -4q8 -11 7 -24t-11 -23l-80 -84q-11 -10 -25 -16t-28 -6h-7z" />
    <glyph glyph-name="zcaron" unicode="&#x17e;" horiz-adv-x="428" 
d="M73 0q-13 0 -22 9t-9 22v26q0 14 4.5 29.5t12.5 27.5l199 302h-165q-13 0 -22 9t-9 22v28q0 13 9 22t22 9h258q13 0 22 -9t9 -22v-28q0 -14 -4.5 -29.5t-12.5 -27.5l-196 -299h187q13 0 22 -9t9 -22v-29q0 -13 -9 -22t-22 -9h-283zM218 569q-14 0 -28 6t-24 16l-81 84
q-9 9 -10 22.5t7 24.5l3 4q8 11 20.5 13t23.5 -5l94 -62l93 62q11 7 23.5 5t20.5 -13l2 -4q8 -11 7 -24t-11 -23l-80 -84q-11 -10 -25 -16t-28 -6h-7z" />
    <glyph glyph-name="longs" unicode="&#x17f;" horiz-adv-x="308" 
d="M106 0q-13 0 -22 9t-9 22v546q0 49 11.5 79.5t31 48t45 24t53.5 6.5q25 0 45.5 -3.5t37.5 -9.5q12 -5 17 -16.5t0 -22.5l-10 -25q-4 -11 -15 -16.5t-22 -2.5q-12 4 -30 4q-27 0 -39 -14.5t-12 -46.5v-551q0 -13 -9 -22t-22 -9h-51z" />
    <glyph glyph-name="uni018F" unicode="&#x18f;" horiz-adv-x="637" 
d="M317 83q27 0 50 10t39.5 33.5t27.5 63t14 98.5h-264q1 -109 34 -157t99 -48zM130 659q40 24 79.5 34.5t92.5 10.5q69 0 121 -20.5t87.5 -64t53.5 -111.5t18 -163q0 -96 -18 -163.5t-52.5 -111t-84.5 -63.5t-114 -20t-112.5 19.5t-81 61.5t-49 108.5t-16.5 160.5v14
q0 13 9 22t22 9h364q-5 118 -39.5 169t-108.5 51q-44 0 -69.5 -7.5t-50.5 -24.5q-10 -7 -22.5 -3.5t-18.5 14.5l-21 36q-6 11 -3 23t14 19z" />
    <glyph glyph-name="florin" unicode="&#x192;" 
d="M150 350q-13 0 -22 9t-9 22v27q0 13 9 22t22 9h52l11 104q5 45 18.5 76t34 50t47 27.5t56.5 8.5q26 0 46.5 -3.5t37.5 -10.5q12 -5 17.5 -16.5t0.5 -23.5l-10 -27q-5 -12 -16.5 -17.5t-23.5 -1.5q-17 5 -33 5q-26 0 -40.5 -15t-18.5 -51l-11 -105h73q13 0 22 -9t9 -22
v-27q0 -13 -9 -22t-22 -9h-82l-53 -516q-2 -14 -11.5 -22.5t-22.5 -8.5h-55q-12 0 -20.5 9.5t-7.5 21.5l54 516h-43z" />
    <glyph glyph-name="Aringacute" unicode="&#x1fa;" horiz-adv-x="576" 
d="M398 748q0 -51 -35 -83q1 -1 1 -3l181 -632q3 -11 -4 -20.5t-19 -9.5h-68q-14 0 -24.5 8.5t-14.5 21.5l-36 141h-188l-38 -141q-4 -14 -14.5 -22t-24.5 -8h-61q-12 0 -19 9.5t-3 20.5l188 632v1q1 1 1 3q-33 31 -33 82q0 46 28.5 78t76.5 32q49 0 77.5 -32t28.5 -78z
M239 876q-12 -6 -24.5 -2t-19.5 15l-6 11q-7 11 -4.5 24t13.5 21l142 102q10 7 22 4.5t18 -13.5l27 -46q6 -11 2 -23t-15 -18zM287 556q-3 -17 -6 -34.5t-7 -37.5t-10 -44.5t-15 -55.5l-32 -118h138l-30 118q-8 32 -14 56.5t-10 45t-6.5 37t-5.5 33.5h-2zM253 748
q0 -27 9 -41t30 -14q22 0 31 14t9 41q0 28 -9 41.5t-31 13.5q-21 0 -30 -13.5t-9 -41.5z" />
    <glyph glyph-name="aringacute" unicode="&#x1fb;" horiz-adv-x="490" 
d="M316 44q-21 -23 -50.5 -40t-71.5 -17q-76 0 -113.5 41.5t-37.5 118.5q0 88 53.5 127.5t172.5 39.5h36v29q0 20 -2 35t-8.5 25.5t-19.5 16t-34 5.5q-29 0 -58 -9t-55 -22q-11 -6 -23.5 -2t-18.5 15l-13 26q-6 12 -2 24.5t15 18.5q35 20 75.5 31.5t91.5 11.5
q85 0 125.5 -36t40.5 -122v-330q0 -13 -9 -22t-22 -9h-27q-14 0 -25 8t-15 22zM159 148q0 -44 14 -61t46 -17q29 0 50 13.5t36 28.5v128h-18q-41 0 -66 -5.5t-39 -16.5t-18.5 -28.5t-4.5 -41.5zM359 657q0 -45 -28.5 -77t-77.5 -32q-48 0 -76.5 32t-28.5 77q0 46 28.5 78
t76.5 32q49 0 77.5 -32t28.5 -78zM214 657q0 -27 9 -41t30 -14q22 0 31 14t9 41q0 28 -9 41.5t-31 13.5q-21 0 -30 -13.5t-9 -41.5zM200 784q-12 -6 -24.5 -2t-19.5 15l-6 11q-7 11 -4.5 24t13.5 21l142 102q10 7 22 4.5t18 -13.5l27 -46q6 -11 2 -23t-15 -18z" />
    <glyph glyph-name="AEacute" unicode="&#x1fc;" horiz-adv-x="838" 
d="M47 0q-11 0 -16.5 9t-0.5 19l322 636q6 13 18.5 20.5t26.5 7.5h348q13 0 22 -9t9 -22v-41q0 -13 -9 -22t-22 -9h-210v-177h162q13 0 22 -9t9 -22v-39q0 -13 -9 -22t-22 -9h-162v-207h225q13 0 22 -9t9 -22v-42q0 -13 -9 -22t-22 -9h-315q-13 0 -22 9t-9 22v125h-197
l-62 -128q-7 -13 -19 -20.5t-26 -7.5h-63zM416 596q-12 -34 -27 -75t-39 -92l-86 -177h150v162q0 11 0.5 39t1.5 58t1.5 55t0.5 30h-2zM503 749q-12 -6 -24.5 -2t-19.5 15l-6 11q-7 11 -4.5 24t13.5 21l142 102q10 7 22 4.5t18 -13.5l27 -46q6 -11 2 -23t-15 -18z" />
    <glyph glyph-name="aeacute" unicode="&#x1fd;" horiz-adv-x="748" 
d="M355 69q-29 -36 -69.5 -59t-89.5 -23q-78 0 -115.5 41.5t-37.5 116.5q0 85 53.5 124t172.5 39h36v35q0 20 -2 35t-8.5 25.5t-19.5 16t-34 5.5q-29 0 -58 -9t-55 -22q-11 -6 -23.5 -2t-18.5 15l-13 26q-6 12 -2 24.5t15 18.5q35 20 75.5 31.5t91.5 11.5q88 0 121 -52
q46 52 129 52q103 0 152 -61t49 -200v-16q0 -14 -14 -14h-270q1 -46 7 -75t18.5 -46t32 -23.5t46.5 -6.5q29 0 51 7t41 19q11 7 23.5 4.5t20.5 -13.5l16 -24q8 -11 5.5 -23t-13.5 -20q-29 -19 -63.5 -29.5t-79.5 -10.5q-65 0 -105.5 20.5t-64.5 61.5zM159 145
q0 -42 14 -58.5t46 -16.5q26 0 46.5 11.5t39.5 30.5v120h-18q-41 0 -66 -5t-39 -15.5t-18.5 -27t-4.5 -39.5zM587 308q0 35 -4 59t-13.5 39t-25 21.5t-39.5 6.5q-19 0 -33.5 -5.5t-24.5 -19.5t-16.5 -38.5t-8.5 -62.5h165zM358 575q-12 -6 -24.5 -2t-19.5 15l-6 11
q-7 11 -4.5 24t13.5 21l142 102q10 7 22 4.5t18 -13.5l27 -46q6 -11 2 -23t-15 -18z" />
    <glyph glyph-name="Oslashacute" unicode="&#x1fe;" horiz-adv-x="644" 
d="M143 -62q-6 -11 -18.5 -14.5t-23.5 2.5l-19 12q-11 6 -14.5 18.5t2.5 23.5l53 93q-67 86 -67 271q0 183 67.5 272t198.5 89q84 0 141 -36l41 71q6 11 18.5 14.5t23.5 -2.5l19 -12q11 -6 14.5 -18.5t-2.5 -23.5l-52 -90q62 -89 62 -261q0 -185 -65.5 -272.5t-198.5 -87.5
q-80 0 -135 30zM322 607q-38 0 -64 -14.5t-42 -45.5t-23.5 -80.5t-7.5 -118.5q0 -45 2.5 -81.5t9.5 -65.5l212 372q-31 34 -87 34zM241 110q31 -27 81 -27q37 0 63 14.5t42.5 46t23.5 81.5t7 120q0 76 -9 130zM286 749q-12 -6 -24.5 -2t-19.5 15l-6 11q-7 11 -4.5 24
t13.5 21l142 102q10 7 22 4.5t18 -13.5l27 -46q6 -11 2 -23t-15 -18z" />
    <glyph glyph-name="oslashacute" unicode="&#x1ff;" horiz-adv-x="518" 
d="M130 -51q-6 -11 -18.5 -14.5t-23.5 3.5l-14 8q-11 7 -14.5 19.5t2.5 23.5l37 65q-26 32 -39.5 81.5t-13.5 118.5q0 72 14.5 122t42 82t67 46.5t88.5 14.5q54 0 96 -18l34 58q6 11 18.5 14.5t23.5 -3.5l14 -8q11 -7 14.5 -19.5t-2.5 -23.5l-38 -67q26 -32 40 -81t14 -118
q0 -71 -15 -121.5t-42.5 -82.5t-67 -47t-88.5 -15q-55 0 -97 18zM208 86q10 -8 22.5 -10.5t28.5 -2.5q25 0 42 8t28 28.5t16 55.5t5 89q0 44 -3 74zM258 433q-25 0 -42 -7.5t-28 -28t-16 -55.5t-5 -89q0 -23 0.5 -41t2.5 -34l138 242q-19 13 -50 13zM221 575
q-12 -6 -24.5 -2t-19.5 15l-6 11q-7 11 -4.5 24t13.5 21l142 102q10 7 22 4.5t18 -13.5l27 -46q6 -11 2 -23t-15 -18z" />
    <glyph glyph-name="Scommaaccent" unicode="&#x218;" horiz-adv-x="537" 
d="M482 196q0 -44 -11.5 -82t-38 -66.5t-70.5 -44.5t-108 -16q-55 0 -104 13.5t-85 35.5q-11 7 -15 19.5t2 24.5l18 36q5 11 17 14.5t23 -2.5q31 -20 63 -29t71 -9q60 0 86.5 26t26.5 71q0 26 -7 44t-21.5 30.5t-35.5 22t-48 19.5q-43 15 -76 32t-55.5 41t-34 57.5
t-11.5 80.5q0 97 56.5 144t149.5 47q49 0 84.5 -8t65.5 -24q11 -6 15.5 -18.5t-1.5 -23.5l-18 -37q-5 -11 -17.5 -15t-23.5 2q-23 11 -45 16.5t-51 5.5q-45 0 -69.5 -20t-24.5 -62q0 -22 4.5 -37t15.5 -26.5t29.5 -21t45.5 -18.5q41 -14 77 -30t63 -40.5t42.5 -60.5
t15.5 -91zM197 -248q-3 11 2 20t15 13q18 7 31 17.5t13 27.5q-8 0 -17.5 3.5t-17.5 11t-13.5 19t-5.5 27.5q0 28 18.5 46t46.5 18q32 0 53.5 -22.5t21.5 -61.5q0 -99 -111 -134q-12 -4 -22.5 0t-13.5 15z" />
    <glyph glyph-name="scommaaccent" unicode="&#x219;" horiz-adv-x="431" 
d="M387 146q0 -159 -182 -159q-45 0 -83 10.5t-67 24.5q-12 6 -16 18.5t1 23.5l14 29q5 12 17.5 16t23.5 -2q23 -12 48 -19t52 -7q44 0 61.5 15t17.5 45q0 17 -5 28t-16 19t-30 14t-46 14q-26 7 -49 19t-39.5 30.5t-26 45t-9.5 62.5q0 66 41 106t124 40q38 0 66.5 -5
t53.5 -14q12 -5 17.5 -17t0.5 -24l-11 -29q-5 -12 -16.5 -17.5t-22.5 -0.5q-20 8 -38.5 11t-40.5 3q-65 0 -65 -51q0 -15 4 -25t13 -17t24.5 -12.5t39.5 -11.5q29 -8 55.5 -19t46 -29t31 -45.5t11.5 -69.5zM141 -248q-3 11 2 20t15 13q18 7 31 17.5t13 27.5q-8 0 -17.5 3.5
t-17.5 11t-13.5 19t-5.5 27.5q0 28 18.5 46t46.5 18q32 0 53.5 -22.5t21.5 -61.5q0 -99 -111 -134q-12 -4 -22.5 0t-13.5 15z" />
    <glyph glyph-name="uni021A" unicode="&#x21a;" horiz-adv-x="506" 
d="M224 0q-13 0 -22 9t-9 22v557h-126q-13 0 -22 9t-9 22v42q0 13 9 22t22 9h371q13 0 22 -9t9 -22v-42q0 -13 -9 -22t-22 -9h-126v-557q0 -13 -9 -22t-22 -9h-57zM178 -248q-3 11 2 20t15 13q18 7 31 17.5t13 27.5q-8 0 -17.5 3.5t-17.5 11t-13.5 19t-5.5 27.5
q0 28 18.5 46t46.5 18q32 0 53.5 -22.5t21.5 -61.5q0 -99 -111 -134q-12 -4 -22.5 0t-13.5 15z" />
    <glyph glyph-name="uni021B" unicode="&#x21b;" horiz-adv-x="335" 
d="M62 418q-13 0 -22 9t-9 22v26q0 13 9 22t22 9h24v96q0 14 8.5 24.5t21.5 12.5l53 10q11 2 20.5 -5.5t9.5 -19.5v-118h68q13 0 22 -9t9 -22v-26q0 -13 -9 -22t-22 -9h-68v-293q0 -29 9.5 -39.5t29.5 -10.5q8 0 14.5 1t12.5 3q9 3 18 -2t11 -15l6 -26q3 -13 -3.5 -24.5
t-19.5 -15.5q-12 -4 -26.5 -6.5t-32.5 -2.5q-29 0 -53.5 6t-42 19.5t-27 36t-9.5 55.5v314h-24zM120 -248q-3 11 2 20t15 13q18 7 31 17.5t13 27.5q-8 0 -17.5 3.5t-17.5 11t-13.5 19t-5.5 27.5q0 28 18.5 46t46.5 18q32 0 53.5 -22.5t21.5 -61.5q0 -99 -111 -134
q-12 -4 -22.5 0t-13.5 15z" />
    <glyph glyph-name="uni0237" unicode="&#x237;" horiz-adv-x="293" 
d="M215 17q0 -47 -6 -80.5t-19.5 -58t-36 -42t-54.5 -30.5q-12 -5 -24.5 -0.5t-17.5 16.5l-11 22q-6 12 -3 25t14 21q28 20 36.5 46t8.5 77v407l-36 6q-13 3 -21.5 13t-8.5 24v12q0 13 9 22t22 9h117q13 0 22 -9t9 -22v-458z" />
    <glyph glyph-name="uni0259" unicode="&#x259;" horiz-adv-x="497" 
d="M81 479q29 19 64 29.5t80 10.5q113 0 169.5 -62.5t56.5 -204.5q0 -72 -14 -122.5t-40.5 -82t-64.5 -46t-86 -14.5q-102 0 -151 61t-49 200v19q0 8 5 13t12 5h267q-2 43 -8 71t-18.5 43.5t-31.5 21.5t-46 6q-29 0 -50.5 -7.5t-40.5 -19.5q-11 -7 -23.5 -4.5t-19.5 13.5
l-19 27q-8 11 -5.5 23t13.5 20zM163 204q0 -37 4 -62t13.5 -40.5t25 -22.5t39.5 -7q19 0 33.5 5.5t25 20.5t17 40.5t8.5 65.5h-166z" />
    <glyph glyph-name="uni02BB" unicode="&#x2bb;" horiz-adv-x="266" 
d="M211 505q0 -32 -21 -52.5t-50 -20.5q-37 0 -60.5 27t-23.5 73q0 60 25.5 102t82.5 65q11 5 20.5 1t14.5 -15t0.5 -25t-15.5 -20q-17 -11 -27.5 -25t-11.5 -34q10 -2 22 -7t21.5 -14t16 -22.5t6.5 -32.5z" />
    <glyph glyph-name="afii57929" unicode="&#x2bc;" horiz-adv-x="266" 
d="M55 635q0 32 21 52.5t50 20.5q37 0 60.5 -27t23.5 -73q0 -60 -25.5 -102t-82.5 -65q-11 -5 -20.5 -0.5t-14.5 15.5t-0.5 24.5t15.5 19.5q17 11 27.5 25t11.5 34q-11 1 -22.5 6.5t-21 14.5t-16 22.5t-6.5 32.5z" />
    <glyph glyph-name="circumflex" unicode="&#x2c6;" horiz-adv-x="533" 
d="M172 582q-11 -7 -23.5 -5t-20.5 13l-2 3q-8 11 -7 24.5t10 22.5l82 85q10 10 24 16t28 6h7q14 0 28 -6t24 -16l81 -85q9 -9 10 -22.5t-7 -24.5l-2 -3q-8 -11 -20.5 -13.5t-23.5 5.5l-95 61z" />
    <glyph glyph-name="caron" unicode="&#x2c7;" horiz-adv-x="533" 
d="M263 569q-14 0 -28 6t-24 16l-81 84q-9 9 -10 22.5t7 24.5l3 4q8 11 20.5 13t23.5 -5l94 -62l93 62q11 7 23.5 5t20.5 -13l2 -4q8 -11 7 -24t-11 -23l-80 -84q-11 -10 -25 -16t-28 -6h-7z" />
    <glyph glyph-name="breve" unicode="&#x2d8;" horiz-adv-x="533" 
d="M413 683q-7 -21 -20 -40t-31 -34t-41.5 -24t-52.5 -9t-53 9t-42 24.5t-31 35t-20 40.5q-4 11 2.5 22.5t18.5 13.5l13 3q14 3 27 -2.5t20 -17.5q10 -17 25 -25t40 -8t40 8t25 25q7 12 20 17.5t27 1.5l13 -3q13 -3 19 -14t1 -23z" />
    <glyph glyph-name="dotaccent" unicode="&#x2d9;" horiz-adv-x="533" 
d="M264 555q-30 0 -51 21t-21 52t21 52.5t52 21.5t52 -21t21 -53q0 -31 -21 -52t-53 -21z" />
    <glyph glyph-name="ring" unicode="&#x2da;" horiz-adv-x="533" 
d="M372 671q0 -45 -28.5 -77t-77.5 -32q-48 0 -76.5 32t-28.5 77q0 46 28.5 78t76.5 32q49 0 77.5 -32t28.5 -78zM227 671q0 -27 9 -41t30 -14q22 0 31 14t9 41q0 28 -9 41.5t-31 13.5q-21 0 -30 -13.5t-9 -41.5z" />
    <glyph glyph-name="ogonek" unicode="&#x2db;" horiz-adv-x="533" 
d="M318 -206q-12 -5 -27 -8.5t-34 -3.5q-51 0 -74.5 25.5t-23.5 60.5q0 40 20.5 74.5t45.5 57.5l6 6q4 4 10 4h60q2 0 3 -1.5t-1 -2.5l-5 -6q-27 -32 -44.5 -64t-17.5 -59q0 -30 30 -30q8 0 15 1t13 3q11 4 21.5 -1t15.5 -15l2 -4q5 -11 0.5 -22t-15.5 -15z" />
    <glyph glyph-name="tilde" unicode="&#x2dc;" horiz-adv-x="533" 
d="M208 613q-16 0 -31 -15q-9 -10 -22.5 -11t-24.5 7l-7 4q-11 8 -14 21t4 24q38 69 96 69q21 0 37 -6t29 -13l25 -12q12 -6 27 -6q17 0 31 15q9 9 22.5 10.5t24.5 -6.5l7 -4q11 -8 14 -21t-4 -24q-38 -69 -96 -69q-21 0 -37 6t-29 12l-25 13q-12 6 -27 6z" />
    <glyph glyph-name="hungarumlaut" unicode="&#x2dd;" horiz-adv-x="533" 
d="M205 568q-7 -11 -20 -14t-24 3l-13 7q-11 6 -15 18.5t1 24.5l72 160q5 11 17 15t23 -3l45 -26q11 -7 14 -19t-4 -23zM395 568q-7 -11 -20 -14t-24 3l-12 7q-11 6 -15 18.5t1 24.5l72 160q5 11 17 15t23 -3l45 -26q11 -7 14 -19t-4 -23z" />
    <glyph glyph-name="gravecomb" unicode="&#x300;" horiz-adv-x="1" 
d="M-178 588q-7 -11 -19.5 -15t-24.5 2l-155 75q-11 6 -15 18t2 23l26 46q6 11 18 14t22 -5l143 -102q11 -8 13.5 -21t-4.5 -24z" />
    <glyph glyph-name="acutecomb" unicode="&#x301;" horiz-adv-x="1" 
d="M-295 575q-12 -6 -24.5 -2t-19.5 15l-6 11q-7 11 -4.5 24t13.5 21l142 102q10 7 22 4.5t18 -13.5l27 -46q6 -11 2 -23t-15 -18z" />
    <glyph glyph-name="uni0302" unicode="&#x302;" horiz-adv-x="1" 
d="M-353 582q-11 -7 -23.5 -5t-20.5 13l-2 3q-8 11 -7 24.5t10 22.5l82 85q10 10 24 16t28 6h7q14 0 28 -6t24 -16l81 -85q9 -9 10 -22.5t-7 -24.5l-2 -3q-8 -11 -20.5 -13.5t-23.5 5.5l-95 61z" />
    <glyph glyph-name="tildecomb" unicode="&#x303;" horiz-adv-x="1" 
d="M-317 613q-16 0 -31 -15q-9 -10 -22.5 -11t-24.5 7l-7 4q-11 8 -14 21t4 24q38 69 96 69q21 0 37 -6t29 -13l25 -12q12 -6 27 -6q17 0 31 15q9 9 22.5 10.5t24.5 -6.5l7 -4q11 -8 14 -21t-4 -24q-38 -69 -96 -69q-21 0 -37 6t-29 12l-25 13q-12 6 -27 6z" />
    <glyph glyph-name="uni0304" unicode="&#x304;" horiz-adv-x="1" 
d="M-368 610q-13 0 -22 9t-9 22v29q0 13 9 22t22 9h204q13 0 22 -9t9 -22v-29q0 -13 -9 -22t-22 -9h-204z" />
    <glyph glyph-name="uni0306" unicode="&#x306;" horiz-adv-x="1" 
d="M-119 676q-7 -21 -20 -40t-31 -34t-41.5 -24t-52.5 -9t-53 9t-42 24.5t-31 35t-20 40.5q-4 11 2.5 22.5t18.5 13.5l13 3q14 3 27 -2.5t20 -17.5q10 -17 25 -25t40 -8t40 8t25 25q7 12 20 17.5t27 1.5l13 -3q13 -3 19 -14t1 -23z" />
    <glyph glyph-name="uni0307" unicode="&#x307;" horiz-adv-x="1" 
d="M-142 582q-30 0 -51 21t-21 52t21 52.5t52 21.5t52 -21t21 -53q0 -31 -21 -52t-53 -21z" />
    <glyph glyph-name="uni0308" unicode="&#x308;" horiz-adv-x="1" 
d="M-97 634q0 -29 -20 -48.5t-47 -19.5t-47.5 19.5t-20.5 48.5t20 48.5t47 19.5t47.5 -19.5t20.5 -48.5zM-300 634q0 -29 -20.5 -48.5t-46.5 -19.5q-27 0 -47.5 19.5t-20.5 48.5t20 48.5t47 19.5t47.5 -19.5t20.5 -48.5z" />
    <glyph glyph-name="uni030A" unicode="&#x30a;" horiz-adv-x="1" 
d="M-160 671q0 -45 -28.5 -77t-77.5 -32q-48 0 -76.5 32t-28.5 77q0 46 28.5 78t76.5 32q49 0 77.5 -32t28.5 -78zM-305 671q0 -27 9 -41t30 -14q22 0 31 14t9 41q0 28 -9 41.5t-31 13.5q-21 0 -30 -13.5t-9 -41.5z" />
    <glyph glyph-name="uni030B" unicode="&#x30b;" horiz-adv-x="1" 
d="M-327 587q-7 -11 -20 -14t-24 3l-13 7q-11 6 -15 18.5t1 24.5l72 160q5 11 17 15t23 -3l45 -26q11 -7 14 -19t-4 -23zM-137 587q-7 -11 -20 -14t-24 3l-12 7q-11 6 -15 18.5t1 24.5l72 160q5 11 17 15t23 -3l45 -26q11 -7 14 -19t-4 -23z" />
    <glyph glyph-name="uni030C" unicode="&#x30c;" horiz-adv-x="1" 
d="M-209 569q-14 0 -28 6t-24 16l-81 84q-9 9 -10 22.5t7 24.5l3 4q8 11 20.5 13t23.5 -5l94 -62l93 62q11 7 23.5 5t20.5 -13l2 -4q8 -11 7 -24t-11 -23l-80 -84q-11 -10 -25 -16t-28 -6h-7z" />
    <glyph glyph-name="uni0312" unicode="&#x312;" horiz-adv-x="277" 
d="M239 768q3 -11 -2 -20t-15 -13q-18 -7 -31 -17.5t-13 -27.5q8 0 17.5 -3.5t17.5 -11t13.5 -19t5.5 -27.5q0 -28 -18.5 -46t-46.5 -18q-32 0 -53.5 22.5t-21.5 61.5q0 99 111 134q12 4 22.5 0t13.5 -15z" />
    <glyph glyph-name="uni0326" unicode="&#x326;" horiz-adv-x="246" 
d="M78 -248q-3 11 2 20t15 13q18 7 31 17.5t13 27.5q-8 0 -17.5 3.5t-17.5 11t-13.5 19t-5.5 27.5q0 28 18.5 46t46.5 18q32 0 53.5 -22.5t21.5 -61.5q0 -99 -111 -134q-12 -4 -22.5 0t-13.5 15z" />
    <glyph glyph-name="uni0327" unicode="&#x327;" horiz-adv-x="1" 
d="M-167 -130q0 -18 -5.5 -34t-18 -28t-33 -19t-50.5 -7q-28 0 -56 10q-11 4 -16 14t0 22q4 12 15.5 17t22.5 2q7 -2 14 -3t15 -1q38 0 38 31q0 17 -9 24t-30 7q-6 0 -11 -0.5t-10 -0.5q-6 -2 -10 3t-2 11l24 82v1q2 9 11 9h28q11 0 18 -9t3 -20l-10 -29q38 -5 55 -26.5
t17 -55.5z" />
    <glyph glyph-name="uni0328" unicode="&#x328;" horiz-adv-x="1" 
d="M-214 -206q-12 -5 -27 -8.5t-34 -3.5q-51 0 -74.5 25.5t-23.5 60.5q0 40 20.5 74.5t45.5 57.5l6 6q4 4 10 4h60q2 0 3 -1.5t-1 -2.5l-5 -6q-27 -32 -44.5 -64t-17.5 -59q0 -30 30 -30q8 0 15 1t13 3q11 4 21.5 -1t15.5 -15l2 -4q5 -11 0.5 -22t-15.5 -15z" />
    <glyph glyph-name="uni0335" unicode="&#x335;" horiz-adv-x="1" 
d="M-368 208q-13 0 -22 9t-9 22v29q0 13 9 22t22 9h204q13 0 22 -9t9 -22v-29q0 -13 -9 -22t-22 -9h-204z" />
    <glyph glyph-name="uni0336" unicode="&#x336;" horiz-adv-x="1" 
d="M-671 203q-13 0 -22 9t-9 22v38q0 13 9 22t22 9h590q13 0 22 -9t9 -22v-38q0 -13 -9 -22t-22 -9h-590z" />
    <glyph glyph-name="Delta" unicode="&#x394;" horiz-adv-x="585" 
d="M53 0q-12 0 -19 9.5t-3 20.5l192 632q4 14 15 22t25 8h66q14 0 25 -8t15 -22l184 -632q4 -11 -3 -20.5t-19 -9.5h-478zM172 99h236l-78 299q-8 32 -14 56.5t-10 44.5t-6.5 37t-5.5 33h-2q-5 -33 -13 -70.5t-25 -100.5z" />
    <glyph glyph-name="Omega" unicode="&#x3a9;" horiz-adv-x="668" 
d="M200 104q-70 25 -101 91t-31 188q0 161 67.5 241.5t198.5 80.5t198 -79t67 -243q0 -120 -31 -187t-103 -92h131q13 0 22 -9t9 -22v-42q0 -13 -9 -22t-22 -9h-189q-13 0 -22 9t-9 22v94q0 15 8 28t21 20q16 8 27.5 22t19.5 38t12 60.5t4 90.5q0 115 -30 169t-104 54
t-104.5 -53t-30.5 -168q0 -53 4 -90t12 -61.5t20 -39t27 -22.5q14 -7 21.5 -20t7.5 -28v-94q0 -13 -9 -22t-22 -9h-189q-13 0 -22 9t-9 22v42q0 13 9 22t22 9h129z" />
    <glyph glyph-name="mu" unicode="&#x3bc;" horiz-adv-x="526" 
d="M348 56q-27 -29 -58.5 -48t-64.5 -19q-23 0 -41 9v-164q0 -13 -9 -22t-22 -9h-52q-13 0 -22 9t-9 22v641q0 13 9 22t22 9h52q13 0 22 -9t9 -22v-323q0 -41 14.5 -55.5t42.5 -14.5q26 0 50 13t47 33v347q0 13 9 22t22 9h51q13 0 22 -9t9 -22v-444q0 -13 -9 -22t-22 -9h-29
q-14 0 -24.5 8.5t-12.5 21.5z" />
    <glyph glyph-name="pi" unicode="&#x3c0;" horiz-adv-x="565" 
d="M61 418q-13 0 -22 9t-9 22v26q0 13 9 22t22 9h436q13 0 22 -9t9 -22v-26q0 -13 -9 -22t-22 -9h-45v-297q0 -26 8.5 -34.5t26.5 -8.5q5 0 10.5 0.5t7.5 0.5q10 0 12 -10l7 -37q2 -13 -5 -23.5t-20 -13.5q-21 -6 -48 -6q-57 0 -85 28t-28 99v302h-122v-387q0 -13 -9 -22
t-22 -9h-52q-13 0 -22 9t-9 22v387h-41z" />
    <glyph glyph-name="Wgrave" unicode="&#x1e80;" horiz-adv-x="803" 
d="M204 0q-14 0 -24.5 8.5t-12.5 21.5l-130 632q-2 11 5.5 20.5t19.5 9.5h65q14 0 24.5 -8.5t12.5 -21.5l50 -263q8 -41 13.5 -80.5t9.5 -74.5t6.5 -62.5t4.5 -42.5h2q4 38 12.5 102.5t24.5 145.5l55 275q2 13 12.5 21.5t24.5 8.5h55q14 0 24.5 -8.5t12.5 -21.5l56 -276
q12 -62 21 -128.5t14 -118.5h1q2 24 5.5 55.5t8 66.5t10 71.5t11.5 70.5l47 259q2 12 12.5 21t24.5 9h59q12 0 19.5 -9.5t5.5 -20.5l-131 -632q-2 -13 -12.5 -21.5t-24.5 -8.5h-71q-14 0 -24.5 8.5t-12.5 21.5l-57 286q-6 29 -10.5 59.5t-8 58t-6.5 51.5t-4 40h-2
q-2 -14 -5 -41t-7 -57.5t-8.5 -59.5t-8.5 -48l-59 -289q-2 -13 -12.5 -21.5t-24.5 -8.5h-73zM483 762q-7 -11 -19.5 -15t-24.5 2l-155 75q-11 6 -15 18t2 23l26 46q6 11 18 14t22 -5l143 -102q11 -8 13.5 -21t-4.5 -24z" />
    <glyph glyph-name="wgrave" unicode="&#x1e81;" horiz-adv-x="700" 
d="M187 0q-14 0 -24.5 8.5t-14.5 21.5l-116 446q-3 11 4 20.5t19 9.5h55q14 0 24.5 -8.5t13.5 -21.5l43 -190q3 -13 6.5 -36t7 -46.5t5.5 -43.5l4 -28h1q1 7 3 23t5.5 36.5t7.5 42.5t9 41l50 201q3 13 13.5 21.5t24.5 8.5h48q14 0 24.5 -8.5t13.5 -21.5l48 -202
q4 -19 8.5 -40.5t8 -42t6 -36t3.5 -22.5h1q1 7 3 24.5t5.5 39.5t7.5 45t8 43l42 191q3 13 13.5 21.5t24.5 8.5h53q12 0 19 -9.5t4 -20.5l-120 -446q-4 -14 -14.5 -22t-24.5 -8h-45q-14 0 -24.5 8.5t-13.5 21.5l-52 211q-8 35 -14.5 72.5t-11.5 68.5h-1q-4 -24 -10 -63.5
t-16 -79.5l-52 -209q-3 -13 -13.5 -21.5t-24.5 -8.5h-45zM431 588q-7 -11 -19.5 -15t-24.5 2l-155 75q-11 6 -15 18t2 23l26 46q6 11 18 14t22 -5l143 -102q11 -8 13.5 -21t-4.5 -24z" />
    <glyph glyph-name="Wacute" unicode="&#x1e82;" horiz-adv-x="803" 
d="M204 0q-14 0 -24.5 8.5t-12.5 21.5l-130 632q-2 11 5.5 20.5t19.5 9.5h65q14 0 24.5 -8.5t12.5 -21.5l50 -263q8 -41 13.5 -80.5t9.5 -74.5t6.5 -62.5t4.5 -42.5h2q4 38 12.5 102.5t24.5 145.5l55 275q2 13 12.5 21.5t24.5 8.5h55q14 0 24.5 -8.5t12.5 -21.5l56 -276
q12 -62 21 -128.5t14 -118.5h1q2 24 5.5 55.5t8 66.5t10 71.5t11.5 70.5l47 259q2 12 12.5 21t24.5 9h59q12 0 19.5 -9.5t5.5 -20.5l-131 -632q-2 -13 -12.5 -21.5t-24.5 -8.5h-71q-14 0 -24.5 8.5t-12.5 21.5l-57 286q-6 29 -10.5 59.5t-8 58t-6.5 51.5t-4 40h-2
q-2 -14 -5 -41t-7 -57.5t-8.5 -59.5t-8.5 -48l-59 -289q-2 -13 -12.5 -21.5t-24.5 -8.5h-73zM363 749q-12 -6 -24.5 -2t-19.5 15l-6 11q-7 11 -4.5 24t13.5 21l142 102q10 7 22 4.5t18 -13.5l27 -46q6 -11 2 -23t-15 -18z" />
    <glyph glyph-name="wacute" unicode="&#x1e83;" horiz-adv-x="700" 
d="M187 0q-14 0 -24.5 8.5t-14.5 21.5l-116 446q-3 11 4 20.5t19 9.5h55q14 0 24.5 -8.5t13.5 -21.5l43 -190q3 -13 6.5 -36t7 -46.5t5.5 -43.5l4 -28h1q1 7 3 23t5.5 36.5t7.5 42.5t9 41l50 201q3 13 13.5 21.5t24.5 8.5h48q14 0 24.5 -8.5t13.5 -21.5l48 -202
q4 -19 8.5 -40.5t8 -42t6 -36t3.5 -22.5h1q1 7 3 24.5t5.5 39.5t7.5 45t8 43l42 191q3 13 13.5 21.5t24.5 8.5h53q12 0 19 -9.5t4 -20.5l-120 -446q-4 -14 -14.5 -22t-24.5 -8h-45q-14 0 -24.5 8.5t-13.5 21.5l-52 211q-8 35 -14.5 72.5t-11.5 68.5h-1q-4 -24 -10 -63.5
t-16 -79.5l-52 -209q-3 -13 -13.5 -21.5t-24.5 -8.5h-45zM314 575q-12 -6 -24.5 -2t-19.5 15l-6 11q-7 11 -4.5 24t13.5 21l142 102q10 7 22 4.5t18 -13.5l27 -46q6 -11 2 -23t-15 -18z" />
    <glyph glyph-name="Wdieresis" unicode="&#x1e84;" horiz-adv-x="803" 
d="M204 0q-14 0 -24.5 8.5t-12.5 21.5l-130 632q-2 11 5.5 20.5t19.5 9.5h65q14 0 24.5 -8.5t12.5 -21.5l50 -263q8 -41 13.5 -80.5t9.5 -74.5t6.5 -62.5t4.5 -42.5h2q4 38 12.5 102.5t24.5 145.5l55 275q2 13 12.5 21.5t24.5 8.5h55q14 0 24.5 -8.5t12.5 -21.5l56 -276
q12 -62 21 -128.5t14 -118.5h1q2 24 5.5 55.5t8 66.5t10 71.5t11.5 70.5l47 259q2 12 12.5 21t24.5 9h59q12 0 19.5 -9.5t5.5 -20.5l-131 -632q-2 -13 -12.5 -21.5t-24.5 -8.5h-71q-14 0 -24.5 8.5t-12.5 21.5l-57 286q-6 29 -10.5 59.5t-8 58t-6.5 51.5t-4 40h-2
q-2 -14 -5 -41t-7 -57.5t-8.5 -59.5t-8.5 -48l-59 -289q-2 -13 -12.5 -21.5t-24.5 -8.5h-73zM569 808q0 -29 -20 -48.5t-47 -19.5t-47.5 19.5t-20.5 48.5t20 48.5t47 19.5t47.5 -19.5t20.5 -48.5zM366 808q0 -29 -20.5 -48.5t-46.5 -19.5q-27 0 -47.5 19.5t-20.5 48.5
t20 48.5t47 19.5t47.5 -19.5t20.5 -48.5z" />
    <glyph glyph-name="wdieresis" unicode="&#x1e85;" horiz-adv-x="700" 
d="M187 0q-14 0 -24.5 8.5t-14.5 21.5l-116 446q-3 11 4 20.5t19 9.5h55q14 0 24.5 -8.5t13.5 -21.5l43 -190q3 -13 6.5 -36t7 -46.5t5.5 -43.5l4 -28h1q1 7 3 23t5.5 36.5t7.5 42.5t9 41l50 201q3 13 13.5 21.5t24.5 8.5h48q14 0 24.5 -8.5t13.5 -21.5l48 -202
q4 -19 8.5 -40.5t8 -42t6 -36t3.5 -22.5h1q1 7 3 24.5t5.5 39.5t7.5 45t8 43l42 191q3 13 13.5 21.5t24.5 8.5h53q12 0 19 -9.5t4 -20.5l-120 -446q-4 -14 -14.5 -22t-24.5 -8h-45q-14 0 -24.5 8.5t-13.5 21.5l-52 211q-8 35 -14.5 72.5t-11.5 68.5h-1q-4 -24 -10 -63.5
t-16 -79.5l-52 -209q-3 -13 -13.5 -21.5t-24.5 -8.5h-45zM517 634q0 -29 -20 -48.5t-47 -19.5t-47.5 19.5t-20.5 48.5t20 48.5t47 19.5t47.5 -19.5t20.5 -48.5zM314 634q0 -29 -20.5 -48.5t-46.5 -19.5q-27 0 -47.5 19.5t-20.5 48.5t20 48.5t47 19.5t47.5 -19.5t20.5 -48.5z
" />
    <glyph glyph-name="Ygrave" unicode="&#x1ef2;" horiz-adv-x="545" 
d="M241 0q-13 0 -22 9t-9 22v256l-176 377q-5 10 1 19t17 9h74q14 0 26 -8t17 -21l67 -160q13 -32 22.5 -59t16.5 -56q8 29 17 60t19 54l71 162q5 13 17 20.5t26 7.5h68q11 0 17 -9t1 -19l-180 -377v-256q0 -13 -9 -22t-22 -9h-59zM344 762q-7 -11 -19.5 -15t-24.5 2
l-155 75q-11 6 -15 18t2 23l26 46q6 11 18 14t22 -5l143 -102q11 -8 13.5 -21t-4.5 -24z" />
    <glyph glyph-name="ygrave" unicode="&#x1ef3;" horiz-adv-x="484" 
d="M303 -11q-16 -51 -33 -84t-38 -54t-49 -32.5t-66 -19.5q-13 -2 -24 5t-15 19l-8 33q-3 12 3.5 23.5t18.5 14.5q24 6 41 14t29.5 20t22.5 29.5t19 42.5h-1q-12 0 -21.5 7.5t-13.5 18.5l-138 450q-3 11 3.5 20.5t18.5 9.5h59q14 0 24.5 -8.5t14.5 -21.5l65 -248
q11 -40 17 -70.5t10 -57.5h1q5 26 10.5 58.5t16.5 70.5l67 247q4 14 14.5 22t24.5 8h56q12 0 18.5 -9.5t3.5 -20.5zM323 588q-7 -11 -19.5 -15t-24.5 2l-155 75q-11 6 -15 18t2 23l26 46q6 11 18 14t22 -5l143 -102q11 -8 13.5 -21t-4.5 -24z" />
    <glyph glyph-name="uni2007" unicode="&#x2007;" 
 />
    <glyph glyph-name="uni2008" unicode="&#x2008;" horiz-adv-x="280" 
 />
    <glyph glyph-name="uni200B" unicode="&#x200b;" horiz-adv-x="0" 
 />
    <glyph glyph-name="endash" unicode="&#x2013;" horiz-adv-x="558" 
d="M81 225q-13 0 -22 9t-9 22v38q0 13 9 22t22 9h394q13 0 22 -9t9 -22v-38q0 -13 -9 -22t-22 -9h-394z" />
    <glyph glyph-name="emdash" unicode="&#x2014;" horiz-adv-x="753" 
d="M81 225q-13 0 -22 9t-9 22v38q0 13 9 22t22 9h590q13 0 22 -9t9 -22v-38q0 -13 -9 -22t-22 -9h-590z" />
    <glyph glyph-name="quoteleft" unicode="&#x2018;" horiz-adv-x="266" 
d="M211 505q0 -32 -21 -52.5t-50 -20.5q-37 0 -60.5 27t-23.5 73q0 60 25.5 102t82.5 65q11 5 20.5 1t14.5 -15t0.5 -25t-15.5 -20q-17 -11 -27.5 -25t-11.5 -34q10 -2 22 -7t21.5 -14t16 -22.5t6.5 -32.5z" />
    <glyph glyph-name="quoteright" unicode="&#x2019;" horiz-adv-x="266" 
d="M55 635q0 32 21 52.5t50 20.5q37 0 60.5 -27t23.5 -73q0 -60 -25.5 -102t-82.5 -65q-11 -5 -20.5 -0.5t-14.5 15.5t-0.5 24.5t15.5 19.5q17 11 27.5 25t11.5 34q-11 1 -22.5 6.5t-21 14.5t-16 22.5t-6.5 32.5z" />
    <glyph glyph-name="quotesinglbase" unicode="&#x201a;" horiz-adv-x="266" 
d="M55 72q0 32 21 52.5t50 20.5q37 0 60.5 -27t23.5 -73q0 -60 -25.5 -102t-82.5 -65q-11 -5 -20.5 -0.5t-14.5 15.5t-0.5 24.5t15.5 19.5q37 22 38 59q-11 1 -22 6.5t-21 14.5t-16 22.5t-6 32.5z" />
    <glyph glyph-name="quotedblleft" unicode="&#x201c;" horiz-adv-x="479" 
d="M211 505q0 -32 -21 -52.5t-50 -20.5q-37 0 -60.5 27t-23.5 73q0 60 25.5 102t82.5 65q11 5 20.5 0.5t14.5 -15.5t0.5 -24.5t-15.5 -19.5q-17 -11 -27.5 -25t-11.5 -34q10 -2 22 -7t21.5 -14t16 -22.5t6.5 -32.5zM424 505q0 -32 -21 -52.5t-50 -20.5q-37 0 -60.5 27
t-23.5 73q0 60 25.5 102t82.5 65q11 5 20.5 0.5t14.5 -15.5t0.5 -24.5t-15.5 -19.5q-17 -11 -27.5 -25t-11.5 -34q10 -2 22 -7t21.5 -14t16 -22.5t6.5 -32.5z" />
    <glyph glyph-name="quotedblright" unicode="&#x201d;" horiz-adv-x="479" 
d="M55 635q0 32 21 52.5t50 20.5q37 0 60.5 -27t23.5 -73q0 -60 -25.5 -102t-82.5 -65q-11 -5 -21 -0.5t-15 15.5t0 24.5t16 19.5q17 11 27.5 25t11.5 34q-11 1 -22.5 6.5t-21 14.5t-16 22.5t-6.5 32.5zM268 635q0 32 21 52.5t50 20.5q37 0 60.5 -27t23.5 -73
q0 -60 -25.5 -102t-82.5 -65q-11 -5 -21 -0.5t-15 15.5t0 24.5t16 19.5q17 11 27.5 25t11.5 34q-11 1 -22.5 6.5t-21 14.5t-16 22.5t-6.5 32.5z" />
    <glyph glyph-name="quotedblbase" unicode="&#x201e;" horiz-adv-x="479" 
d="M55 72q0 32 21 52.5t50 20.5q37 0 60.5 -27t23.5 -73q0 -60 -25.5 -102t-82.5 -65q-11 -5 -21 -0.5t-15 15.5t0 24.5t16 19.5q37 22 38 59q-11 1 -22 6.5t-21 14.5t-16 22.5t-6 32.5zM268 72q0 32 21 52.5t50 20.5q37 0 60.5 -27t23.5 -73q0 -60 -25.5 -102t-82.5 -65
q-11 -5 -21 -0.5t-15 15.5t0 24.5t16 19.5q37 22 38 59q-11 1 -22 6.5t-21 14.5t-16 22.5t-6 32.5z" />
    <glyph glyph-name="dagger" unicode="&#x2020;" horiz-adv-x="398" 
d="M180 189q-13 0 -22 9t-9 22v253h-70q-13 0 -22 9t-9 22v30q0 13 9 22t22 9h70v96q0 13 9 22t22 9h37q13 0 22 -9t9 -22v-96h70q13 0 22 -9t9 -22v-30q0 -13 -9 -22t-22 -9h-70v-253q0 -13 -9 -22t-22 -9h-37z" />
    <glyph glyph-name="daggerdbl" unicode="&#x2021;" horiz-adv-x="398" 
d="M180 189q-13 0 -22 9t-9 22v92h-70q-13 0 -22 9t-9 22v30q0 13 9 22t22 9h70v74h-70q-13 0 -22 9t-9 22v30q0 13 9 22t22 9h70v91q0 13 9 22t22 9h37q13 0 22 -9t9 -22v-91h70q13 0 22 -9t9 -22v-30q0 -13 -9 -22t-22 -9h-70v-74h70q13 0 22 -9t9 -22v-30q0 -13 -9 -22
t-22 -9h-70v-92q0 -13 -9 -22t-22 -9h-37z" />
    <glyph glyph-name="bullet" unicode="&#x2022;" horiz-adv-x="385" 
d="M325 335q0 -29 -10 -54.5t-27.5 -44.5t-42 -30t-53.5 -11t-53 11t-41.5 30t-27.5 44.5t-10 54.5q0 28 10 53.5t27.5 44.5t41.5 30t53 11t53.5 -11t42 -30t27.5 -44.5t10 -53.5z" />
    <glyph glyph-name="uni2023" unicode="&#x2023;" horiz-adv-x="562" 
d="M102 119q-9 -5 -18 0t-9 16v396q0 11 9 16.5t18 0.5l380 -200q8 -5 8 -14.5t-8 -14.5z" />
    <glyph glyph-name="ellipsis" unicode="&#x2026;" horiz-adv-x="745" 
d="M683 69q0 -33 -23 -56t-56 -23t-56 23t-23 56t23 56.5t56 23.5t56 -23.5t23 -56.5zM220 69q0 -33 -23 -56t-57 -23q-32 0 -55 23t-23 56t23 56.5t55 23.5q34 0 57 -23.5t23 -56.5zM451 69q0 -33 -23 -56t-56 -23q-32 0 -55.5 23t-23.5 56t23.5 56.5t55.5 23.5
q33 0 56 -23.5t23 -56.5z" />
    <glyph glyph-name="perthousand" unicode="&#x2030;" horiz-adv-x="1222" 
d="M1172 160q0 -81 -44.5 -126.5t-116.5 -45.5t-115.5 46t-43.5 128q0 81 44 126.5t116 45.5t116 -46t44 -128zM805 160q0 -41 -11.5 -72.5t-32.5 -54t-50.5 -34t-65.5 -11.5q-72 0 -116 46t-44 128q0 81 44 126.5t116 45.5t116 -46t44 -128zM369 476q0 -41 -11.5 -72.5
t-32.5 -54t-50.5 -34t-65.5 -11.5q-72 0 -116 46t-44 127q0 82 44 127.5t116 45.5t116 -46t44 -128zM213 0q-11 0 -15.5 9t0.5 17l358 586q16 26 47 26h38q11 0 15.5 -9t-0.5 -17l-358 -586q-16 -26 -47 -26h-38zM585 165q0 -59 14 -81.5t46 -22.5t45.5 23t13.5 74
q0 60 -13.5 82t-45.5 22t-46 -22.5t-14 -74.5zM952 165q0 -59 14 -81.5t46 -22.5t45.5 23t13.5 74q0 60 -14 82t-46 22t-45.5 -22.5t-13.5 -74.5zM150 480q0 -59 13.5 -81t45.5 -22t45.5 22.5t13.5 74.5q0 60 -13.5 82t-45.5 22t-45.5 -22.5t-13.5 -75.5z" />
    <glyph glyph-name="guilsinglleft" unicode="&#x2039;" horiz-adv-x="325" 
d="M218 38q-11 -8 -23.5 -5.5t-19.5 13.5l-113 178q-16 26 0 52l113 180q7 11 19.5 13.5t22.5 -5.5l31 -20q11 -8 13.5 -20.5t-4.5 -23.5l-94 -150l93 -149q7 -11 4 -23.5t-14 -20.5z" />
    <glyph glyph-name="guilsinglright" unicode="&#x203a;" horiz-adv-x="325" 
d="M149 46q-7 -11 -19.5 -13.5t-22.5 5.5l-30 20q-11 8 -13.5 20.5t4.5 23.5l93 149l-93 150q-7 11 -4 23.5t14 20.5l28 19q11 8 23.5 5.5t19.5 -13.5l113 -179q16 -26 0 -52z" />
    <glyph glyph-name="fraction" unicode="&#x2044;" horiz-adv-x="329" 
d="M-50 0q-11 0 -15.5 9t0.5 17l358 586q16 26 47 26h38q11 0 15.5 -9t-0.5 -17l-358 -586q-16 -26 -47 -26h-38z" />
    <glyph glyph-name="uni2070" unicode="&#x2070;" horiz-adv-x="383" 
d="M360 426q0 -107 -40.5 -160.5t-127.5 -53.5q-88 0 -129 54t-41 160q0 108 42 163.5t128 55.5t127 -56t41 -163zM115 427q0 -79 16.5 -113.5t59.5 -34.5t59.5 35t16.5 115q0 79 -17 113.5t-59 34.5t-59 -35.5t-17 -114.5z" />
    <glyph glyph-name="uni2074" unicode="&#x2074;" horiz-adv-x="381" 
d="M236 272h-189q-13 0 -22 9t-9 22v16q0 14 3.5 30.5t8.5 29.5l98 228q5 14 17 21.5t26 7.5h29q11 0 17.5 -9t1.5 -20l-112 -262h131v133q0 14 8.5 24t22.5 12l27 5q12 2 21.5 -6t9.5 -20v-148h14q13 0 22 -9t9 -22v-11q0 -13 -9 -22t-22 -9h-14v-59q0 -13 -9 -22t-22 -9
h-27q-13 0 -22 9t-9 22v59z" />
    <glyph glyph-name="uni2075" unicode="&#x2075;" horiz-adv-x="353" 
d="M311 331q0 -74 -41.5 -115t-125.5 -41q-31 0 -54.5 4.5t-42.5 11.5q-13 5 -19 16t-2 24l2 6q4 12 15 18t23 2q14 -5 30 -7.5t35 -2.5q46 0 66.5 21.5t20.5 59.5q0 41 -24 58.5t-67 17.5q-13 0 -25.5 -1.5t-24.5 -3.5q-11 -2 -20 5.5t-7 18.5l14 183q1 13 11 22.5t23 9.5
h167q13 0 22 -9t9 -22v-11q0 -13 -9 -22t-22 -9h-129l-9 -96q13 3 34 3q67 0 108.5 -34.5t41.5 -106.5z" />
    <glyph glyph-name="uni2076" unicode="&#x2076;" horiz-adv-x="374" 
d="M265 613q-31 -10 -55 -21.5t-41.5 -28t-28.5 -38.5t-16 -52q16 11 38 21.5t52 10.5q26 0 50 -8t42.5 -25t29.5 -43.5t11 -62.5q0 -78 -43 -116t-112 -38q-77 0 -122 48.5t-45 148.5q0 114 55 180t164 92q12 3 23.5 -3.5t15.5 -19.5l2 -7q5 -12 -1.5 -23t-18.5 -15z
M187 440q-22 0 -38.5 -8.5t-30.5 -19.5q-1 -5 -1 -11v-11q0 -60 19.5 -86.5t55.5 -26.5q66 0 66 82q0 42 -18 61.5t-53 19.5z" />
    <glyph glyph-name="uni2077" unicode="&#x2077;" horiz-adv-x="342" 
d="M292 535q-18 -23 -38 -56.5t-37.5 -75.5t-31 -92.5t-19.5 -107.5q-2 -13 -11.5 -20.5t-21.5 -5.5l-29 4q-13 2 -21 12t-6 23q8 62 24 115t37 96.5t45 77.5t48 59h-169q-13 0 -22 9t-9 22v12q0 13 9 22t22 9h219q13 0 22 -9t9 -22v-13q0 -15 -5.5 -31t-14.5 -28z" />
    <glyph glyph-name="uni2078" unicode="&#x2078;" horiz-adv-x="376" 
d="M26 339q0 44 23.5 69.5t61.5 39.5q-33 17 -51.5 43.5t-18.5 66.5q0 54 38.5 87.5t108.5 33.5t108.5 -32t38.5 -84q0 -38 -21 -63.5t-53 -39.5q20 -9 36.5 -19.5t28 -24.5t17.5 -32.5t6 -43.5q0 -63 -41.5 -95.5t-121.5 -32.5q-78 0 -119 32t-41 95zM175 420
q-30 -13 -46 -30.5t-16 -46.5q0 -35 19.5 -51.5t55.5 -16.5q73 0 73 64q0 26 -14 42.5t-49 29.5zM193 485q32 13 44 30t12 42q0 57 -61 57q-28 0 -44 -13.5t-16 -42.5q0 -25 11.5 -41t39.5 -27z" />
    <glyph glyph-name="uni2079" unicode="&#x2079;" horiz-adv-x="374" 
d="M106 242q31 10 55.5 22t42 28t29 37t16.5 50q-16 -12 -38 -21.5t-51 -9.5q-26 0 -50 8.5t-42.5 26t-29.5 44.5t-11 63q0 78 43 116.5t112 38.5q77 0 121.5 -49t44.5 -150q0 -223 -222 -271q-12 -3 -23.5 3.5t-15.5 19.5l-2 5q-4 12 2.5 23.5t18.5 15.5zM188 411
q20 0 37 8.5t30 19.5v26q0 61 -18.5 87.5t-54.5 26.5q-67 0 -67 -82q0 -86 73 -86z" />
    <glyph glyph-name="uni207A" unicode="&#x207a;" horiz-adv-x="353" 
d="M165 265q-13 0 -22 9t-9 22v78h-68q-13 0 -22 9t-9 22v17q0 13 9 22t22 9h68v79q0 13 9 22t22 9h23q13 0 22 -9t9 -22v-79h67q13 0 22 -9t9 -22v-17q0 -13 -9 -22t-22 -9h-67v-78q0 -13 -9 -22t-22 -9h-23z" />
    <glyph glyph-name="uni207B" unicode="&#x207b;" horiz-adv-x="353" 
d="M66 374q-13 0 -22 9t-9 22v17q0 13 9 22t22 9h220q13 0 22 -9t9 -22v-17q0 -13 -9 -22t-22 -9h-220z" />
    <glyph glyph-name="uni207C" unicode="&#x207c;" horiz-adv-x="352" 
d="M66 442q-13 0 -22 9t-9 22v17q0 13 9 22t22 9h219q13 0 22 -9t9 -22v-17q0 -13 -9 -22t-22 -9h-219zM66 304q-13 0 -22 9t-9 22v16q0 13 9 22t22 9h219q13 0 22 -9t9 -22v-16q0 -13 -9 -22t-22 -9h-219z" />
    <glyph glyph-name="uni207D" unicode="&#x207d;" horiz-adv-x="224" 
d="M158 122q-71 34 -100 104t-29 192q0 121 28.5 192t100.5 105q11 5 22.5 0.5t16.5 -15.5q5 -13 2 -26t-16 -24q-17 -13 -28.5 -31t-19.5 -45t-11.5 -65t-3.5 -92t4 -91.5t11.5 -64t19.5 -44t28 -29.5q11 -9 15 -22t-1 -27t-17 -18t-22 1z" />
    <glyph glyph-name="uni207E" unicode="&#x207e;" horiz-adv-x="224" 
d="M194 419q0 -60 -6.5 -107.5t-21.5 -84t-39.5 -62.5t-60.5 -43q-11 -5 -23 0t-15 16q-6 15 -2 28t15 22q16 13 28 31t19.5 44.5t11.5 64.5t4 92t-4 91.5t-11.5 64t-19.5 44t-28 30.5q-11 8 -15.5 23t2.5 27q5 11 16 15.5t22 -0.5q35 -17 59.5 -43t39.5 -62t22 -83t7 -108z
" />
    <glyph glyph-name="uni2080" unicode="&#x2080;" horiz-adv-x="383" 
d="M360 58q0 -107 -40.5 -160.5t-127.5 -53.5q-88 0 -129 54t-41 160q0 108 42 163.5t128 55.5t127 -56t41 -163zM115 59q0 -79 16.5 -113.5t59.5 -34.5t59.5 35t16.5 115q0 79 -17 113.5t-59 34.5t-59 -35.5t-17 -114.5z" />
    <glyph glyph-name="uni2081" unicode="&#x2081;" horiz-adv-x="338" 
d="M89 -150q-13 0 -22 9t-9 22v3q0 13 9 22t22 9h48v255l-49 -24q-9 -5 -19.5 -2t-15.5 13l-1 2q-5 10 -2.5 21t11.5 18l75 59q24 19 55 19h7q13 0 22 -9t9 -22v-330h42q13 0 22 -9t9 -22v-3q0 -13 -9 -22t-22 -9h-182z" />
    <glyph glyph-name="uni2082" unicode="&#x2082;" horiz-adv-x="368" 
d="M79 -150q-13 0 -22 9t-9 22v12q0 14 7 27.5t18 22.5q47 36 77 63.5t47 50t23.5 42t6.5 40.5q0 33 -17.5 48t-47.5 15q-19 0 -33.5 -3t-29.5 -9q-12 -5 -24 -0.5t-17 16.5l-3 8q-5 12 -0.5 24t16.5 17q20 9 45 15t57 6q69 0 108.5 -33.5t39.5 -96.5q0 -29 -9 -55.5
t-29 -53t-52.5 -54.5t-78.5 -61h143q13 0 22 -9t9 -22v-10q0 -13 -9 -22t-22 -9h-216z" />
    <glyph glyph-name="uni2083" unicode="&#x2083;" horiz-adv-x="371" 
d="M325 -58q0 -60 -41.5 -98t-125.5 -38q-32 0 -57.5 4t-46.5 12q-12 4 -18.5 15.5t-2.5 23.5l2 7q3 12 14 18.5t24 3.5q16 -5 34 -8t38 -3q86 0 86 72q0 39 -21.5 54t-58.5 15h-22q-8 0 -14 6t-6 14v27q0 8 5 13t13 5h20q73 0 73 62q0 29 -16.5 43t-52.5 14
q-17 0 -31.5 -2.5t-28.5 -7.5q-12 -5 -23.5 0.5t-16.5 17.5l-2 6q-5 12 0.5 23.5t17.5 16.5q21 8 45.5 13t54.5 5q66 0 104.5 -31t38.5 -87q0 -41 -19.5 -65.5t-51.5 -36.5q40 -11 63 -38.5t23 -75.5z" />
    <glyph glyph-name="uni2084" unicode="&#x2084;" horiz-adv-x="381" 
d="M236 -96h-189q-13 0 -22 9t-9 22v16q0 14 3.5 30.5t8.5 29.5l98 228q5 14 17 21.5t26 7.5h29q11 0 17.5 -9t1.5 -20l-112 -262h131v133q0 14 8.5 24t22.5 12l27 5q12 2 21.5 -6t9.5 -20v-148h14q13 0 22 -9t9 -22v-11q0 -13 -9 -22t-22 -9h-14v-59q0 -13 -9 -22t-22 -9
h-27q-13 0 -22 9t-9 22v59z" />
    <glyph glyph-name="uni2085" unicode="&#x2085;" horiz-adv-x="353" 
d="M311 -37q0 -74 -41.5 -115t-125.5 -41q-31 0 -54.5 4.5t-42.5 11.5q-13 5 -19 16t-2 24l2 6q4 12 15 18t23 2q14 -5 30 -7.5t35 -2.5q46 0 66.5 21.5t20.5 59.5q0 41 -24 58.5t-67 17.5q-13 0 -25.5 -1.5t-24.5 -3.5q-11 -2 -20 5.5t-7 18.5l14 183q1 13 11 22.5t23 9.5
h167q13 0 22 -9t9 -22v-11q0 -13 -9 -22t-22 -9h-129l-9 -96q13 3 34 3q67 0 108.5 -34.5t41.5 -106.5z" />
    <glyph glyph-name="uni2086" unicode="&#x2086;" horiz-adv-x="374" 
d="M265 245q-31 -10 -55 -21.5t-41.5 -28t-28.5 -38.5t-16 -52q16 11 38 21.5t52 10.5q26 0 50 -8t42.5 -25t29.5 -43.5t11 -62.5q0 -78 -43 -116t-112 -38q-77 0 -122 48.5t-45 148.5q0 114 55 180t164 92q12 3 23.5 -3.5t15.5 -19.5l2 -7q5 -12 -1.5 -23t-18.5 -15z
M187 72q-22 0 -38.5 -8.5t-30.5 -19.5q-1 -5 -1 -11v-11q0 -60 19.5 -86.5t55.5 -26.5q66 0 66 82q0 42 -18 61.5t-53 19.5z" />
    <glyph glyph-name="uni2087" unicode="&#x2087;" horiz-adv-x="342" 
d="M292 167q-18 -23 -38 -56.5t-37.5 -75.5t-31 -92.5t-19.5 -107.5q-2 -13 -11.5 -20.5t-21.5 -5.5l-29 4q-13 2 -21 12t-6 23q8 62 24 115t37 96.5t45 77.5t48 59h-169q-13 0 -22 9t-9 22v12q0 13 9 22t22 9h219q13 0 22 -9t9 -22v-13q0 -15 -5.5 -31t-14.5 -28z" />
    <glyph glyph-name="uni2088" unicode="&#x2088;" horiz-adv-x="376" 
d="M26 -29q0 44 23.5 69.5t61.5 39.5q-33 17 -51.5 43.5t-18.5 66.5q0 54 38.5 87.5t108.5 33.5t108.5 -32t38.5 -84q0 -38 -21 -63.5t-53 -39.5q20 -9 36.5 -19.5t28 -24.5t17.5 -32.5t6 -43.5q0 -63 -41.5 -95.5t-121.5 -32.5q-78 0 -119 32t-41 95zM175 52
q-30 -13 -46 -30.5t-16 -46.5q0 -35 19.5 -51.5t55.5 -16.5q73 0 73 64q0 26 -14 42.5t-49 29.5zM193 117q32 13 44 30t12 42q0 57 -61 57q-28 0 -44 -13.5t-16 -42.5q0 -25 11.5 -41t39.5 -27z" />
    <glyph glyph-name="uni2089" unicode="&#x2089;" horiz-adv-x="374" 
d="M106 -126q31 10 55.5 22t42 28t29 37t16.5 50q-16 -12 -38 -21.5t-51 -9.5q-26 0 -50 8.5t-42.5 26t-29.5 44.5t-11 63q0 78 43 116.5t112 38.5q77 0 121.5 -49t44.5 -150q0 -223 -222 -271q-12 -3 -23.5 3.5t-15.5 19.5l-2 5q-4 12 2.5 23.5t18.5 15.5zM188 43
q20 0 37 8.5t30 19.5v26q0 61 -18.5 87.5t-54.5 26.5q-67 0 -67 -82q0 -86 73 -86z" />
    <glyph glyph-name="uni208A" unicode="&#x208a;" horiz-adv-x="353" 
d="M165 -103q-13 0 -22 9t-9 22v78h-68q-13 0 -22 9t-9 22v17q0 13 9 22t22 9h68v79q0 13 9 22t22 9h23q13 0 22 -9t9 -22v-79h67q13 0 22 -9t9 -22v-17q0 -13 -9 -22t-22 -9h-67v-78q0 -13 -9 -22t-22 -9h-23z" />
    <glyph glyph-name="uni208B" unicode="&#x208b;" horiz-adv-x="353" 
d="M66 6q-13 0 -22 9t-9 22v17q0 13 9 22t22 9h220q13 0 22 -9t9 -22v-17q0 -13 -9 -22t-22 -9h-220z" />
    <glyph glyph-name="uni208C" unicode="&#x208c;" horiz-adv-x="352" 
d="M66 74q-13 0 -22 9t-9 22v17q0 13 9 22t22 9h219q13 0 22 -9t9 -22v-17q0 -13 -9 -22t-22 -9h-219zM66 -64q-13 0 -22 9t-9 22v16q0 13 9 22t22 9h219q13 0 22 -9t9 -22v-16q0 -13 -9 -22t-22 -9h-219z" />
    <glyph glyph-name="uni208D" unicode="&#x208d;" horiz-adv-x="224" 
d="M158 -246q-71 34 -100 104t-29 192q0 121 28.5 192t100.5 105q11 5 22.5 0.5t16.5 -15.5q5 -13 2 -26t-16 -24q-17 -13 -28.5 -31t-19.5 -45t-11.5 -65t-3.5 -92t4 -91.5t11.5 -64t19.5 -44t28 -29.5q11 -9 15 -22t-1 -27t-17 -18t-22 1z" />
    <glyph glyph-name="uni208E" unicode="&#x208e;" horiz-adv-x="224" 
d="M194 51q0 -60 -6.5 -107.5t-21.5 -84t-39.5 -62.5t-60.5 -43q-11 -5 -23 0t-15 16q-6 15 -2 28t15 22q16 13 28 31t19.5 44.5t11.5 64.5t4 92t-4 91.5t-11.5 64t-19.5 44t-28 30.5q-11 8 -15.5 23t2.5 27q5 11 16 15.5t22 -0.5q35 -17 59.5 -43t39.5 -62t22 -83t7 -108z
" />
    <glyph glyph-name="Euro" unicode="&#x20ac;" 
d="M93 363q0 11 1 22h-29q-13 0 -22 9t-9 22v12q0 13 9 22t22 9h35q18 127 80 186.5t173 59.5q42 0 77.5 -9t62.5 -24q11 -7 14.5 -19t-2.5 -23l-17 -30q-7 -11 -19.5 -14.5t-23.5 2.5q-20 10 -42 15.5t-46 5.5q-32 0 -55 -7.5t-39.5 -25t-26.5 -46.5t-15 -71h155
q13 0 22 -9t9 -22v-12q0 -13 -9 -22t-22 -9h-160v-74h160q13 0 22 -9t9 -22v-12q0 -13 -9 -22t-22 -9h-156q5 -44 15 -73.5t26.5 -47.5t40 -25.5t55.5 -7.5q28 0 52 7.5t44 19.5q11 7 23.5 4t19.5 -14l18 -28q7 -11 4.5 -23.5t-13.5 -19.5q-29 -19 -66.5 -30.5t-85.5 -11.5
q-114 0 -175.5 60t-78.5 190h-34q-13 0 -22 9t-9 22v12q0 13 9 22t22 9h28v52z" />
    <glyph glyph-name="trademark" unicode="&#x2122;" horiz-adv-x="796" 
d="M406 299q-13 0 -22 9t-9 22v331q0 13 9 22t22 9h54q14 0 24.5 -8t14.5 -22l36 -133q9 -32 12 -54t4 -30h1l5 32q3 20 11 52l34 133q4 13 14.5 21.5t24.5 8.5h57q13 0 22 -9t9 -22v-331q0 -13 -9 -22t-22 -9h-23q-13 0 -22 9t-9 22v131q0 24 1 47t2 42.5t2 33t1 18.5h-2
q-2 -10 -8.5 -47t-19.5 -82l-27 -90q-4 -14 -15 -22t-25 -8h-8q-14 0 -25 8t-15 22l-26 88q-6 21 -11.5 42t-9 39t-6 31.5t-3.5 18.5h-1q0 -5 1.5 -19t2.5 -33.5t2 -43t1 -46.5v-130q0 -13 -9 -22t-22 -9h-18zM168 299q-13 0 -22 9t-9 22v285h-62q-13 0 -22 9t-9 22v15
q0 13 9 22t22 9h212q13 0 22 -9t9 -22v-15q0 -13 -9 -22t-22 -9h-62v-285q0 -13 -9 -22t-22 -9h-26z" />
    <glyph glyph-name="uni2126" unicode="&#x2126;" horiz-adv-x="668" 
d="M200 104q-70 25 -101 91t-31 188q0 161 67.5 241.5t198.5 80.5t198 -79t67 -243q0 -120 -31 -187t-103 -92h131q13 0 22 -9t9 -22v-42q0 -13 -9 -22t-22 -9h-189q-13 0 -22 9t-9 22v94q0 15 8 28t21 20q16 8 27.5 22t19.5 38t12 60.5t4 90.5q0 115 -30 169t-104 54
t-104.5 -53t-30.5 -168q0 -53 4 -90t12 -61.5t20 -39t27 -22.5q14 -7 21.5 -20t7.5 -28v-94q0 -13 -9 -22t-22 -9h-189q-13 0 -22 9t-9 22v42q0 13 9 22t22 9h129z" />
    <glyph glyph-name="uni2150" unicode="&#x2150;" horiz-adv-x="1009" 
d="M89 218q-13 0 -22 9t-9 22v3q0 13 9 22t22 9h48v255l-49 -24q-9 -5 -19.5 -2t-15.5 13l-1 2q-5 10 -2.5 21t11.5 18l75 59q24 19 55 19h7q13 0 22 -9t9 -22v-330h42q13 0 22 -9t9 -22v-3q0 -13 -9 -22t-22 -9h-182zM288 0q-11 0 -15.5 9t0.5 17l358 586q16 26 47 26h38
q11 0 15.5 -9t-0.5 -17l-358 -586q-16 -26 -47 -26h-38zM959 317q-18 -23 -38 -56.5t-37.5 -75.5t-31 -92.5t-19.5 -107.5q-2 -13 -11.5 -20.5t-21.5 -5.5l-29 4q-13 2 -21 12t-6 23q8 62 24 115t37 96.5t45 77.5t48 59h-169q-13 0 -22 9t-9 22v12q0 13 9 22t22 9h219
q13 0 22 -9t9 -22v-13q0 -15 -5.5 -31t-14.5 -28z" />
    <glyph glyph-name="uni2151" unicode="&#x2151;" horiz-adv-x="1041" 
d="M89 218q-13 0 -22 9t-9 22v3q0 13 9 22t22 9h48v255l-49 -24q-9 -5 -19.5 -2t-15.5 13l-1 2q-5 10 -2.5 21t11.5 18l75 59q24 19 55 19h7q13 0 22 -9t9 -22v-330h42q13 0 22 -9t9 -22v-3q0 -13 -9 -22t-22 -9h-182zM288 0q-11 0 -15.5 9t0.5 17l358 586q16 26 47 26h38
q11 0 15.5 -9t-0.5 -17l-358 -586q-16 -26 -47 -26h-38zM773 24q31 10 55.5 22t42 28t29 37t16.5 50q-16 -12 -38 -21.5t-51 -9.5q-26 0 -50 8.5t-42.5 26t-29.5 44.5t-11 63q0 78 43 116.5t112 38.5q77 0 121.5 -49t44.5 -150q0 -223 -222 -271q-12 -3 -23.5 3.5
t-15.5 19.5l-2 5q-4 12 2.5 23.5t18.5 15.5zM855 193q20 0 37 8.5t30 19.5v26q0 61 -18.5 87.5t-54.5 26.5q-67 0 -67 -82q0 -86 73 -86z" />
    <glyph glyph-name="uni2152" unicode="&#x2152;" horiz-adv-x="1388" 
d="M89 218q-13 0 -22 9t-9 22v3q0 13 9 22t22 9h48v255l-49 -24q-9 -5 -19.5 -2t-15.5 13l-1 2q-5 10 -2.5 21t11.5 18l75 59q24 19 55 19h7q13 0 22 -9t9 -22v-330h42q13 0 22 -9t9 -22v-3q0 -13 -9 -22t-22 -9h-182zM288 0q-11 0 -15.5 9t0.5 17l358 586q16 26 47 26h38
q11 0 15.5 -9t-0.5 -17l-358 -586q-16 -26 -47 -26h-38zM756 0q-13 0 -22 9t-9 22v3q0 13 9 22t22 9h48v255l-49 -24q-9 -5 -19.5 -2t-15.5 13l-1 2q-5 10 -2.5 21t11.5 18l75 59q24 19 55 19h7q13 0 22 -9t9 -22v-330h42q13 0 22 -9t9 -22v-3q0 -13 -9 -22t-22 -9h-182z
M1365 208q0 -107 -40.5 -160.5t-127.5 -53.5q-88 0 -129 54t-41 160q0 108 42 163.5t128 55.5t127 -56t41 -163zM1120 209q0 -79 16.5 -113.5t59.5 -34.5t59.5 35t16.5 115q0 79 -17 113.5t-59 34.5t-59 -35.5t-17 -114.5z" />
    <glyph glyph-name="onethird" unicode="&#x2153;" horiz-adv-x="1038" 
d="M89 218q-13 0 -22 9t-9 22v3q0 13 9 22t22 9h48v255l-49 -24q-9 -5 -19.5 -2t-15.5 13l-1 2q-5 10 -2.5 21t11.5 18l75 59q24 19 55 19h7q13 0 22 -9t9 -22v-330h42q13 0 22 -9t9 -22v-3q0 -13 -9 -22t-22 -9h-182zM288 0q-11 0 -15.5 9t0.5 17l358 586q16 26 47 26h38
q11 0 15.5 -9t-0.5 -17l-358 -586q-16 -26 -47 -26h-38zM992 92q0 -60 -41.5 -98t-125.5 -38q-32 0 -57.5 4t-46.5 12q-12 4 -18.5 15.5t-2.5 23.5l2 7q3 12 14 18.5t24 3.5q16 -5 34 -8t38 -3q86 0 86 72q0 39 -21.5 54t-58.5 15h-22q-8 0 -14 6t-6 14v27q0 8 5 13t13 5h20
q73 0 73 62q0 29 -16.5 43t-52.5 14q-17 0 -31.5 -2.5t-28.5 -7.5q-12 -5 -23.5 0.5t-16.5 17.5l-2 6q-5 12 0.5 23.5t17.5 16.5q21 8 45.5 13t54.5 5q66 0 104.5 -31t38.5 -87q0 -41 -19.5 -65.5t-51.5 -36.5q40 -11 63 -38.5t23 -75.5z" />
    <glyph glyph-name="twothirds" unicode="&#x2154;" horiz-adv-x="1068" 
d="M79 218q-13 0 -22 9t-9 22v12q0 14 7 27.5t18 22.5q47 36 77 63.5t47 50t23.5 42t6.5 40.5q0 33 -17.5 48t-47.5 15q-19 0 -33.5 -3t-29.5 -9q-12 -5 -24 -0.5t-17 16.5l-3 8q-5 12 -0.5 24t16.5 17q20 9 45 15t57 6q69 0 108.5 -33.5t39.5 -96.5q0 -29 -9 -55.5t-29 -53
t-52.5 -54.5t-78.5 -61h143q13 0 22 -9t9 -22v-10q0 -13 -9 -22t-22 -9h-216zM318 0q-11 0 -15.5 9t0.5 17l358 586q16 26 47 26h38q11 0 15.5 -9t-0.5 -17l-358 -586q-16 -26 -47 -26h-38zM1022 92q0 -60 -41.5 -98t-125.5 -38q-32 0 -57.5 4t-46.5 12q-12 4 -18.5 15.5
t-2.5 23.5l2 7q3 12 14 18.5t24 3.5q16 -5 34 -8t38 -3q86 0 86 72q0 39 -21.5 54t-58.5 15h-22q-8 0 -14 6t-6 14v27q0 8 5 13t13 5h20q73 0 73 62q0 29 -16.5 43t-52.5 14q-17 0 -31.5 -2.5t-28.5 -7.5q-12 -5 -23.5 0.5t-16.5 17.5l-2 6q-5 12 0.5 23.5t17.5 16.5
q21 8 45.5 13t54.5 5q66 0 104.5 -31t38.5 -87q0 -41 -19.5 -65.5t-51.5 -36.5q40 -11 63 -38.5t23 -75.5z" />
    <glyph glyph-name="uni2155" unicode="&#x2155;" horiz-adv-x="1020" 
d="M89 218q-13 0 -22 9t-9 22v3q0 13 9 22t22 9h48v255l-49 -24q-9 -5 -19.5 -2t-15.5 13l-1 2q-5 10 -2.5 21t11.5 18l75 59q24 19 55 19h7q13 0 22 -9t9 -22v-330h42q13 0 22 -9t9 -22v-3q0 -13 -9 -22t-22 -9h-182zM288 0q-11 0 -15.5 9t0.5 17l358 586q16 26 47 26h38
q11 0 15.5 -9t-0.5 -17l-358 -586q-16 -26 -47 -26h-38zM978 113q0 -74 -41.5 -115t-125.5 -41q-31 0 -54.5 4.5t-42.5 11.5q-13 5 -19 16t-2 24l2 6q4 12 15 18t23 2q14 -5 30 -7.5t35 -2.5q46 0 66.5 21.5t20.5 59.5q0 41 -24 58.5t-67 17.5q-13 0 -25.5 -1.5t-24.5 -3.5
q-11 -2 -20 5.5t-7 18.5l14 183q1 13 11 22.5t23 9.5h167q13 0 22 -9t9 -22v-11q0 -13 -9 -22t-22 -9h-129l-9 -96q13 3 34 3q67 0 108.5 -34.5t41.5 -106.5z" />
    <glyph glyph-name="uni2156" unicode="&#x2156;" horiz-adv-x="1050" 
d="M79 218q-13 0 -22 9t-9 22v12q0 14 7 27.5t18 22.5q47 36 77 63.5t47 50t23.5 42t6.5 40.5q0 33 -17.5 48t-47.5 15q-19 0 -33.5 -3t-29.5 -9q-12 -5 -24 -0.5t-17 16.5l-3 8q-5 12 -0.5 24t16.5 17q20 9 45 15t57 6q69 0 108.5 -33.5t39.5 -96.5q0 -29 -9 -55.5t-29 -53
t-52.5 -54.5t-78.5 -61h143q13 0 22 -9t9 -22v-10q0 -13 -9 -22t-22 -9h-216zM318 0q-11 0 -15.5 9t0.5 17l358 586q16 26 47 26h38q11 0 15.5 -9t-0.5 -17l-358 -586q-16 -26 -47 -26h-38zM1008 113q0 -74 -41.5 -115t-125.5 -41q-31 0 -54.5 4.5t-42.5 11.5q-13 5 -19 16
t-2 24l2 6q4 12 15 18t23 2q14 -5 30 -7.5t35 -2.5q46 0 66.5 21.5t20.5 59.5q0 41 -24 58.5t-67 17.5q-13 0 -25.5 -1.5t-24.5 -3.5q-11 -2 -20 5.5t-7 18.5l14 183q1 13 11 22.5t23 9.5h167q13 0 22 -9t9 -22v-11q0 -13 -9 -22t-22 -9h-129l-9 -96q13 3 34 3
q67 0 108.5 -34.5t41.5 -106.5z" />
    <glyph glyph-name="uni2157" unicode="&#x2157;" horiz-adv-x="1053" 
d="M325 310q0 -60 -41.5 -98t-125.5 -38q-32 0 -57.5 4t-46.5 12q-12 4 -18.5 15.5t-2.5 23.5l2 7q3 12 14 18.5t24 3.5q16 -5 34 -8t38 -3q86 0 86 72q0 39 -21.5 54t-58.5 15h-22q-8 0 -14 6t-6 14v27q0 8 5 13t13 5h20q73 0 73 62q0 29 -16.5 43t-52.5 14
q-17 0 -31.5 -2.5t-28.5 -7.5q-12 -5 -23.5 0.5t-16.5 17.5l-2 6q-5 12 0.5 23.5t17.5 16.5q21 8 45.5 13t54.5 5q66 0 104.5 -31t38.5 -87q0 -41 -19.5 -65.5t-51.5 -36.5q40 -11 63 -38.5t23 -75.5zM321 0q-11 0 -15.5 9t0.5 17l358 586q16 26 47 26h38q11 0 15.5 -9
t-0.5 -17l-358 -586q-16 -26 -47 -26h-38zM1011 113q0 -74 -41.5 -115t-125.5 -41q-31 0 -54.5 4.5t-42.5 11.5q-13 5 -19 16t-2 24l2 6q4 12 15 18t23 2q14 -5 30 -7.5t35 -2.5q46 0 66.5 21.5t20.5 59.5q0 41 -24 58.5t-67 17.5q-13 0 -25.5 -1.5t-24.5 -3.5
q-11 -2 -20 5.5t-7 18.5l14 183q1 13 11 22.5t23 9.5h167q13 0 22 -9t9 -22v-11q0 -13 -9 -22t-22 -9h-129l-9 -96q13 3 34 3q67 0 108.5 -34.5t41.5 -106.5z" />
    <glyph glyph-name="uni2158" unicode="&#x2158;" horiz-adv-x="1063" 
d="M236 272h-189q-13 0 -22 9t-9 22v16q0 14 3.5 30.5t8.5 29.5l98 228q5 14 17 21.5t26 7.5h29q11 0 17.5 -9t1.5 -20l-112 -262h131v133q0 14 8.5 24t22.5 12l27 5q12 2 21.5 -6t9.5 -20v-148h14q13 0 22 -9t9 -22v-11q0 -13 -9 -22t-22 -9h-14v-59q0 -13 -9 -22t-22 -9
h-27q-13 0 -22 9t-9 22v59zM331 0q-11 0 -15.5 9t0.5 17l358 586q16 26 47 26h38q11 0 15.5 -9t-0.5 -17l-358 -586q-16 -26 -47 -26h-38zM1021 113q0 -74 -41.5 -115t-125.5 -41q-31 0 -54.5 4.5t-42.5 11.5q-13 5 -19 16t-2 24l2 6q4 12 15 18t23 2q14 -5 30 -7.5t35 -2.5
q46 0 66.5 21.5t20.5 59.5q0 41 -24 58.5t-67 17.5q-13 0 -25.5 -1.5t-24.5 -3.5q-11 -2 -20 5.5t-7 18.5l14 183q1 13 11 22.5t23 9.5h167q13 0 22 -9t9 -22v-11q0 -13 -9 -22t-22 -9h-129l-9 -96q13 3 34 3q67 0 108.5 -34.5t41.5 -106.5z" />
    <glyph glyph-name="uni2159" unicode="&#x2159;" horiz-adv-x="1041" 
d="M89 218q-13 0 -22 9t-9 22v3q0 13 9 22t22 9h48v255l-49 -24q-9 -5 -19.5 -2t-15.5 13l-1 2q-5 10 -2.5 21t11.5 18l75 59q24 19 55 19h7q13 0 22 -9t9 -22v-330h42q13 0 22 -9t9 -22v-3q0 -13 -9 -22t-22 -9h-182zM288 0q-11 0 -15.5 9t0.5 17l358 586q16 26 47 26h38
q11 0 15.5 -9t-0.5 -17l-358 -586q-16 -26 -47 -26h-38zM932 395q-31 -10 -55 -21.5t-41.5 -28t-28.5 -38.5t-16 -52q16 11 38 21.5t52 10.5q26 0 50 -8t42.5 -25t29.5 -43.5t11 -62.5q0 -78 -43 -116t-112 -38q-77 0 -122 48.5t-45 148.5q0 114 55 180t164 92
q12 3 23.5 -3.5t15.5 -19.5l2 -7q5 -12 -1.5 -23t-18.5 -15zM854 222q-22 0 -38.5 -8.5t-30.5 -19.5q-1 -5 -1 -11v-11q0 -60 19.5 -86.5t55.5 -26.5q66 0 66 82q0 42 -18 61.5t-53 19.5z" />
    <glyph glyph-name="uni215A" unicode="&#x215a;" horiz-adv-x="1056" 
d="M311 331q0 -74 -41.5 -115t-125.5 -41q-31 0 -54.5 4.5t-42.5 11.5q-13 5 -19 16t-2 24l2 6q4 12 15 18t23 2q14 -5 30 -7.5t35 -2.5q46 0 66.5 21.5t20.5 59.5q0 41 -24 58.5t-67 17.5q-13 0 -25.5 -1.5t-24.5 -3.5q-11 -2 -20 5.5t-7 18.5l14 183q1 13 11 22.5t23 9.5
h167q13 0 22 -9t9 -22v-11q0 -13 -9 -22t-22 -9h-129l-9 -96q13 3 34 3q67 0 108.5 -34.5t41.5 -106.5zM303 0q-11 0 -15.5 9t0.5 17l358 586q16 26 47 26h38q11 0 15.5 -9t-0.5 -17l-358 -586q-16 -26 -47 -26h-38zM947 395q-31 -10 -55 -21.5t-41.5 -28t-28.5 -38.5
t-16 -52q16 11 38 21.5t52 10.5q26 0 50 -8t42.5 -25t29.5 -43.5t11 -62.5q0 -78 -43 -116t-112 -38q-77 0 -122 48.5t-45 148.5q0 114 55 180t164 92q12 3 23.5 -3.5t15.5 -19.5l2 -7q5 -12 -1.5 -23t-18.5 -15zM869 222q-22 0 -38.5 -8.5t-30.5 -19.5q-1 -5 -1 -11v-11
q0 -60 19.5 -86.5t55.5 -26.5q66 0 66 82q0 42 -18 61.5t-53 19.5z" />
    </font>
</defs>
</svg>
